<?xml version="1.0" encoding="UTF-8"?>
<svg id="_图层_1" data-name="图层 1" xmlns="http://www.w3.org/2000/svg" viewBox="0 0 566.93 128.35">
  <defs>
    <style>
      .cls-1 {
        fill: #0068b7;
        fill-rule: evenodd;
      }
    </style>
  </defs>
  <path class="cls-1" d="M181.74,50.52s0,.02,0,.02c.05,1.8-.08,3.64,.27,5.22,.08,.38,.07,.85,.1,1.28,.08,1.25,.18,2.66,.15,3.78,.14,.55-.06,1.09-.03,1.64,.05,.89,.19,1.92,.15,2.96-.01,.33,0,.68-.1,.96-.09,.26-.23,.39-.25,.77-.02,.3,0,.59-.02,.86-.03,.69-.05,1.45,.24,1.88,.07,.1,.18,.19,.22,.35,.04,.18,.01,.4,.03,.61,.12,1.45,.3,3.08,.27,4.62-1.52,.65-3.03,1.39-4.67,1.86-.84-1.07-1.6-2.2-2.55-3.16-.22-.22-.46-.48-.67-.76-.21-.28-.46-.53-.6-.82-.31-.62-.66-1.22-.96-1.9-.28-.63-.55-1.32-.79-2.06-.12-.36-.27-.7-.35-1.07-.09-.4-.13-.83-.12-1.31,.03-1.78,.52-3.26,.96-4.75,.6,.14,.92,.48,1.26,.91,.36,.45,.54,1.02,1.17,1.18,.16-.15,.09-.41,.1-.64,.03-.47,0-.99,.05-1.44-.05-.13-.02-.33-.08-.45-.52-.31-1.18-.48-1.75-.74,.23-.67,.24-1.52,.27-2.37,.03-.9,.01-1.84-.05-2.62-.02-.29,.04-.69-.03-.91-.04-.11-.17-.19-.22-.28-.26-.47-.34-1.28-.4-1.91-.07-.71-.12-1.44-.13-2.15-.54-.06-1.3,.06-1.65-.22-.23-.19-.32-.37-.57-.47-.06-.03-.13-.04-.2-.07-.11-.04-.22-.07-.35-.1-.82-.21-1.59-1.01-1.66-1.98-.04-.6,0-1.55,.28-2.1,.05-.1,.15-.15,.2-.27,.13-.3,.05-.74,0-1.11-.21,.04-.46,.2-.79,.23-.13,.01-.25-.04-.37-.05-.14-.02-.32,.05-.37-.09-.14,.05-.39,.09-.6,.05-.03,0-.09-.06-.14-.07-.11-.02-.19,.06-.23-.07-.05,.02-.1,.05-.15,.07,0-.09-.14-.04-.17-.1-.19,.07-.33-.11-.52-.03-.07,0-.05-.05-.12-.07-.11-.03-.25,.03-.3-.07-.26,.05-.44-.14-.6-.03-.11-.13-.26-.03-.35-.18-.09,.02-.22,0-.32-.03-.33-.09-.68-.24-.92-.4-.07,0-.11-.01-.17-.02-.08-.08-.19-.18-.33-.15,.02-.14-.12-.12-.22-.15-.06-.02,0-.06-.03-.1-.21-.02-.3-.17-.44-.27-.07-.01-.11,.01-.17,.02-.09-.1-.28-.09-.35-.2-.11,.05-.29,0-.32-.13-.37,0-.54-.32-.85-.42-.13-.14-.37-.18-.47-.35-.16,0-.16-.15-.32-.14-.08-.19-.35-.21-.5-.32-.08-.06-.1-.19-.22-.15,0-.1-.11-.11-.12-.2-.09-.01-.16-.06-.22-.1-.13-.15-.27-.32-.47-.45-.07-.04-.15-.05-.22-.1-.1-.08-.17-.22-.32-.22-.32-.4-.64-.81-1.06-1.11-.04-.13-.12-.21-.22-.29,0-.07-.05-.09-.03-.19-.2-.14-.26-.44-.45-.59,.01-.09,.02-.19-.01-.25-.03-.06-.11-.07-.15-.12-.08-.1-.03-.19-.12-.3-.03-.03-.08-.05-.1-.08,.04-.08,0-.23,.02-.29-.13-.13-.11-.22-.17-.4-.14-.06-.17-.23-.23-.37,.17-.31-.18-.68-.02-.99-.01-.11-.19-.12-.2-.22,0-.09,.05-.07,.1-.15-.04-.16-.07-.3-.13-.47-.07-.18-.15-.59-.15-.86v-.04c0-.15,.03-.3,.03-.46,0-.24-.03-.44,.05-.67,.11-.31,.3-.64,.51-.81,.01-.22,.16-.28,.29-.45,.08-.11,.13-.24,.2-.34,.16-.21,.46-.43,.65-.67,.02-.03,.02-.06,.05-.08,.02-.02,.07-.03,.08-.05,.13-.18,.14-.43,.35-.5,.14-.05,.29,.02,.44,.02,.19,0,.41-.08,.55-.07,.19,.02,.38,.16,.55,.27,.17,.11,.28,.25,.44,.39,.27,.22,.6,.37,.81,.52,.04,.03,.05,.09,.1,.13,.12,.1,.29,.08,.32,.29,.31,.04,.49,.36,.77,.55,.11,.08,.27,.14,.42,.22,.13,.07,.31,.19,.44,.19,.21-.01,.37-.31,.65-.32,.27-.11,.43-.35,.66-.5,.19-.13,.36-.21,.52-.35,.27-.24,.51-.57,.92-.69,.45-.28,.7-.76,1.31-.89,.22-.26,.59-.34,.86-.55,.1-.08,.16-.22,.27-.28,.13-.08,.3-.11,.44-.19,.1-.09,.21-.19,.32-.27,.11-.08,.21-.17,.32-.25,.16-.12,.39-.19,.59-.29,.29-.15,.47-.38,.81-.47,.45-.55,1.17-.82,1.9-1.09,.11-.38,.56-.43,.89-.62,.07-.04,.14-.11,.2-.15,.2-.13,.45-.2,.7-.32,.45-.21,.86-.5,1.31-.71,.2-.14,.24-.32,.27-.67,.01-.16,.07-.32,.08-.49,.01-.15,0-.28,.02-.42,.03-.28,.13-.58,.13-.91,0-.38,.09-.68,.15-.97,.03-.15,0-.3,.02-.45,.02-.19,.15-.35,.1-.55,.09-.15,.12-.33,.15-.52,.03-.19,0-.39,.03-.59,0-.07,.07-.14,.08-.22,.04-.19,.05-.43,.1-.65,.06-.23,.11-.46,.12-.65,.02-.28-.02-.54,.12-.72-.05-.17,.05-.27,.08-.42,.03-.1,0-.2,.03-.27,.03-.08,.1-.13,.15-.17,.02-.38,.23-.72,.2-1.04,.06-.05,.07-.14,.13-.18-.04-.23,.09-.44,.12-.67,.03-.2,0-.43,.02-.65,.06-.94,.12-1.77,.35-2.52,.06-.19,.14-.37,.18-.57,.06-.27,.11-.55,.17-.82,.04-.18,.13-.38,.18-.59,.12-.45,.14-.99,.44-1.28,.22-.74,.35-1.39,.34-2.37,0-.5-.05-.99-.12-1.48-.04-.31-.1-.45,.02-.74,.16-.39,.39-.81,.79-.97,.11-.07,.15-.18,.27-.27,.12-.09,.29-.1,.4-.17,.13-.07,.22-.23,.35-.25,.15-.02,.33,.05,.44,.1,.23,.12,.36,.42,.54,.52,.16,.09,.43,.09,.62,.05,.24-.04,.39-.11,.7-.03,.31,.08,.69,.44,.94,.7,.28,.3,.49,.67,.67,.97,.43,.73,.89,1.61,.91,2.67,.1,.15,.23,.21,.34,.34,.15,.19,.16,.41,.23,.65,.06,.19,.2,.38,.27,.59,.04,.12,.03,.25,.07,.35,.06,.17,.24,.43,.35,.59,.13,.18,.27,.38,.34,.6,.02,.08,0,.18,.03,.27,.03,.11,.14,.18,.19,.28,.02,.05,.01,.11,.03,.17,.07,.2,.23,.36,.25,.57,.29,.27,.47,.83,.67,1.26,.15,.32,.29,.73,.37,1.14,.09,.48-.08,.97-.15,1.44-.12,.76-.19,1.59-.29,2.38-.06,.52-.13,1.19-.2,1.8-.03,.3-.14,.65,.07,.74,.22,.09,.73-.12,.99-.18,1.7-.43,3.4-.65,5.25-.89,.98-.13,2.14-.27,3.07-.07,.75,.16,1.42,.36,1.95,.81,.66,.31,1.14,.87,1.58,1.44,.21,.28,.41,.6,.59,.92,.17,.32,.36,.65,.5,.99,.61,1.48,.78,3.27,.65,5.25-.03,.49-.08,.87-.27,1.24-.51,1.02-1.02,1.92-1.83,2.67-.51,.47-1.09,.85-1.75,1.26-.3,.19-.67,.32-1.07,.44-.38,.11-.92,.26-1.26,.2-.17-.03-.36-.15-.59-.13-.22,.01-.45,.13-.6,.25,.18,.17,.62,.16,.77,.37,.14,.19,.06,.62-.12,.74-.21,.15-.61,.24-.86,.34-1.4,.57-2.72,1.16-3.94,1.96-.47,.31-.95,.62-1.24,1.11-.58,.97-.97,2.21-1.38,3.36-.35,.97-.71,2.04-1.06,3.07-.05,.15-.07,.32-.13,.45-.08,.17-.25,.36-.39,.52-.66,.81-1.45,1.55-2.37,2.12-.36,.23-.77,.5-1.16,.62-.26,.08-.47,.1-.57,.37-.07,.18-.02,.38-.07,.61-.02,.1-.09,.18-.1,.25-.06,.34,0,.7-.03,.97-.03,.29-.1,.59-.03,.92-.2,.15-.46,.24-.35,.6,.08-.05,.26-.14,.35-.23h0Zm213.1-16.93c.07-.04,.14-.08,.22-.1,.12-.23,.23-.39,.48-.48,.01-.16,.19-.24,.17-.48,.06-.04,.11-.07,.15-.14,.04-.05,0-.17,.1-.14,.04-.04,0-.18,.04-.22,.23-.39,.51-.73,.75-1.11,1.2-1.88,2.53-3.66,3.98-5.31,.49-.56,1-1.13,1.55-1.65,.23-.21,.48-.5,.72-.73,.26-.26,.54-.49,.82-.73,1.37-1.22,2.69-2.4,4.12-3.63,.13-.11,.27-.24,.42-.36,.15-.11,.35-.21,.44-.32,.11-.13,.17-.35,.25-.51,.18-.32,.36-.6,.63-.87,.13-.12,.3-.28,.45-.31,.27-.05,.57,.09,.89,.1,.34,.01,.71,.02,.99,0,.26-.02,.61-.28,.82-.43,.09-.06,.22-.14,.32-.24,.08-.08,.2-.27,.27-.29,.2-.04,.29,.27,.51,.32,.14,.04,.22-.02,.38,.02,.12,.14,.04,.36,.03,.55,0,.35,.07,.78,.27,.94,.1,.07,.23,.05,.34,.1,.16,.08,.25,.31,.48,.32,.2,.29,.7,.57,.73,1.02,.1,1.25-.95,2.2-1.5,2.85-1.09,.66-2.03,1.47-3.01,2.23-1.55,.79-2.97,1.83-4.21,3.06-.2,.2-.4,.42-.57,.65-.18,.23-.38,.48-.49,.72-.09,.18-.14,.36-.24,.53-.18,.31-.43,.55-.7,.83-.13,.14-.27,.32-.39,.38-.05,.02-.03,.05-.13,0-.11,.14-.25,.25-.36,.39,0,.08,.14,.02,.13,.1-.02,.13-.06,.25-.04,.37-.42,.67-1.06,1.32-1.65,1.91-.2,.19-.38,.46-.58,.6-.05,.04-.13,.04-.19,.08-.09,.08-.13,.22-.21,.31-.18,.2-.43,.42-.66,.63-.24,.22-.44,.49-.67,.63-.18,.11-.37,.17-.54,.29-.31,.21-.6,.49-.85,.8-.12,.14-.28,.33-.34,.48-.04,.11-.04,.27-.07,.39-.08,.34-.2,.72-.31,1.06-.09,.3-.14,.65-.2,.99-.13,.65-.27,1.27-.39,1.96-.06,.34-.16,.72-.15,1.02,0,.27,.14,.63,.2,.9,.07,.3,.13,.59,.17,.92,.19,0,.3-.15,.39-.27,.26-.37,.62-.7,.95-1.02,1.32-1.51,2.75-2.93,4.05-4.48,.16-.19,.32-.39,.48-.6,.15-.2,.32-.39,.46-.6,.28-.41,.65-.78,.95-1.17,.15-.2,.34-.38,.51-.56,.17-.18,.33-.38,.49-.56,.34-.37,.71-.71,1.07-1.06,.11-.11,.25-.19,.37-.29,.12-.1,.21-.23,.33-.32,.1-.08,.25-.12,.37-.2,.09-.06,.16-.18,.24-.22,.21-.12,.42-.14,.6-.26,.16-.1,.26-.26,.44-.39,.17-.12,.37-.2,.54-.31,.52-.32,.99-.7,1.42-1.12,.2-.08,.35-.21,.54-.31,.45-.22,1.03-.42,1.65-.41,.11,0,.22,.04,.36,.05,.48,.03,.88,0,1.29,.07,1.15,.18,2.13,.62,2.95,1.21,1.07,.77,1.98,1.77,2.43,3.1,.48,1.39,.94,3.02,.82,4.7-.06,.85-.36,1.45-.7,2.08-.16,.29-.33,.59-.51,.87-.22,.35-.46,.73-.82,.95-.06,.19-.21,.26-.31,.39-.35,.48-.47,1.28-.6,2.03-.26,1.57-.33,3.13-.51,4.7-.09,.75-.27,1.48-.36,2.25-.18,1.64,0,3.37,.24,4.87,.17,1.11,.34,2.31,.24,3.63-.03,.38-.13,.75-.17,1.12-.04,.31-.04,.56-.1,.82-.13,.5-.34,.8-.53,1.28-.09,.23-.19,.56-.08,.77,.08,.14,.26,.18,.49,.27,.53,.21,1.11,.44,1.58,.68,.7,.35,1.26,.8,1.85,1.17,.68,.43,1.18,.73,1.72,1.31,.37,.4,.7,.78,1.04,1.22,.11,.14,.16,.33,.27,.48,.16,.2,.44,.38,.63,.58,.18,.2,.38,.44,.48,.73,.09,.27,.14,.58,.21,.87,.07,.3,.16,.58,.15,.9,0,.39-.18,.83-.34,1.19-.14,.33-.31,.69-.61,.92-.19,.14-.44,.22-.68,.29-.24,.07-.54,.16-.8,.15-.09,0-.26-.05-.36-.05-.33,0-.61,.09-.9,.12-.94,.09-1.84-.17-2.57-.42-.94-.33-1.89-.82-2.69-1.36-.79-.54-1.43-1.31-2.03-2.03-.45-.55-.91-1.11-1.34-1.69-.14-.19-.27-.41-.43-.58-.31-.33-.9-.63-.49-1.21-.02-.15-.25-.22-.34-.34-.1-.13-.18-.29-.27-.43-.36-.53-.76-1.07-1.34-1.43-.11-.06-.19-.15-.29-.22-.16-.1-.32-.21-.53-.34-.14-.09-.34-.24-.45-.24-.13,0-.17,.18-.29,.19-.11,0-.3-.13-.38-.19-.1-.09-.17-.23-.27-.29,.01-.08-.02-.12-.02-.19-.43-.47-1.12-.75-1.8-1.02-.17-.07-.56-.23-.75-.19-.11,.03-.19,.19-.22,.34-.02,.1,0,.22-.02,.32-.03,.11-.17,.24-.26,.36-.25,.34-.52,.73-.68,1.12-.89,.86-1.76,1.77-2.77,2.55-.15,.11-.35,.19-.45,.31-.17,.19-.26,.5-.41,.71-.45,.63-1.1,1.17-1.79,1.58-.24,.15-.49,.26-.72,.41-.56,.37-1.1,.76-1.65,1.16-.05,.04-.12,.07-.17,.12-.06,.05-.07,.1-.14,.14-.24,.15-.55,.25-.83,.36-.29,.12-.59,.22-.88,.31-.01-.08-.09-.13-.09-.22,.01-.12,.09-.09,.1-.17-.28-.13-.55,.07-.82,.1-.28,.03-.56-.07-.87,0-.08-.06-.16-.11-.24-.17,0-.15-.07-.27-.1-.38,.54-.16,1.26-.15,1.59-.53-.16-.42-.66-.09-.97-.12-.49-.05-.94-.15-1.43-.24-.5-.09-1.01,.02-1.57-.03-.17-.02-.33-.12-.51-.15-.35-.06-.9,.04-1.33,.09-.46,.05-.93,.09-1.35,.15-.41,.06-.83,.17-1.27,.24-.21,.03-.43,.07-.65,.1-.22,.04-.48,.12-.65,.1-.13-.02-.23-.14-.34-.19-.56-.22-1.27-.03-1.82,.05-.41-.4-.09-1.24,.08-1.67,1.45-.33,2.9-.7,4.19-1.21,.42-.17,.82-.4,1.24-.54,1.78-.6,3.47-1.27,4.98-2.2,.71-.44,1.34-1.04,1.99-1.6,1.6-1.37,3.16-2.85,4.26-4.72,.11-.2,.21-.39,.3-.6,.17-.39,.27-.81,.56-1.11,0-.16,.1-.33,.22-.43-.03-.04-.02-.15,.04-.1,.04-.17,.16-.33,.25-.55,.26-.59,.54-1.31,.8-1.94,.04-.09,.04-.18,.07-.27,.03-.08,.11-.15,.13-.24,.05-.14,.1-.34,.14-.51,.31-1.36,.7-3.14,.51-4.75-.06-.52-.33-1.2-.21-1.8,.04-.21,.12-.39,.15-.61,.09-.68,0-1.49-.03-2.18,0-.02-.03,0-.04,.02-.06,.05-.03-.04-.05-.05-.52,.7-1.07,1.46-1.79,2.01-.23,.18-.54,.31-.73,.53-.12,.13-.2,.32-.31,.48-.54,.79-1.02,1.52-1.4,2.52-.12,.33-.45,.79-.41,1.14,.02,.26,.32,.44,.32,.75,.04,.06,.11,.09,.17,.14,.02,.17,.05,.34,.12,.46-.12,.19-.19,.39-.31,.61-.03,.07-.08,.12-.1,.19-.04,.13-.03,.28-.07,.41-.06,.2-.18,.38-.27,.55-.05,.08-.1,.17-.15,.26-.06,.1-.13,.18-.19,.29-.17,.38-.15,.74-.19,1.23-.02,.37-.15,.8-.27,1.06-.06,.12-.23,.23-.24,.34,0,.1,.13,.19,.21,.31,.22,.32,.29,.7,.42,1.11,.09,.29,.22,.44,.29,.78,.08,.45-.06,.74-.48,.68-.21-.03-.36-.23-.51-.22-.04-.14-.09-.26-.17-.37-.07-.1-.12-.27-.27-.29-.13,.18-.22,.4-.38,.54-.11-.09-.16-.29-.37-.34-.06-.01-.13,.03-.22,.03-.17,.01-.33-.04-.39-.02-.09,.04-.07,.17-.14,.22-.06,.07-.12-.08-.17-.02-.14,.23,0,.5-.14,.72-.19,.3-.7,.14-.78-.17-.06-.26,.05-.53,.07-.82,.01-.18-.01-.36,0-.53,.02-.25,.09-.45-.07-.63-.22,0-.39,.14-.49,.19-.11-.02-.11-.15-.14-.25-.26-.19-.27-.57-.39-.89-.09-.25-.28-.43-.44-.6-.75,.39-1.2-.47-1.4-1.16-.08-.27-.12-.59-.15-.9-.03-.31-.08-.68-.04-1,0-.02,0-.04,0-.05,.24-.58,.49-1.31,.27-2.04-.02-.08-.09-.15-.1-.24-.06-.28,.03-.64,.05-.92,.05-.59,.16-1.03,.39-1.48,.11-.21,.25-.39,.36-.6,.07-.14,.09-.3,.15-.44,.04-.09,.12-.15,.17-.24,.14-.25,.23-.59,.31-.9-.21-.14-.72-.11-.92-.03-.35,.13-.63,.75-.8,1.09-.23,.46-.34,.98-.58,1.31-.48,.16-.39,.93-.44,1.53-.04,.46-.16,.88-.32,1.28-.07,.18-.16,.43-.27,.51-.08,.06-.22,.02-.31,.05-.18,.06-.35,.34-.44,.49-.13,.21-.24,.4-.29,.65-.52,.49-.95,1.06-1.31,1.72-.12,.22-.26,.43-.32,.68-.26,.16-.34,.63-.26,1.02,0,.04,.05,.13,.05,.15,0,.13-.21,.26-.22,.36-.03,.19,.09,.39,.1,.53-.04,.1-.12,.2-.12,.32,0,.16,.14,.3,.15,.46,.04,.42-.2,.69-.48,.92,.04,.33-.16,.43-.26,.66-.13,.31-.14,.78-.12,1.16,0,.11,.06,.2,.07,.31,.01,.18-.07,.41-.05,.63,0,.13,.06,.25,.07,.36,0,.24-.04,.49-.12,.63-.07,.13-.2,.25-.29,.39-.42,.68-1.05,1.24-1.84,1.53-.18,.07-.35,.12-.54,.14-.19,.02-.37-.03-.61-.05-.36-.03-.68,0-1.01-.07-.14-.03-.3-.06-.46-.1-.13-.03-.27-.12-.41-.13-.37-.04-.72,.02-1.07-.04-.96-.13-1.76-.44-2.38-.99-.64-.63-1.01-1.64-1.18-2.78-.02-.16,0-.35-.05-.51-.03-.1-.15-.21-.19-.32-.07-.21-.08-.45-.12-.75-.01-.11-.07-.21-.08-.32-.04-.39,.03-.8,.08-1.18,.03-.24,.05-.62,.14-.78,.25-.46,.64-.82,1.07-1.12,.44-.31,.81-.91,1.11-1.46,.87-1.64,1.35-3.83,1.74-5.94,.46-2.47,.8-5.26,.95-8.05,.02-.4,.03-.81,.1-1.18,.43-2.17,.46-4.7,.46-7.22,0-.85,.01-1.7-.14-2.44-.28-1.38-1.06-2.42-2.27-2.88-.61-.23-1.25-.49-2.03-.54-.59-.04-1.22,.03-1.74,.15-.21,.05-.45,.17-.72,.12-.14-.03-.2-.13-.37-.15-.11-.02-.29-.02-.43,0-.19,.02-.36,.2-.6,.24-.13,.02-.28-.01-.43,0-.13,.01-.26,.08-.39,.1-.19,.02-.38,.01-.56,.05-.32,.07-.6,.22-.92,.03,.04-.05,0-.13-.05-.15,.08-.2,.27-.34,.43-.49,.78-.78,1.7-1.48,2.78-1.99,.43-.2,.86-.44,1.29-.61,1.84-.71,4.77-.53,6.52,.15,.15-.06,.32,.1,.44,.1,.21,.01,.54-.14,.79-.22,.74-.25,1.46-.59,2.07-.92,2.18-1.16,4.1-2.52,6.05-3.92,.39-.28,.74-.61,1.16-.83,.15-.21,.39-.3,.59-.46,.06-.05,.1-.12,.17-.17,.24-.16,.52-.27,.77-.42,3.36-2.06,6.25-4.83,8.85-7.68,.16-.18,.31-.37,.49-.54,0,0,.04-.06,.05-.02,.04-.21,.24-.3,.37-.44,.23-.25,.37-.59,.58-.89,.08-.11,.18-.2,.25-.31,.08-.11,.11-.23,.19-.36,.1-.17,.24-.3,.32-.46,.09-.17,.13-.37,.22-.54,.07-.14-.15-.3-.08-.46-.11-.1-.22-.21-.33-.36-.09-.12-.23-.26-.25-.41-.02-.14,.03-.3,0-.44-.02-.12-.12-.24-.14-.36-.01-.12,.08-.24,.1-.37,.01-.1-.02-.21-.02-.31,0-.19,.11-.34,.14-.49,.03-.16-.04-.31-.02-.43,.03-.15,.27-.29,.39-.44,.05-.06,.06-.14,.1-.17,.05-.04,.16-.04,.22-.07,.11-.06,.19-.17,.29-.26,.1-.09,.2-.21,.29-.25,.28-.12,.66-.09,1.01-.12,.35-.03,.79-.1,1.1-.03,.15,.03,.33,.11,.49,.17,1.12,.37,2.18,.87,3.1,1.45,1.06,.67,1.99,1.57,2.64,2.57,.23,.35,.39,.78,.55,1.19,.09,.22,.15,.43,.22,.65,.08,.23,.08,.47,.13,.72,.05,.21,.17,.42,.17,.7,0,.48-.14,.89-.6,.97-.35,.68-.93,1.22-1.6,1.63-.22,.14-.45,.3-.68,.39-.15,.06-.3,.09-.44,.15-.92,.4-1.85,.89-2.59,1.5-.14-.06-.23,.04-.34,.08-.07,.03-.14,.03-.17,.05-.09,.08-.07,.22-.14,.32-.14,.12-.33,.21-.53,.29-.08,.04-.18,.11-.27,.14-.09,.03-.23-.01-.27,.1-.48-.05-.91,.13-1.3,.29-1.1,.47-2.11,1.15-3.06,1.79-.97,.65-1.91,1.32-2.84,2.01-.31,.23-.62,.46-.92,.7-2.59,.82-5.04,1.87-7.48,2.88-2.44,1.01-4.86,2.02-7.27,3.03h-.03s-.02-.02-.04-.02c1.54,1.63,3.03,3.18,4.36,5.09,.33,.48,.65,.96,.82,1.55,.34,1.19,.63,2.6,.53,4.14-.05,.7-.37,1.78,.12,2.25,.16,.33,.4-.05,.6-.19,.26-.19,.46-.27,.68-.49,.09-.09,.2-.2,.26-.29,.06-.09,.07-.21,.12-.32,.03-.06,.1-.1,.14-.17,.04-.07,.03-.16,.07-.22,.1-.13,.3-.26,.44-.41,.28-.31,.53-.56,.84-.85,.43-.4,.87-.81,1.31-1.21,.31-.27,.65-.49,.89-.78h0Zm153.74,3.95c-.34,.11-.77,.3-1.16,.44-.25,.09-.59,.17-.7-.09-.04-.09,.05-.14,.04-.26-.02-.17-.18-.28-.37-.39-.14,.07-.34,.06-.33,.28-.07,.03-.16,.03-.22,.07,.08,.3,.44,.32,.64,.5,.36-.03,.57,.24,.87,.39,.1,.04,.2,.07,.3,.11,.19,.09,.45,.31,.51,.5,.05,.16,.01,.36,.06,.53,.03,.13,.13,.26,.15,.37,.03,.19-.01,.44,0,.66,.01,.23,.05,.45,.02,.6-.06,.28-.39,.44-.44,.74-.04,.25,.07,.47,0,.68-.07,.23-.45,.32-.46,.64-.19,.09-.31,.25-.52,.31-.13,.04-.3,.01-.42,.07-.21,.11-.28,.37-.41,.57-.17,.26-.54,.4-.62,.68-.69,.41-1.33,1.21-1.97,1.78-.11,.1-.21,.2-.31,.31-.11,.11-.25,.18-.35,.28-.19,.18-.29,.47-.59,.55-.08,.02-.23,0-.31,.02-.06,.02-.22,.16-.26,.24-.08,.16-.08,.38-.15,.55-.05,.13-.13,.27-.2,.39-.12,.19-.52,.54-.48,.86,.02,.17,.18,.16,.29,.26,.16,.13,.3,.36,.48,.44,.34,.13,.76,.2,1.25,.15,.19-.02,.39-.03,.59-.04,.4-.02,.81-.15,1.16-.16,.27,0,.84,.09,1.01-.02,.16-.1,.08-.32,.16-.44,.19-.31,.97-.26,1.43-.17,.1,.02,.3-.07,.42-.09,.41-.08,.82-.1,1.3-.02,1.64,.29,3.65,.14,5.43,.15,.46,0,.92,.07,1.36,.11,1.1,.11,2.22,.22,3.35,.33,.23,.02,.48,0,.68,.05,.26,.06,.54,.21,.84,.3,.15,.04,.3,.08,.46,.11,.16,.03,.34,.03,.5,.07,.25,.07,.49,.27,.68,.42,.21,.17,.34,.4,.52,.59,.23,.25,.59,.48,.9,.64,.12,.06,.24,.09,.37,.15,.2,.1,.41,.26,.62,.39,.52,.31,1.04,.62,1.71,.83,.15,.05,.3,.09,.31,.19,.02,.19-.74,.5-.81,.68-.09,.2-.01,.52-.02,.75-.02,.78-.38,1.29-.77,1.73-.41,.11-.58,.42-.98,.63-.23,.12-.55,.19-.82,.27-.13,.04-.28,.09-.42,.13-.15,.04-.33,.05-.44,.11-.12,.07-.14,.19-.29,.26-.16,.07-.33,.08-.53,.15-.21,.07-.36,.25-.53,.37-.57-.06-1.11-.24-1.65-.37-.53-.13-1.02-.34-1.54-.46-.51-.11-1.03-.29-1.55-.46-.51-.16-1.06-.28-1.51-.5-.22-.11-.41-.26-.62-.37-1.06-.53-2.52-.81-4.1-.57-.28,.04-.55,.1-.81,.17-.26,.07-.5,.11-.72,.22,.67,.9,1.13,2.36,1.43,3.77,.14,.65,.3,1.34,.27,1.97-.02,.5-.15,.93-.29,1.38-.08,.25-.19,.58-.29,.86-.36,1.01-1.04,1.77-1.75,2.48-.56,0-.95,.25-1.16,.63-.09,.15-.13,.3-.2,.42-.23,.39-.53,.68-.88,.99-.44,.38-.87,.76-1.36,1.12-.48,.34-.97,.67-1.49,.99-.49,.31-1,.61-1.34,1.14-.89,.36-1.77,.89-2.69,1.29-.16,.07-.34,.13-.51,.2-.17,.07-.34,.19-.5,.22-.2,.04-.41,.04-.61,.09-.91,.22-1.74,.55-2.81,.61-.44,.02-.76,.16-1.12,.24-.28,.06-.73,.02-1.09,0-.35-.02-.71,.02-1.05,.02-1.74,0-3.59-.05-5.09-.39-.65-.14-1.05-.27-1.49-.59-.17-.12-.37-.31-.59-.38-.11-.04-.23-.03-.33-.06-.4-.12-.68-.51-1.03-.7-.36-.06-.63-.21-.9-.42-.28-.22-.53-.38-.64-.74-.52-.38-.98-.68-1.38-1.1-.7-.75-1.53-1.98-1.47-3.47,.03-.56,.1-1.2,.15-1.67,.04-.49-.01-1.14,.03-1.78,.08-1.09,.28-1.87,.76-2.55,.08-.12,.2-.23,.28-.37,.09-.16,.11-.29,.18-.4,.14-.24,.34-.43,.59-.59,.34-.22,.65-.38,.83-.79,.03-.07,.02-.16,.06-.24,.11-.25,.53-.53,.81-.73,.31-.23,.62-.47,.92-.61,.23-.1,.4-.13,.57-.26,.13-.1,.2-.27,.35-.37,.15-.1,.41-.15,.63-.24,2.25-.93,4.4-1.88,6.65-2.81,.38-.16,.84-.28,1.29-.44,.36-.13,.99-.38,1.08-.62,.07-.18,0-.5,.02-.74,.08-.75,.16-1.39,.48-1.97,.28-.51,.56-1.03,.88-1.56,.06-.1,.31-.38,.26-.55-.05-.17-.47-.2-.72-.24-.31-.05-.59-.09-.79-.15-.4-.11-1.04-.3-1.41-.46-.27-.12-.5-.41-.74-.53-.14-.07-.29-.08-.42-.15-1.07-.56-2.33-1.74-1.69-3.51,.04-.12,.12-.23,.18-.35,.17-.35,.35-.72,.51-1.09,.11-.24,.19-.52,.33-.73,.14-.22,.34-.39,.44-.63,.04-.1,.06-.23,.11-.33,.29-.6,.91-.82,1.38-1.32,.17,.04,.26-.08,.4-.11,.13-.02,.27,.03,.44,0,.27-.05,.65-.36,.95-.51,.3-.15,.65-.36,.99-.46,.48-.13,1-.18,1.36-.4,.16-.1,.27-.29,.41-.4,.58-.49,1.77-.87,2.65-1.07,.46-.1,.94-.26,1.41-.44,.47-.18,.95-.32,1.32-.51,.29-.15,.56-.49,.81-.61,.32-.16,.62-.09,1.01-.15,.37-.06,.76-.41,1.12-.51,.29-.08,.54-.06,.79-.17-.04,.25-.3,.43-.48,.59,.03,.06,.08,.11,.13,.17,.11,.13,.2,.41,.46,.29,.06-.14-.04-.25-.02-.37,.05-.35,.54-.47,.33-.97,.48-.5,1.19-.65,1.78-1.01,.59-.36,1.14-.72,1.62-1.16,.05-.37,.43-.51,.64-.77-.49,.08-.98,.03-1.43,.07-.13,.01-.25,.07-.38,.11-.14,.04-.29,.04-.41,.07-.17,.06-.31,.2-.5,.28-.25,.09-.5,.06-.79,.11-.04-.11,.06-.16,.04-.28-.03-.12-.2-.15-.24-.27-.05-.16,.01-.28,.04-.44-.13-.07-.32-.08-.46-.04-.18,.05-.31,.3-.43,.44-.26,.31-.71,.59-.9,.86-.67,.19-.97,.74-1.64,.94-.1,.13-.15,.19-.29,.24-.11,.04-.25-.01-.39,.06-.07,.03-.16,.07-.24,.11-.09,.05-.14,.12-.2,.13-.11,.02-.23-.06-.33-.04-.34,.07-.66,.58-1.05,.62-.12,.01-.24-.05-.35-.04-.3,.03-.6,.28-.85,.46-.22,.16-.37,.34-.57,.37-.12,.01-.23-.06-.35-.06-.15,0-.35,.12-.51,.18-.17,.07-.34,.14-.48,.2-.32,.14-.59,.34-.94,.39-.31,.13-.64,.33-1.01,.42-.18,.05-.38,.07-.57,.15-.17,.07-.36,.19-.51,.2-.14,.01-.29-.09-.42-.07-.13,.01-.24,.14-.42,.24-.43,.25-.94,.37-1.44,.48-.7,.15-1.33,.49-1.99,.63-.18,.04-.38,.21-.55,.31-.17,.1-.36,.19-.53,.28-.2,.09-.34,.2-.51,.29-.19,.11-.37,.13-.61,.2-.5,.14-.93,.56-1.38,.75-.08,.06-.02-.07-.11-.06-.07,.16-.23,.22-.35,.33-.12,.11-.21,.25-.35,.33-.15,.09-.34,.1-.51,.16-.36,.13-.69,.46-.97,.72-.31,.28-.59,.57-.84,.84-.03,.09,0,.15,0,.26-.39,.36-.78,.72-1.07,1.18-.08,.04-.15,.09-.24,.11-.29,.35-.69,.72-1.1,.99-.08,.06-.16,.09-.28,.15-.18,.09-.31,.27-.48,.35-.19,.09-.39,.09-.59,.15-.18,.05-.38,.12-.53,.2-.55,.29-.94,.95-1.65,.85-.22,.08-.37,.3-.57,.39-.18,.07-.37,.06-.61,.13-.09,.02-.18,.09-.28,.11-.09,.02-.17,0-.27,.02-.2,.04-.43,.17-.64,.24-.23,.07-.46,.14-.7,.16-.14,.1-.3,.26-.5,.26-.15,0-.29-.15-.44-.17-.21-.02-.73,.24-.9,.33-.28,.15-.55,.25-.77,.46-.05,.21-.09,.33-.2,.44-.2,.2-.5,.19-.86,.28-.14,.03-.27,.12-.41,.16-.32,.1-.58,.12-.95,.06-.17-.03-.37-.03-.48-.07-.09-.04-.18-.18-.28-.26-.58-.47-1.46-.62-1.73-1.4-.04-.12-.03-.26-.07-.44-.08-.35-.31-.66-.38-1.07-.07-.37-.1-.86-.13-1.31-.05-.61,.22-1.29,.44-1.82,.55-1.34,1.28-2.44,2.13-3.47,.17-.21,.32-.45,.5-.63,.09-.09,.24-.17,.33-.27,.13-.15,.23-.31,.37-.46,.38-.42,.77-.88,1.21-1.27,.59-.51,1.2-.99,1.82-1.49,1.21-.97,2.65-1.76,4.01-2.61,.33-.21,.65-.47,1-.66,.36-.19,.66-.43,.99-.66,.64-.46,1.31-.88,1.98-1.32,.65-.42,1.32-.9,1.99-1.32,.47-.3,.99-.64,1.49-.99,.23-.16,.42-.3,.4-.42-.02-.15-.55-.36-.73-.46-.29-.16-.53-.3-.76-.42-.51-.29-1.08-.56-1.49-.86-.88-.66-1.67-1.52-2.41-2.32-.72-.78-1.47-1.67-2.24-2.48-.58-.61-1.13-1.21-1.64-1.91-.36-.5-.81-1.03-.74-1.93,.03-.35,.16-.63,.31-.85,.08-.11,.3-.2,.33-.37,.02-.1-.03-.23-.04-.31-.07-.62,.21-1.07,.75-1.23,.49-.83,1.9-1.13,3.27-.98,.29,.03,.6,.13,.92,.15,.49,.03,1.02-.22,1.47-.35,.48-.13,.93-.38,1.34-.44,.63-.09,1.04,.13,1.33,.4,.18,.17,.34,.24,.33,.55,.1,.11,.22,.22,.31,.35,.08,.1,.24,.28,.26,.42,.06,.36,.02,.73,.04,1.08,.02,.6,.34,.96,.74,1.23,.23-.07,.44,.02,.7-.02,.25-.04,.54-.24,.79-.35,.29-.13,.58-.21,.79-.35,.1-.07,.18-.18,.28-.26,1.03-.83,2.52-1.27,3.84-1.86,.23-.1,.47-.22,.7-.33,.23-.11,.44-.29,.66-.37,.21-.08,.4-.09,.59-.18,.16-.08,.32-.17,.48-.28,.33-.22,.65-.35,.99-.53,.11-.06,.16-.15,.26-.22,.17-.12,.4-.2,.59-.35,.16-.13,.4-.36,.57-.4,.24-.06,.46-.12,.68-.2,.21-.08,.36-.19,.57-.3,.07-.04,.22-.03,.31-.05,.12-.04,.21-.16,.33-.18,.29-.06,.78,.03,1.1,.07,.35,.05,.68,.12,.99,.2,.57,.15,1.29,.36,1.66,.75,.19,.21,.33,.54,.46,.86,.12,.32,.28,.76,.26,1.07,0,.21-.17,.42,.06,.61,.73,.02,1.22-.49,1.73-.83,.05-.03,.1-.05,.15-.07,.09-.06,.15-.16,.24-.24,.73-.64,1.56-1.28,2.24-1.97,.93-.93,1.89-1.85,2.79-2.83,.3-.33,.56-.68,.92-.94,.09-.16,.19-.3,.31-.42,.03-.03,.05-.04,.09-.09,.07-.09,.17-.21,.3-.26,.22-.38,.54-.62,.84-.88,.91-.79,1.97-1.5,3.33-1.86,.99-.26,2.1-.26,3.02,.04,1.67,.55,2.94,1.7,3.78,3.11,.63,1.05,1.27,2.31,1.14,4.01-.04,.52-.16,.97-.29,1.43-.26,.9-.54,1.73-.97,2.46-.59,1-1.84,1.75-2.89,2.34-.87,.48-1.66,.98-2.89,1.03-.41,.02-.77-.09-1.18-.13-.61-.06-1.41,.02-2.04-.02-.21-.01-.44-.09-.61-.07-.16,.01-.37,.17-.53,.24-.18,.08-.37,.16-.53,.22-.33,.13-.74,.35-1.2,.3-.15-.02-.22-.16-.41-.17-.17,0-.35,.13-.53,.22-.17,.09-.35,.17-.48,.26-.14,.1-.23,.27-.35,.35-.18,.12-.47,.17-.71,.28-.22,.1-.42,.27-.63,.37-.12,.06-.25,.07-.37,.11-.4,.15-.82,.42-1.25,.63-.15,.07-.32,.2-.42,.2-.11,0-.18-.1-.28-.11-.09,0-.37,.06-.5,.09-.15,.04-.28,.12-.42,.16-.22,.17-.4,.38-.61,.57-.01,.45-.41,.63-.72,.88-.25,.2-.48,.46-.7,.59-.28,.16-.67,.27-.83,.55-.07,.13-.08,.27-.15,.37-.14,.21-.32,.43-.53,.55-.21,.12-.47,.17-.66,.33-.12,.09-.18,.22-.27,.35-.28,.02-.5,.34-.81,.35-.13,0-.27-.07-.42-.15-.31-.15-.9-.43-1.33-.4-.14,.01-.28,.08-.42,.09-.35,.04-.69-.08-1.05-.07-.28,0-.61,.12-.92,.13-.1,0-.22-.03-.31-.02-.19,.02-.42,.16-.64,.22-.44,.11-1,.05-1.34,.29-.15,.1-.24,.3-.31,.44-.09,.17-.1,.38-.18,.57-.08,.19-.27,.38-.39,.59-.12,.21-.27,.4-.41,.55-.32,.37-.73,.48-1.19,.72-.14,.07-.26,.23-.42,.26-.15,.03-.37-.02-.59-.06-.19-.03-.4-.04-.61-.07-.18-.03-.34-.11-.51-.13-.2-.03-.4-.05-.61-.07-.82-.1-1.72-.25-2.5-.13-.35,.06-.73,.31-1.1,.5-.98,.49-1.83,1.2-2.63,1.84-1.13,.9-2.18,1.73-3.34,2.59-.57,.42-1.18,.8-1.77,1.21-1.16,.82-2.27,1.6-3.36,2.57-.36,.32-.77,.72-1.01,1.21-.19,.39-.41,.96,.06,1.21,.13,.07,.34,.11,.51,.16,1.35,.42,2.87,.02,4.04-.31,1.1-.31,2.02-.67,2.98-1.1,.41-.18,.76-.43,1.23-.48,.19-.03,.38-.27,.57-.31,.13-.03,.27,.01,.4-.02,.3-.07,.49-.25,.68-.44,.19-.19,.4-.4,.51-.61,.09-.17,.11-.33,.26-.46,.15-.13,.41-.25,.63-.37,.21-.12,.43-.23,.63-.35,.43-.25,.83-.55,1.21-.75,.26-.14,.58-.24,.86-.37,3.66-1.62,7.59-3.12,11.51-4.48,.46-.16,.9-.35,1.38-.46,.15-.04,.32-.05,.48-.09,.18-.04,.35-.17,.54-.24,.26-.1,.59-.17,.88-.26,.31-.09,.65-.11,.9-.22,.26-.11,.47-.45,.73-.61,.31-.19,.8-.31,1.27-.46,.46-.15,.94-.29,1.36-.4,.96-.27,1.88-.47,2.85-.68,.72-.16,1.47-.33,2.26-.46,3.04-.5,6.92-.69,9.98-.07,.76,.15,1.51,.32,2.13,.59,.72,.31,1.41,.89,1.99,1.41,.05,.04,.09,.15,.15,.2,.05,.05,.14,.08,.2,.13,.22,.19,.59,.5,.68,.72,.17,.41,.07,1.03-.04,1.45-.12,.48-.3,.84-.46,1.18-.19,.42-.27,.82-.5,1.14-.1,.15-.24,.31-.39,.44-.14,.13-.29,.28-.42,.39-.1,.07-.21,.09-.3,.15-.24,.15-.34,.45-.75,.53-.24,.36-.74,.51-1.12,.75-.14,.09-.22,.2-.35,.28-.38,.23-.86,.35-1.3,.55-.28,.13-.57,.27-.87,.39-.28,.12-.6,.25-.82,.4-.1,.07-.17,.19-.28,.24-.17,.08-.37,.1-.55,.16-.17,.07-.35,.13-.51,.2-.32,.14-.62,.37-.94,.5-.16,.06-.33,.07-.5,.15-.16,.07-.31,.17-.5,.09-.14-.13-.06-.32-.18-.46-.08-.09-.33-.17-.48-.2-.37-.08-.85-.12-1.18,.06-.24,.14-.33,.35-.49,.48-.31-.31-.92-.13-1.4-.02-.16,.04-.3,.09-.42,.15-.14,.06-.21,.17-.33,.24-.21,.13-.51,.2-.77,.29-.74,.27-1.58,.61-2.34,.83-.05,.06-.01-.03,0-.02-.08-.08-.12,0-.07,.06h0Zm-324.53,3.09c.45-.37,.61-.94,.76-1.47,.47-1.67,1.11-3.31,1.68-4.96,.33-.96,.65-1.92,1.01-2.88,.04-.1,.07-.19,.09-.28,.01-.03,.04-.04,.06-.08,.46-1.04,.86-2.1,1.34-3.09,.98-2.04,1.91-4.01,3.13-5.74,1.19-1.69,2.64-3.27,4.29-4.58,.83-.66,1.59-1.37,2.4-2.04,3.24-2.65,6.74-5.02,10.78-6.96,1.98-.95,4.15-1.79,6.49-2.37,.6-.15,1.18-.31,1.79-.42,.65-.12,1.36-.2,2.06-.23,3.57-.17,6.32,.93,8.07,2.67,.41,.41,.86,.9,1.22,1.47,.36,.57,.7,1.11,.8,1.87,.21,1.58,.05,3.35-.57,4.6-.16,.4-.49,.66-.69,1.03-.39,.72-.64,1.68-.76,2.67-.03,.26-.03,.52-.09,.76-.41,1.51-.92,3.12-1.16,4.85-.07,.51-.06,1.02-.04,1.58,.12,3.24,.3,6.6,.36,9.92,.02,1.1,.05,2.21,.1,3.32,.1,2.24,.07,4.47,.17,6.7,.1,2.22,.12,4.46,.14,6.72,0,2.18,.04,4.47,.04,6.81,0,1.1-.07,2.23-.11,3.32-.05,1.08-.01,2.25-.23,3.19-.05,.22-.35,.5-.56,.71-.21,.2-.44,.4-.63,.55-.46,.37-.99,.64-1.39,.97-.41,.34-.95,.64-1.32,1.05-.27,.3-.55,.62-.84,.93-.09,.1-.17,.24-.27,.32-.25,.23-.82,.27-1.22,.25-.47-.03-.88-.16-1.16-.34-.29-.18-.53-.5-.84-.67-.35-.19-.69-.31-.97-.52-.6-.44-.93-1.08-.97-2.04-.03-.68-.01-1.53,.04-2.21,.02-.22,.08-.45,.08-.63-.02-.47-.41-1.05-.65-1.37-.3-.4-.65-.75-.97-1.05-.18-.16-.35-.38-.53-.48-.22-.11-.5-.14-.82-.19-1.79-.27-3.84,0-5.59,.21-.59,.07-1.18,.2-1.77,.25-.63,.05-1.27,.03-1.94,.08-1.57,.11-3.04,.3-4.45,.46-.06,0-.02,.06-.09,.04,0,0,.08-.05-.02-.04-.16,.01-.41,.08-.63,.11-.59,.08-1.2,.14-1.83,.19-1.19,.09-2.52,.19-3.85,.19-.58,0-1.29,.05-1.96-.02-.57-.05-1.34-.18-1.85-.02-.21,.07-.34,.34-.5,.5-.3,.3-.65,.58-1.05,.74-.2,.08-.41,.11-.67,.23-.9,.5-2.35,.28-3.3,.02-1.52-.41-2.92-.94-4.23-1.6-.43-.21-.87-.43-1.22-.72-.49-.41-.99-.94-1.37-1.55-.14-.22-.31-.51-.32-.73,0-.19,.19-.3,.19-.46,0-.03-.05-.12-.06-.13-.2-.47-.52-.85-.7-1.3-.58-1.39-.92-3.04-1.12-4.83-.27-2.29-.16-4.66,.04-7.12,.34-4.21,.88-8.4,1.45-12.48,.04-.27,.08-.54,.11-.8,.04-.3,.03-.63,.13-.9,.06-.16,.22-.28,.31-.44,.04-.08,.07-.17,.11-.27,.92-1.78,1.34-4,1.45-6.66,.03-.8,.07-1.54-.06-2.23-.03-.17-.08-.29-.17-.4-.04-.04-.04-.07-.06-.13-.13-.5,.22-.9,.51-1.07,.16-.09,.37-.12,.55-.19,.43-.17,.84-.18,1.24,.02,.18,.09,.35,.17,.5,.27,.58,.4,1,1.13,1.2,1.85,.11,.4,.1,.9,.11,1.41,.06,2.03,.04,4.03,.19,5.93,.04,.46,.02,.91,.04,1.37,.09,1.95,.11,3.92,.27,5.84,.07,.92,.08,1.86,.34,2.71h0Zm83.62-28.21c-.3,.9-.17,1.92-.04,2.84,.1,.7,.29,1.26,.24,2.1,0,.11-.02,.23-.04,.35-.02,.1-.07,.2-.08,.31-.04,.42,.04,.99,.06,1.47,.05,.95,.22,1.86,.14,2.84-.04,.5-.02,1,.12,1.37,.1,.24,.31,.45,.35,.69,.05,.38,.05,.73,.12,1.08,.16,.81,.37,1.59,.72,2.27,.07,.13,.15,.25,.2,.39,.33,.92,.05,1.97-.22,2.76-.28,.81-.64,1.44-1.11,2.1-.73,1.14-1.77,1.97-2.84,2.78-.15,.11-.32,.22-.43,.37-.3-.1-.56,.15-.82,.31-.54,.33-1.16,.68-1.59,1.06-.16,3.43-.54,7.42-.16,10.98,.02,.21-.02,.46,.12,.63,.43-.17,.72-.56,1.04-.86,1.62-1.49,3.09-3.16,4.56-4.84,.86-.99,1.8-1.99,2.53-3.11,.25-.38,.38-.84,.55-1.33,.47-1.35,1.04-2.76,1.86-3.78,.28-.35,.63-.6,.96-.92,.48-.47,1.07-.81,1.82-1,.24-.06,.51-.04,.8-.1,.36-.08,.72-.39,1.02-.63,.9-.72,1.71-1.63,2.53-2.39,.87-.8,1.68-1.55,2.58-2.37,.28-.26,.67-.53,.84-.8,.18-.3,.29-.69,.39-1.08,.57-2.39,.93-4.91,1.33-7.46,.07-.43,.07-.91,.18-1.27,.07-.2,.22-.37,.29-.57,.05-.16,.06-.35,.1-.53,.28-1.14,.41-2.51,.67-3.7,.3-1.37,.84-2.42,1.64-3.35,.17-.5,.16-.93,.37-1.33,.1-.2,.31-.3,.41-.49,.11-.2,.14-.43,.22-.65,.14-.03,.14-.15,.25-.16,.21-.04,.21,.12,.41,.1,.19-.02,.16-.18,.31-.23,.07-.02,.18,0,.29,0,.26-.02,.57-.1,.8-.18,.14-.05,.26-.19,.33-.2,.23-.05,.53,.03,.78,.06,.3,.04,.55,.06,.74,.18,.33,.21,.85,.98,.94,1.39,.02,.09,0,.21,.02,.28,.08,.42,.23,.8,.25,1.23,.02,.44-.02,.88-.02,1.33-.01,.79-.23,1.48-.51,2.06-.02,.05-.1,.14-.12,.2-.11,.28-.12,.63-.18,.94-.15,.77-.32,1.51-.41,2.35-.02,.16,.02,.32,0,.47-.03,.15-.17,.32-.23,.51-.06,.18-.12,.37-.16,.57-.09,.4-.11,.88-.29,1.17-.07,.11-.2,.16-.25,.27-.08,.17-.04,.35-.08,.49,0,.1,.16,.03,.16,.12,.06,.45,.74-.08,.96-.25,.27-.21,.57-.31,.88-.41,.3-.1,.58-.29,.88-.41,.3-.13,.65-.29,.94-.35,.44-.08,.95-.06,1.41-.14,.46-.08,.87-.2,1.33-.18,.47,.02,.92,.04,1.41,.1,.44,.05,.95,.08,1.31,.22,.38,.16,.77,.66,1.02,1,.16,.21,.28,.41,.39,.63,.12,.23,.19,.47,.31,.69,.05,.09,.13,.16,.16,.24,.25,.63,.15,1.78,.12,2.6-.01,.44-.03,.88-.06,1.31-.03,.4-.15,.83-.12,1.21,.02,.33,.11,.64,.1,1.04,0,.99-.23,2.06-.55,2.82-.05,.13-.1,.22-.2,.31,.07,.52-.15,.88-.35,1.27-.1,.19-.26,.34-.35,.53-.05,.1-.07,.27-.12,.41-.04,.11-.15,.25-.16,.35-.01,.1,.07,.21,.06,.31-.01,.22-.25,.64-.37,.84-.27,.46-.92,.77-.72,1.41-1.2,2.22-2.99,3.86-5.03,5.25-.56-.09-.91,.25-1.29,.41-.02,0-.08,.02-.08,.02-.48,.09-1.01-.01-1.45-.06-.45-.05-.89-.09-1.27-.22-.13,.49-.21,1.03-.25,1.59-.04,.58,.02,1.17-.02,1.72-.08,1.14-.4,2.06-.9,2.76-.24,.22-.57,.35-1,.37-.07,.23-.27,.49-.39,.8-.13,.35-.17,.88-.63,.8-.12-.02-.13-.09-.22-.18-.08-.08-.18-.09-.2-.18-.07-.26,.15-.51,.02-.78-.34-.2-.48,.2-.71,.12-.12-.04-.18-.5-.27-.65-.28-.5-.88-.75-1.7-.65-.12,.01-.28,.08-.41,.06-.13-.02-.47-.24-.63-.31-.21-.09-.5-.15-.65-.27-.11-.08-.14-.27-.23-.39-.05-.08-.14-.12-.2-.2-.26-.37-.47-.9-.69-1.35-.09-.18-.22-.37-.26-.53-.06-.2-.06-.4-.12-.59-.06-.17-.14-.31-.22-.49-.16-.35-.22-.7-.45-.98-.3-.36-.74-.68-1.21-.94-.31-.18-.57-.37-1.06-.16-.18,.07-.37,.24-.47,.39-.12,.18-.13,.38-.22,.61-.08,.21-.21,.38-.26,.63-.15,.73-.08,1.61-.06,2.53,.02,1.31,.13,2.67,.63,3.33,.07,.09,.15,.12,.18,.24,.05,.19-.04,.26-.02,.41,.05,.34,.41,.74,.63,1,.28,.32,.53,.58,.82,.82,.62,.51,1.33,.85,2,1.27,1.32,.82,3.03,1.39,4.7,1.84,1.71,.46,3.54,.82,5.46,1.08,.46,.06,.9,.2,1.37,.26,.48,.07,.98,.1,1.49,.14,.79,.06,1.58,.06,2.31,.02,.24-.01,.46-.1,.7-.12,.46-.05,.83-.06,1.19-.14,2.16-.52,3.69-2.19,4.54-4.03,.09-.2,.14-.37,.27-.45,.24-.14,1.09-.16,1.47-.18,1.6-.09,3.29,.06,4.19,.69,.21,.15,.32,.3,.49,.41,.19,.12,.4,.13,.67,.22,.35,.12,.75,.41,1.1,.59,.95,.48,1.76,1.04,2.7,1.55,.19,.1,.42,.18,.55,.29,.25,.21,.49,.83,.59,1.21,.08,.27,.1,.53,.1,.8,0,.27-.13,.59-.12,.84,0,.24,.08,.41-.04,.63-.09,.17-.19,.19-.33,.29-.11,.08-.14,.19-.26,.33,.06,.16,.08,.21,.06,.35-.03,.18-.18,.29-.2,.45-.01,.11,.04,.2,.04,.31,0,.27-.11,.54-.1,.84-.09,.15-.34,.25-.57,.37-.22,.11-.46,.27-.67,.25-.15-.02-.06-.15-.22-.19-.21,.2-.04,.78-.12,1.1-.45,.25-.94,.37-1.41,.53-2.31,.81-4.85,1.66-7.68,1.98-.9,.1-1.86,.12-2.72-.02-.31-.05-.61-.19-.86-.12-.23,.06-.17,.19-.35,.28-.21,.1-.62,.11-.9,.14-.93,.11-2.07,.07-2.86-.12-.83-.2-1.65-.45-2.59-.51-.18-.01-.34,0-.49,.02-.13,.02-.25,.11-.39,.12-.21,.02-.52-.08-.76-.12-.58-.11-1.22-.23-1.65-.51-.08-.06-.16-.15-.25-.19-.2-.08-.49-.1-.76-.16-.67-.15-1.63-.43-2.35-.41-.11,0-.22,.06-.33,.06-.15,0-.37-.09-.55-.12-.55-.1-1.08-.23-1.65-.33-.61-.1-1.2-.02-1.74-.2-.18-.06-.29-.18-.47-.25-.48-.18-.99-.19-1.41-.39-.19-.69-.64-1.07-1.39-1.12-.23-.02-.47,.07-.76,.06-.24-.01-.55-.2-.8-.33-1.67-.83-2.95-2.32-3.99-3.74-1.25-1.72-2.36-3.57-3.31-5.54-.45-.63-1.03,.13-1.37,.47-.29,.29-.58,.53-.82,.8-.52,.56-1.12,1.08-1.49,1.74-.06,.11-.08,.24-.14,.35-.15,.27-.37,.5-.53,.76-.16,.26-.35,.55-.45,.84-.04,.12-.02,.29-.08,.41-.08,.15-.3,.22-.45,.37-.34,.34-.61,.75-.86,1.14-.27,.43-.48,.9-.76,1.29-.16,.22-.34,.36-.47,.61-.11,.22-.25,.49-.29,.8-.04,.31-.03,.59-.08,.86-.05,.25-.15,.49-.18,.76-.01,.13,.03,.28,.02,.47-.01,.44-.15,.77-.33,1.1-.15,.28-.25,.47-.45,.72-.31,.38-.61,.36-1.11,.59-.22,.11-.5,.34-.61,.35-.23,0-.43-.19-.67-.21-.19-.01-.47,.1-.7,.14-.57,.1-1.27,.21-1.88,.08-.1-.02-.2-.09-.31-.1-.22-.03-.39,.02-.59-.04-.19-.06-.36-.19-.55-.29-.18-.09-.36-.22-.49-.33-.3-.24-.57-.57-.71-.94-.09-.08-.18-.16-.31-.2,.05-.23-.17-.39-.29-.53-.26-.31-.55-.53-.84-.84-.14-.15-.33-.22-.49-.35-.41-.35-.84-.82-1.23-1.31-.12-.16-.31-.34-.35-.49-.08-.38,.25-.51,.27-.76,0-.16-.03-.32-.06-.45-.04-.14-.11-.24-.14-.35-.07-.28,0-.67-.02-1.06-.01-.41-.04-.83-.04-1.14,0-.76-.08-1.59,.04-2.33,.09-.54,.44-1.04,.65-1.61,.61-1.66,1.06-3.51,1.49-5.29-.13-.17-.3-.22-.43-.39-.52-.67-.35-2.14-.27-3-.52-.11-.64-.62-.76-1.14-.27-.14-.56-.17-.88-.19-.33,0-.66,.08-.98,.08-.33,0-.73-.11-1.1-.18-.76-.14-1.4-.26-2.08-.49-.32-.11-.69-.23-.9-.39-.15-.11-.26-.35-.43-.51-.09-.08-.19-.16-.29-.23-.18-.11-.47-.18-.59-.31-.15-.15-.28-.51-.39-.74-.13-.26-.33-.51-.35-.78-.01-.15,.06-.34,.1-.51,.04-.18,.04-.36,.1-.49,.17-.33,.68-.29,1.1-.51,.33-.18,.46-.67,.94-.49,.41-.26,.92-.29,1.43-.45,.23-.07,.4-.3,.61-.41,.39-.21,.79-.18,1.25-.29,.42-.1,.84-.37,1.23-.59,.87-.51,1.59-1.1,2.33-1.74,.16-.14,.33-.25,.49-.41,.08-.08,.13-.19,.2-.24,.12-.09,.27-.09,.35-.23,.18-.31,.13-.78,.29-1.06,.03-.57,.15-1.14,.24-1.72,.29-1.76,.7-3.53,1.1-5.25,.47-2.02,.95-4,1.59-5.85,.08-.24,.14-.52,.33-.71,.04-.48,.35-.71,.49-1.04,.1-.23,.14-.52,.23-.78,.16-.5,.31-.98,.51-1.47,.1-.24,.13-.51,.22-.76,.17-.48,.26-1.02,.41-1.53,.43-1.53,.98-2.95,1.82-4.13,.54-.77,1.26-1.61,2.41-1.61,1.54,0,1.94,1.36,2.23,2.62,.14,.59,.21,1.16,.29,1.78,.02,.21,.01,.47,.06,.63,.04,.13,.36,.58,.51,.65,.13,.07,.32,.05,.47,.1,.18,.06,.4,.22,.53,.37,.15,.17,.45,.79-.1,.76h0Zm166.96,12.92c.14-.06,.24-.17,.36-.26,.55-.43,1.2-.85,1.98-1.09,.32-.1,.65-.11,1.03-.2,.67-.16,1.52-.19,2.25-.16,.72,.03,1.4,.25,1.98,.45,1.27,.45,2.57,.75,3.77,1.03,.31,.07,.61,.21,.93,.3,.64,.17,1.25,.37,1.87,.57,.35,.11,.76,.19,1.01,.37,.2,.14,.43,.35,.65,.57,.22,.21,.46,.46,.57,.65,.05,.08,.1,.19,.12,.24,.06,.19,.16,.84,.1,1.03-.16,.45-1.12,.28-1.32,.67-.11,.02-.22,.03-.31,.06,.03,.36-.21,.49-.48,.61-.07,.03-.1,.09-.16,.1-.07,.02-.14-.03-.22,0-.25,.08-.3,.35-.47,.47-.02,.21-.08,.37-.14,.53-.58-.05-.56,.31-.75,.71-.09,.18-.18,.43-.32,.51-.2,.13-.81,.17-1.09,.22-.35,.06-.78,.07-1.12,.16-.17,.04-.32,.14-.49,.2-.12,.04-.29,.05-.39,.1-.11,.05-.31,.07-.51,.06-.1,.07-.05,.11-.18,.16-.13,.06-.31,.02-.45,.04-.63,.09-1.26,.43-1.74,.73-.19,.12-.36,.31-.57,.41-.18,.09-.42,.14-.63,.24-.18,.09-.37,.26-.53,.32-.15,.05-.31,.04-.46,.08-.89,.27-1.65,.76-2.53,1.11-.73,.28-1.53,.56-2.31,.83-.26,.09-.54,.22-.77,.26-.48,.07-.78-.03-1.05,.24-.31,.31-.44,1.16-.57,1.68-.39,1.53-.77,2.87-1.2,4.42-.07,.26-.27,.68-.24,.89,.03,.2,.43,.28,.65,.36,.52,.17,1.02,.32,1.56,.41,.27,.05,.53,.06,.87,.08,1.24,.09,2.2,.43,3.22,.75,1.7,.53,3.41,1.22,5.02,1.92,.24,.11,.57,.2,.75,.34,.16,.12,.3,.29,.45,.41,.91,.76,1.88,1.62,2.93,2.25,.18,.11,.38,.15,.59,.26,.22,.11,.48,.32,.71,.49,.68,.48,1.43,1.02,2.02,1.58,.82,.78,1.58,1.68,2.21,2.59,.63,.92,1.3,1.93,1.5,3.3,.32,2.17-.99,3.93-2.65,4.44-.62,.19-1.36,.17-2.15,.12-1.49-.11-2.66-.56-3.76-1.05-.53-.24-1.09-.51-1.62-.79-.53-.28-1.08-.55-1.54-.85-.97-.62-1.52-1.67-2.79-2.01-.41-.46-.88-.86-1.18-1.42-.09,0-.12-.08-.16-.14-1.28-1.61-2.67-3.18-3.89-4.9-.07-.11-.18-.21-.26-.32-.55-.75-1.29-1.37-1.94-2.04-.54-.55-1.08-1.17-1.68-1.74-.15-.14-.42-.57-.65-.47-.06,.03-.12,.25-.18,.4-.4,.92-.93,1.76-1.42,2.55-1.72,2.81-3.61,5.51-5.47,8.16-.26,.72-.81,1.25-1.33,1.72-.26,.24-.53,.49-.81,.71-.28,.23-.52,.5-.83,.69-1.03,1.19-2.47,2.04-3.91,2.84-.76,.42-1.66,.85-2.49,1.27-.16,.08-.35,.16-.52,.24-.35,.15-.72,.35-1.05,.43-.6,.16-1.28,.07-1.98,.1-.31,.01-.64,.06-.95,.1-.32,.04-.61,.13-.89,.16-.48,.06-.99-.1-1.44-.22-.21-.06-.46-.09-.68-.16-.57-.17-1.05-.37-1.34-.77-.37,0-.78,.12-1.19,.18-.41,.05-.86,.16-1.21,.12-.35-.04-.58-.27-.85-.41,2.29-1.27,4.55-2.43,6.58-3.93,2.24-1.65,4.23-3.65,6.05-5.77,.2-.24,.41-.44,.63-.67,.43-.45,.8-.95,1.17-1.46,1.78-2.52,3.52-5.25,4.82-8.32,.12-.3,.26-.62,.37-.93,.17-.46,.35-.81,.48-1.28,.09-.35,.2-.74,.31-1.09-.19,0-.39,.05-.57,.1-.18,.04-.33,.16-.49,.14-.11,.14-.3,.16-.45,.22-1.11,.39-2.22,.88-3.42,1.2-1.19,.32-2.49,.56-3.97,.65-.17,.01-.4,.07-.51-.06-.15,.11-.36,.08-.55,.08-.44,0-.84-.05-1.21-.08-.94-.09-1.92-.23-2.69-.55-.84-.2-1.9-.77-2.72-1.19-.3-.15-.64-.27-.85-.45-.44-.38-.93-1.2-.63-1.94-.12-.23-.09-.43-.04-.71,.05-.27,.07-.68,.2-.89,.08-.13,.21-.16,.28-.32,.06-.15,.08-.28,.08-.49,.95-.53,2.1-.82,3.48-.91,.46-.03,.92,.03,1.4,.02,.28,0,.78-.19,1.15-.32,3.9-1.33,7.18-3.07,10.57-4.88,.84-.45,1.82-.96,2.69-1.52,.29-.18,.75-.39,.89-.57,.28-.36,.26-1.06,.39-1.6,.06-.22,.17-.45,.26-.67,.52-1.28,.83-2.77,1.15-4.27,.05-.25,.16-.55,.16-.75,0-.16-.08-.36-.06-.49,.02-.17,.16-.32,.22-.49,.17-.52,.19-1.18,.28-1.82,.17-1.21,.37-2.44,.49-3.69,.06-.66,.15-1.36,.08-1.98,0-.07-.03-.19-.06-.26-.03-.06-.11-.09-.12-.18,0-.08,.05-.16,.06-.24-.27-.78,.23-1.42,.28-2.15,.09-.19,.19-.35,.37-.45,.21-.12,.43-.1,.65-.16,.32-.09,.55-.32,.63-.67,.45-.39,.87-.79,1.62-.85,.39-.03,.8,0,1.18,.08,.37,.07,.74,.11,1.05,.22,.29,.1,.55,.27,.83,.44,.26,.15,.6,.32,.77,.49,.08,.08,.1,.2,.18,.28,.19,.18,.43,.32,.63,.49,.21,.18,.39,.36,.58,.53,.3,.58,.84,1.03,.77,1.82-.03,.26-.14,.51-.1,.79,.02,.16,.18,.28,.2,.45,.02,.12-.08,.32-.12,.49-.1,.55-.08,1.09-.12,1.7-.06,1.01-.26,2.11-.38,3.22-.06,.55-.11,1.1-.16,1.64-.05,.59-.05,1.15-.08,1.68-.02,.41-.3,.99,.04,1.32h0Zm-42,64.85c-.02,.32-.09,.52-.18,.61-.09,.11-.22,.17-.35,.17s-.39-.06-.79-.19c-.81-.26-1.4-.41-1.84-.48-.44-.07-.92-.11-1.45-.11-1.45,0-2.69,.26-3.75,.8-1.27,.63-2.28,1.54-3,2.71-.61,1-.92,2.03-.92,3.12,0,1.49,.55,2.81,1.64,3.96,1.45,1.52,3.57,2.29,6.38,2.29,.96,0,1.86-.09,2.65-.26,.81-.19,1.62-.47,2.43-.84v-3.77c0-.67,.07-1.1,.22-1.34,.2-.32,.59-.46,1.14-.46h.26v-.33h-5.61v.33c.59,0,.99,.06,1.23,.15,.24,.09,.39,.24,.5,.45,.11,.19,.17,.59,.17,1.21v3.57c-.46,.22-.94,.39-1.45,.52-.5,.11-1.01,.17-1.56,.17-.9,0-1.8-.22-2.65-.67-.88-.46-1.58-1.17-2.1-2.14-.55-.97-.81-2.05-.81-3.22,0-1.45,.39-2.7,1.2-3.74,.96-1.25,2.37-1.86,4.21-1.86,1.36,0,2.45,.35,3.31,1.06,.61,.48,1.1,1.21,1.47,2.18h.39l-.37-3.89h-.39Zm-7.44,31.97h141.73v.48h-141.73v-.48h0Zm-270.58,0h141.73v.48H154.62v-.48h0Zm208.73,5.32l2.17-7.86c.09-.33,.19-.74,.31-1.21,.03,.15,.14,.56,.33,1.22l2.17,7.86h1.33l2.82-10.32h-1.37l-1.62,6.64c-.21,.85-.38,1.59-.51,2.24-.17-1.14-.44-2.36-.81-3.65l-1.48-5.23h-1.65l-1.96,6.98c-.05,.17-.2,.8-.47,1.91-.12-.7-.27-1.4-.44-2.11l-1.57-6.77h-1.4l2.74,10.32h1.41Zm17.17-4.36c0,1.29-.21,2.17-.64,2.63-.43,.45-1.14,.68-2.14,.68-.59,0-1.08-.11-1.48-.34-.4-.23-.69-.56-.86-.98-.16-.42-.25-1.08-.25-1.98v-5.96h-1.37v5.96c0,1.09,.13,1.96,.4,2.59,.26,.63,.7,1.11,1.32,1.44,.61,.33,1.4,.5,2.37,.5s1.8-.19,2.41-.58c.61-.38,1.04-.87,1.27-1.48,.23-.61,.35-1.44,.35-2.47v-5.96h-1.37v5.96h0Zm5.07,4.36v-4.86h5.35v4.86h1.37v-10.32h-1.37v4.24h-5.35v-4.24h-1.37v10.32h1.37Zm9.31,0l1.13-3.12h4.33l1.19,3.12h1.56l-4.21-10.32h-1.48l-3.95,10.32h1.45Zm2.66-7.26c.23-.65,.42-1.31,.56-1.97,.16,.56,.41,1.27,.73,2.14l1.08,2.87h-3.52l1.15-3.04h0Zm7.93,7.26v-8.1l5.42,8.1h1.4v-10.32h-1.31v8.11l-5.42-8.11h-1.4v10.32h1.31Zm-55.96-5.01c.04-.66-.23-1.15-.79-1.46-.56-.32-1.13-.33-1.69-.03-.57,.3-.85,.79-.85,1.46s.28,1.15,.85,1.41c.56,.26,1.11,.26,1.63,0,.52-.26,.81-.73,.84-1.38h0Zm-29.43-3.24c.26-.27,.56-.53,.9-.79-.41-.41-.96-.92-1.63-1.52-.26,.34-.53,.6-.79,.79,.79,.67,1.29,1.18,1.52,1.52h0Zm-9.74-.96c.83-.04,1.66-.06,2.5-.06s1.68,.02,2.5,.06v-1.07c-.79,.04-1.6,.06-2.45,.06s-1.7-.02-2.56-.06v1.07h0Zm-1.13,2.59v-1.02c.79,.04,1.56,.06,2.31,.06h5.07c-.04-.67-.07-1.28-.09-1.83-.02-.55-.04-1.25-.09-2.11h1.41c-.11,.6-.17,1.24-.17,1.91s.02,1.35,.06,2.03h1.69c.68,0,1.39-.02,2.14-.06v1.02c-.75-.04-1.46-.05-2.14-.05h-1.69c.11,1.5,.35,2.71,.71,3.63,.36,.92,.75,1.66,1.18,2.23,.43,.56,.75,.72,.95,.48,.21-.24,.33-.7,.37-1.38,.38,.37,.75,.66,1.13,.84-.3,1.16-.61,1.87-.93,2.11-.32,.24-.75,.15-1.3-.29-.54-.43-.99-.92-1.35-1.46-.36-.55-.65-1.09-.87-1.63-.22-.55-.41-1.16-.56-1.86-.15-.7-.26-1.58-.34-2.67h-2.65v2.14c.79,0,1.48-.02,2.08-.06v1.07c-.67-.04-1.37-.06-2.08-.06v2.53c1.13-.19,1.97-.32,2.53-.4-.04,.27-.06,.62-.06,1.07-1.24,.15-2.55,.36-3.94,.62-1.39,.27-2.46,.51-3.21,.74-.03-.41-.13-.88-.28-1.41,.42,0,.87-.04,1.35-.12v-2.98c0-.6-.02-1.18-.06-1.75h1.18c-.04,.57-.05,1.13-.05,1.69v2.93c.52-.08,1.01-.15,1.46-.22v-5.8h-1.46c-.75,0-1.52,.01-2.31,.05h0Zm17.46-2.2c.23-.34,.49-.67,.79-1.01-.71-.64-1.41-1.21-2.08-1.69-.19,.3-.45,.62-.79,.96,.67,.45,1.37,1.03,2.08,1.74h0Zm-.68,3.04c.19-.38,.41-.75,.68-1.13-.83-.56-1.61-1.03-2.36-1.41-.19,.38-.4,.73-.62,1.07,.87,.45,1.63,.94,2.31,1.46h0Zm-1.24,3.55c-.26,.9-.6,1.69-1.02,2.36,.41,.15,.83,.42,1.24,.79,.38-1.5,.84-3.04,1.41-4.62-.3-.11-.66-.35-1.07-.73-.11,.56-.3,1.29-.56,2.2h0Zm4.98-3.3c-.32-1.03-.57-2.28-.76-3.74h1.13c.15,1.31,.36,2.41,.65,3.29,.28,.88,.61,1.67,.99,2.34,.37-.56,.75-1.32,1.13-2.25,.37-.94,.71-2.06,1.01-3.38h-3.66c-.79,0-1.52,.02-2.2,.06v-1.07c.83,.04,1.52,.06,2.08,.06h5.18c-.37,1.57-.77,2.98-1.18,4.2-.41,1.22-.99,2.33-1.74,3.35,.64,.68,1.27,1.2,1.89,1.58,.62,.37,1.38,.68,2.28,.9-.45,.37-.77,.79-.96,1.24-.83-.42-1.55-.84-2.17-1.27-.62-.44-1.21-.97-1.77-1.61-.49,.53-1.13,1.06-1.91,1.61-.79,.54-1.58,1.02-2.36,1.44-.19-.34-.51-.7-.96-1.07,.79-.26,1.6-.64,2.42-1.15,.83-.5,1.52-1.07,2.08-1.71-.45-.83-.84-1.76-1.16-2.79h0Zm-108.97-21.52c.29,.58,.44,1,.44,1.26,0,.2-.11,.37-.31,.52-.2,.13-.59,.22-1.16,.24v.33h5.72v-.33c-.59-.04-1.05-.17-1.38-.41-.35-.24-.7-.78-1.12-1.6l-5.04-10.26h-.37l-5.11,10.15c-.44,.89-.85,1.47-1.2,1.77-.18,.15-.57,.26-1.18,.35v.33h4.58v-.33c-.7-.04-1.16-.13-1.36-.28-.22-.15-.33-.3-.33-.5,0-.22,.13-.58,.37-1.06l.96-1.93h5.63l.85,1.75h0Zm-6.14-2.42h0l2.52-4.98,2.43,4.98h-4.95Zm-21.74-7.21c.42,0,.72,.02,.94,.07,.42,.13,.72,.24,.94,.37,.22,.15,.55,.41,.96,.84v8.57c0,.69-.09,1.13-.24,1.34-.26,.32-.7,.46-1.34,.46h-.5v.33h5.1v-.33h-.53c-.57,0-.99-.13-1.27-.39-.2-.19-.28-.65-.28-1.41v-7.59l9.55,9.93h.39v-10.39c0-.69,.09-1.13,.24-1.34,.26-.32,.7-.47,1.32-.47h.53v-.33h-5.11v.33h.5c.59,0,1.01,.13,1.27,.39,.2,.19,.31,.65,.31,1.41v7.12l-8.9-9.26h-3.9v.33h0Zm-1.87,11.66c-.33,0-.66-.07-.96-.22-.24-.11-.37-.24-.46-.39-.09-.19-.13-.61-.13-1.23v-7.98c0-.74,.09-1.21,.26-1.39,.28-.3,.7-.45,1.29-.45h.53v-.33h-6.22v.33h.53c.33,0,.66,.07,.99,.22,.22,.11,.35,.24,.44,.39,.09,.19,.13,.61,.13,1.23v7.98c0,.74-.09,1.21-.26,1.39-.26,.3-.7,.45-1.29,.45h-.53v.33h6.22v-.33h-.53Zm-17.91-9.82c0-.59,.04-1,.13-1.19,.09-.2,.24-.35,.46-.45,.31-.13,.64-.2,.96-.2h.53v-.33h-6.22v.33h.53c.33,0,.66,.07,.99,.22,.22,.09,.35,.22,.44,.39,.09,.19,.13,.59,.13,1.23v7.98c0,.74-.09,1.21-.26,1.39-.26,.3-.7,.45-1.29,.45h-.53v.33h6.22v-.33h-.53c-.33,0-.66-.07-.96-.22-.24-.11-.37-.24-.46-.39-.09-.19-.13-.61-.13-1.23v-3.76h6.73v3.76c0,.74-.09,1.21-.26,1.39-.28,.3-.7,.45-1.29,.45h-.53v.33h6.22v-.33h-.5c-.35,0-.68-.07-1.01-.22-.22-.11-.35-.24-.44-.39-.09-.19-.13-.61-.13-1.23v-7.98c0-.59,.04-1,.13-1.19,.07-.2,.22-.35,.46-.45,.31-.13,.64-.2,.99-.2h.5v-.33h-6.22v.33h.53c.33,0,.66,.07,.96,.22,.24,.09,.37,.22,.46,.39,.09,.19,.13,.59,.13,1.23v3.55h-6.73v-3.55h0Zm-6.54-2.45c-.09,.3-.22,.52-.39,.69-.13,.11-.31,.17-.5,.17-.13,0-.33-.07-.64-.2-1.01-.43-2.06-.65-3.09-.65-1.36,0-2.59,.28-3.72,.86-1.14,.56-2.02,1.36-2.67,2.38-.64,1.04-.96,2.17-.96,3.4,0,1.52,.48,2.84,1.47,3.98,1.31,1.51,3.18,2.27,5.59,2.27,1.31,0,2.48-.26,3.44-.76,.96-.5,1.82-1.3,2.54-2.4l-.33-.19c-.85,1.02-1.64,1.69-2.37,2.03-.72,.35-1.56,.52-2.48,.52-1.1,0-2.06-.22-2.89-.65-.83-.45-1.47-1.06-1.88-1.88-.42-.82-.64-1.78-.64-2.9,0-1.36,.22-2.49,.66-3.4,.46-.91,1.07-1.56,1.84-1.99,.77-.41,1.64-.61,2.61-.61,1.14,0,2.13,.28,2.94,.82,.81,.56,1.45,1.47,1.88,2.71h.33l-.33-4.18h-.39Zm199.04,.61c.37,0,.66,.04,.85,.11,.2,.07,.35,.19,.44,.32,.11,.13,.18,.28,.18,.45,0,.28-.22,.71-.66,1.28l-2.85,3.79-3.02-3.96c-.44-.58-.66-.97-.66-1.19,0-.26,.15-.46,.44-.59,.28-.13,.59-.2,.92-.2h.33v-.33h-6.2v.33c.26,0,.48,.04,.61,.09,.53,.2,.88,.39,1.05,.54,.18,.15,.48,.52,.96,1.13l3.97,5.21v2.88c0,.69-.09,1.13-.24,1.34-.26,.32-.7,.46-1.31,.46h-.53v.33h6.22v-.33h-.48c-.59,0-1.03-.13-1.29-.39-.2-.19-.31-.65-.31-1.41v-3.14s3.48-4.63,3.48-4.63c.44-.58,.79-1,1.1-1.26,.28-.26,.61-.46,.96-.61,.35-.13,.64-.2,.81-.2h.29v-.33h-5.06v.33h0Zm-23.44-.33l-.15,2.9h.42c.04-.56,.2-1,.46-1.34,.26-.32,.59-.54,.96-.65,.28-.09,.74-.13,1.42-.13h1.75v9.41c0,.69-.09,1.13-.24,1.34-.26,.32-.7,.46-1.31,.46h-.53v.33h6.18v-.33h-.5c-.57,0-.99-.13-1.25-.39-.2-.19-.29-.65-.29-1.41v-9.41h2.04c.61,0,1.1,.07,1.47,.24,.35,.17,.66,.43,.88,.78,.13,.22,.24,.58,.31,1.1h.42l-.15-2.9h-11.88Zm-1.85,11.99c-.33,0-.66-.07-.96-.22-.24-.11-.37-.24-.46-.39-.09-.19-.13-.61-.13-1.23v-7.98c0-.74,.09-1.21,.26-1.39,.29-.3,.7-.45,1.29-.45h.53v-.33h-6.22v.33h.53c.33,0,.66,.07,.99,.22,.22,.11,.35,.24,.44,.39,.09,.19,.13,.61,.13,1.23v7.98c0,.74-.09,1.21-.26,1.39-.26,.3-.7,.45-1.29,.45h-.53v.33h6.22v-.33h-.53Zm-8.23-12.27c-.07,.28-.18,.46-.28,.56-.11,.09-.26,.15-.46,.15-.15,0-.44-.07-.83-.22-.88-.32-1.69-.48-2.48-.48-1.23,0-2.26,.32-3.05,.97-.81,.63-1.21,1.39-1.21,2.27,0,.52,.13,.98,.42,1.41,.26,.41,.66,.8,1.18,1.15,.53,.35,1.42,.82,2.67,1.41,1.25,.59,1.99,.97,2.28,1.15,.42,.26,.72,.56,.92,.87,.2,.3,.28,.61,.28,.91,0,.56-.26,1.02-.77,1.43-.53,.39-1.23,.6-2.13,.6-.77,0-1.49-.15-2.13-.43-.66-.3-1.12-.67-1.45-1.1-.31-.45-.57-1.1-.74-1.99h-.39v4.22h.39c.04-.28,.13-.48,.24-.58,.09-.09,.24-.13,.42-.13s.61,.09,1.31,.3c.7,.19,1.16,.3,1.38,.33,.37,.06,.77,.07,1.18,.07,1.36,0,2.45-.33,3.31-1,.85-.69,1.27-1.49,1.27-2.42,0-.5-.13-.97-.39-1.41-.28-.45-.66-.84-1.16-1.17-.48-.33-1.42-.8-2.78-1.41-1.66-.76-2.72-1.38-3.16-1.82-.31-.32-.46-.65-.46-1.02,0-.5,.24-.93,.72-1.32,.48-.39,1.12-.58,1.84-.58,.66,0,1.31,.15,1.93,.43s1.07,.67,1.4,1.15c.35,.48,.57,1.13,.7,1.95h.39v-4.26h-.39Zm-9.48,12.27c-.79-.07-1.42-.24-1.93-.5-.48-.28-1.07-.82-1.75-1.64l-3-3.53c1.21-.22,2.13-.61,2.7-1.17,.59-.56,.88-1.23,.88-1.97s-.26-1.32-.77-1.84c-.5-.5-1.14-.86-1.86-1.06-.72-.19-1.86-.28-3.42-.28h-5.28v.33h.55c.55,0,.96,.13,1.23,.39,.2,.2,.31,.67,.31,1.45v7.98c0,.71-.07,1.15-.22,1.34-.26,.33-.7,.5-1.31,.5h-.55v.33h6.22v-.33h-.57c-.55,0-.94-.13-1.21-.39-.2-.2-.31-.67-.31-1.45v-3.59c.11,0,.22,.02,.33,.02h.28c.22,0,.5,0,.88-.02l4.93,5.76h3.88v-.33h0Zm-10.3-11.14h0c.7-.11,1.25-.17,1.67-.17,.92,0,1.67,.24,2.24,.73,.55,.48,.83,1.1,.83,1.88s-.35,1.43-1.05,1.93c-.68,.52-1.71,.76-3.09,.76h-.59v-5.13h0Zm-9.63-.19c.7,0,1.2,.04,1.49,.13,.37,.13,.64,.32,.81,.56,.2,.26,.35,.71,.5,1.36h.42l-.15-2.71h-11.2v.33h.53c.59,0,1.03,.11,1.27,.35,.2,.19,.29,.67,.29,1.45v8.01c0,.6-.04,1-.13,1.19-.07,.2-.22,.35-.46,.45-.31,.13-.64,.2-.96,.2h-.53v.33h11.2l1.25-3.09h-.44c-.46,.76-.92,1.32-1.36,1.69-.35,.3-.7,.48-1.07,.58-.37,.09-.96,.15-1.77,.15h-2.45c-.42,0-.68-.04-.81-.11-.15-.06-.26-.15-.31-.28-.07-.11-.09-.45-.09-.98v-4.07h3.2c.61,0,1.05,.06,1.36,.19,.28,.11,.48,.28,.61,.5,.11,.17,.2,.56,.31,1.15h.39v-4.29h-.39c-.04,.71-.24,1.19-.61,1.47-.28,.2-.83,.32-1.67,.32h-3.2v-4.87h3.99Zm-13.75-.67v.33c.09,.02,.13,.02,.18,.02,.48,.07,.83,.19,1.05,.35,.2,.15,.31,.32,.31,.5,0,.28-.18,.76-.5,1.45l-3.42,7.14-3.7-7.21c-.33-.65-.48-1.12-.48-1.43,0-.2,.09-.39,.28-.52,.2-.15,.64-.24,1.32-.3v-.33h-5.94v.33c.46,.04,.81,.09,1.07,.2,.24,.11,.46,.26,.66,.45,.11,.11,.31,.47,.57,1l5.43,10.62h.39l5.04-10.49c.31-.61,.63-1.06,1.01-1.36,.26-.2,.66-.35,1.18-.43v-.33h-4.45Zm-12.61,11.99c-.33,0-.66-.07-.96-.22-.24-.11-.37-.24-.46-.39-.09-.19-.13-.61-.13-1.23v-7.98c0-.74,.09-1.21,.26-1.39,.28-.3,.7-.45,1.29-.45h.53v-.33h-6.22v.33h.53c.33,0,.66,.07,.99,.22,.22,.11,.35,.24,.44,.39,.09,.19,.13,.61,.13,1.23v7.98c0,.74-.09,1.21-.26,1.39-.26,.3-.7,.45-1.29,.45h-.53v.33h6.22v-.33h-.53Zm-22.69-11.66c.42,0,.72,.02,.94,.07,.42,.13,.72,.24,.94,.37,.22,.15,.55,.41,.96,.84v8.57c0,.69-.09,1.13-.24,1.34-.26,.32-.7,.46-1.34,.46h-.5v.33h5.11v-.33h-.53c-.57,0-.99-.13-1.27-.39-.2-.19-.28-.65-.28-1.41v-7.59l9.55,9.93h.39v-10.39c0-.69,.09-1.13,.24-1.34,.26-.32,.7-.47,1.32-.47h.53v-.33h-5.11v.33h.5c.59,0,1.01,.13,1.27,.39,.2,.19,.31,.65,.31,1.41v7.12l-8.9-9.26h-3.9v.33h0Zm-5.73,0c.55,0,.96,.13,1.23,.39,.2,.2,.31,.69,.31,1.45v4.98c0,1.32-.13,2.25-.42,2.79-.26,.56-.79,1-1.53,1.36-.74,.35-1.6,.52-2.54,.52-.75,0-1.38-.11-1.88-.33-.5-.22-.9-.5-1.16-.86-.28-.35-.46-.82-.57-1.45-.11-.61-.15-1.15-.15-1.64v-5.37c0-.69,.09-1.13,.26-1.36,.26-.32,.68-.48,1.29-.48h.55v-.33h-6.27v.33h.55c.55,0,.94,.11,1.18,.35,.24,.24,.37,.73,.37,1.49v4.82c0,1.49,.11,2.49,.35,3.03,.33,.8,.92,1.41,1.73,1.88,.81,.46,2.02,.71,3.59,.71,1.47,0,2.61-.24,3.46-.73,.83-.5,1.4-1.08,1.69-1.77,.28-.67,.44-1.64,.44-2.86v-5c0-.69,.07-1.12,.22-1.3,.31-.41,.75-.61,1.31-.61h.55v-.33h-5.11v.33h.55Zm157.31,.34c.75,0,1.31,.06,1.67,.19,.35,.11,.66,.32,.9,.58,.26,.28,.48,.71,.66,1.28h.37l-.15-2.71h-10.78v.33h.53c.35,0,.68,.07,.99,.22,.22,.11,.35,.24,.44,.39,.09,.19,.13,.61,.13,1.23v7.98c0,.74-.09,1.21-.26,1.39-.26,.3-.7,.45-1.29,.45h-.53v.33h6.22v-.33h-.53c-.33,0-.66-.07-.96-.22-.24-.11-.37-.24-.46-.39-.09-.19-.13-.61-.13-1.23v-3.89h2.63c.48,0,.85,.06,1.1,.17,.26,.11,.46,.28,.59,.5,.13,.22,.22,.58,.22,1.06h.39v-4.18h-.39c-.09,.69-.28,1.13-.57,1.36-.29,.22-.72,.33-1.34,.33h-2.63v-4.83h3.2Zm-20.64,.65c-1.56,1.25-2.34,2.85-2.34,4.8s.68,3.48,2.04,4.69c1.36,1.21,3.02,1.8,5.04,1.8s3.64-.61,5.04-1.86c1.38-1.23,2.08-2.79,2.08-4.65s-.68-3.35-2.06-4.56c-1.38-1.21-3.02-1.82-4.91-1.82s-3.53,.54-4.89,1.6h0Zm7.93,.28h0c.99,1.04,1.47,2.62,1.47,4.72,0,1.95-.44,3.38-1.34,4.28-.88,.91-1.99,1.36-3.35,1.36s-2.3-.41-3.09-1.25c-1.01-1.08-1.51-2.62-1.51-4.63s.48-3.46,1.47-4.48c.79-.82,1.82-1.23,3.11-1.23,1.38,0,2.45,.41,3.24,1.23h0Zm173.05-1.88c-.07,.28-.18,.46-.29,.56-.11,.09-.26,.15-.46,.15-.15,0-.44-.07-.83-.22-.88-.32-1.69-.48-2.48-.48-1.23,0-2.26,.32-3.05,.97-.81,.63-1.21,1.39-1.21,2.27,0,.52,.13,.98,.42,1.41,.26,.41,.66,.8,1.18,1.15,.53,.35,1.42,.82,2.67,1.41,1.25,.59,1.99,.97,2.28,1.15,.42,.26,.72,.56,.92,.87,.2,.3,.29,.61,.29,.91,0,.56-.26,1.02-.77,1.43-.53,.39-1.23,.6-2.13,.6-.77,0-1.49-.15-2.13-.43-.66-.3-1.12-.67-1.45-1.1-.31-.45-.57-1.1-.75-1.99h-.39v4.22h.39c.04-.28,.13-.48,.24-.58,.09-.09,.24-.13,.42-.13s.61,.09,1.31,.3c.7,.19,1.16,.3,1.38,.33,.37,.06,.77,.07,1.18,.07,1.36,0,2.45-.33,3.31-1,.85-.69,1.27-1.49,1.27-2.42,0-.5-.13-.97-.39-1.41-.28-.45-.66-.84-1.16-1.17-.48-.33-1.42-.8-2.78-1.41-1.67-.76-2.72-1.38-3.16-1.82-.31-.32-.46-.65-.46-1.02,0-.5,.24-.93,.72-1.32,.48-.39,1.12-.58,1.84-.58,.66,0,1.32,.15,1.93,.43,.61,.28,1.07,.67,1.4,1.15,.35,.48,.57,1.13,.7,1.95h.39v-4.26h-.39Zm-13.91,.95c.7,0,1.2,.04,1.49,.13,.37,.13,.64,.32,.81,.56,.2,.26,.35,.71,.5,1.36h.42l-.15-2.71h-11.2v.33h.53c.59,0,1.03,.11,1.27,.35,.2,.19,.28,.67,.28,1.45v8.01c0,.6-.04,1-.13,1.19-.07,.2-.22,.35-.46,.45-.31,.13-.64,.2-.96,.2h-.53v.33h11.2l1.25-3.09h-.44c-.46,.76-.92,1.32-1.36,1.69-.35,.3-.7,.48-1.07,.58-.37,.09-.96,.15-1.78,.15h-2.45c-.42,0-.68-.04-.81-.11-.15-.06-.26-.15-.31-.28-.07-.11-.09-.45-.09-.98v-4.07h3.2c.61,0,1.05,.06,1.36,.19,.28,.11,.48,.28,.61,.5,.11,.17,.2,.56,.31,1.15h.39v-4.29h-.39c-.04,.71-.24,1.19-.61,1.47-.28,.2-.83,.32-1.67,.32h-3.2v-4.87h3.99Zm-10.47-.95c-.09,.3-.22,.52-.39,.69-.13,.11-.31,.17-.5,.17-.13,0-.33-.07-.64-.2-1.01-.43-2.06-.65-3.09-.65-1.36,0-2.59,.28-3.72,.86-1.14,.56-2.02,1.36-2.67,2.38-.64,1.04-.96,2.17-.96,3.4,0,1.52,.48,2.84,1.47,3.98,1.31,1.51,3.18,2.27,5.59,2.27,1.31,0,2.48-.26,3.44-.76,.96-.5,1.82-1.3,2.54-2.4l-.33-.19c-.85,1.02-1.64,1.69-2.37,2.03-.72,.35-1.56,.52-2.48,.52-1.1,0-2.06-.22-2.89-.65-.83-.45-1.47-1.06-1.88-1.88-.42-.82-.64-1.78-.64-2.9,0-1.36,.22-2.49,.66-3.4,.46-.91,1.07-1.56,1.84-1.99,.77-.41,1.64-.61,2.61-.61,1.14,0,2.13,.28,2.94,.82,.81,.56,1.45,1.47,1.88,2.71h.33l-.33-4.18h-.39Zm-29.09,.61c.42,0,.72,.02,.94,.07,.42,.13,.72,.24,.94,.37,.22,.15,.55,.41,.96,.84v8.57c0,.69-.09,1.13-.24,1.34-.26,.32-.7,.46-1.34,.46h-.5v.33h5.11v-.33h-.53c-.57,0-.99-.13-1.27-.39-.2-.19-.28-.65-.28-1.41v-7.59l9.55,9.93h.39v-10.39c0-.69,.09-1.13,.24-1.34,.26-.32,.7-.47,1.31-.47h.53v-.33h-5.11v.33h.5c.59,0,1.01,.13,1.27,.39,.2,.19,.31,.65,.31,1.41v7.12s-8.9-9.26-8.9-9.26h-3.9v.33h0Zm-5.6,.34c.7,0,1.2,.04,1.49,.13,.37,.13,.64,.32,.81,.56,.2,.26,.35,.71,.5,1.36h.42l-.15-2.71h-11.2v.33h.53c.59,0,1.03,.11,1.27,.35,.2,.19,.28,.67,.28,1.45v8.01c0,.6-.04,1-.13,1.19-.07,.2-.22,.35-.46,.45-.31,.13-.64,.2-.96,.2h-.53v.33h11.2l1.25-3.09h-.44c-.46,.76-.92,1.32-1.36,1.69-.35,.3-.7,.48-1.07,.58-.37,.09-.96,.15-1.77,.15h-2.45c-.42,0-.68-.04-.81-.11-.15-.06-.26-.15-.31-.28-.07-.11-.09-.45-.09-.98v-4.07h3.2c.61,0,1.05,.06,1.36,.19,.28,.11,.48,.28,.61,.5,.11,.17,.2,.56,.31,1.15h.39v-4.29h-.39c-.04,.71-.24,1.19-.61,1.47-.28,.2-.83,.32-1.67,.32h-3.2v-4.87h3.99Zm-9.94,11.32c-.33,0-.66-.07-.96-.22-.24-.11-.37-.24-.46-.39-.09-.19-.13-.61-.13-1.23v-7.98c0-.74,.09-1.21,.26-1.39,.28-.3,.7-.45,1.29-.45h.53v-.33h-6.22v.33h.53c.33,0,.66,.07,.99,.22,.22,.11,.35,.24,.44,.39,.09,.19,.13,.61,.13,1.23v7.98c0,.74-.09,1.21-.26,1.39-.26,.3-.7,.45-1.29,.45h-.53v.33h6.22v-.33h-.53Zm-8.03-12.27c-.09,.3-.22,.52-.39,.69-.13,.11-.31,.17-.5,.17-.13,0-.33-.07-.64-.2-1.01-.43-2.06-.65-3.09-.65-1.36,0-2.59,.28-3.72,.86-1.14,.56-2.02,1.36-2.67,2.38-.64,1.04-.96,2.17-.96,3.4,0,1.52,.48,2.84,1.47,3.98,1.31,1.51,3.18,2.27,5.59,2.27,1.31,0,2.48-.26,3.44-.76,.96-.5,1.82-1.3,2.54-2.4l-.33-.19c-.85,1.02-1.64,1.69-2.37,2.03-.72,.35-1.56,.52-2.48,.52-1.1,0-2.06-.22-2.89-.65-.83-.45-1.47-1.06-1.88-1.88-.42-.82-.64-1.78-.64-2.9,0-1.36,.22-2.49,.66-3.4,.46-.91,1.07-1.56,1.84-1.99,.77-.41,1.64-.61,2.61-.61,1.14,0,2.13,.28,2.94,.82,.81,.56,1.45,1.47,1.88,2.71h.33l-.33-4.18h-.39Zm-14.63,0c-.07,.28-.18,.46-.28,.56-.11,.09-.26,.15-.46,.15-.15,0-.44-.07-.83-.22-.88-.32-1.69-.48-2.48-.48-1.23,0-2.26,.32-3.05,.97-.81,.63-1.2,1.39-1.2,2.27,0,.52,.13,.98,.42,1.41,.26,.41,.66,.8,1.18,1.15,.53,.35,1.42,.82,2.67,1.41,1.25,.59,1.99,.97,2.28,1.15,.42,.26,.72,.56,.92,.87,.2,.3,.29,.61,.29,.91,0,.56-.26,1.02-.77,1.43-.53,.39-1.23,.6-2.13,.6-.77,0-1.49-.15-2.13-.43-.66-.3-1.12-.67-1.45-1.1-.31-.45-.57-1.1-.74-1.99h-.39v4.22h.39c.04-.28,.13-.48,.24-.58,.09-.09,.24-.13,.42-.13s.61,.09,1.31,.3c.7,.19,1.16,.3,1.38,.33,.37,.06,.77,.07,1.18,.07,1.36,0,2.45-.33,3.31-1,.85-.69,1.27-1.49,1.27-2.42,0-.5-.13-.97-.39-1.41-.28-.45-.66-.84-1.16-1.17-.48-.33-1.42-.8-2.78-1.41-1.67-.76-2.72-1.38-3.16-1.82-.31-.32-.46-.65-.46-1.02,0-.5,.24-.93,.72-1.32,.48-.39,1.12-.58,1.84-.58,.66,0,1.31,.15,1.93,.43,.61,.28,1.07,.67,1.4,1.15,.35,.48,.57,1.13,.7,1.95h.39v-4.26h-.39Zm-21.44,1.6c-1.56,1.25-2.34,2.85-2.34,4.8s.68,3.48,2.04,4.69c1.36,1.21,3.02,1.8,5.04,1.8s3.64-.61,5.04-1.86c1.38-1.23,2.08-2.79,2.08-4.65s-.68-3.35-2.06-4.56c-1.38-1.21-3.02-1.82-4.91-1.82s-3.53,.54-4.89,1.6h0Zm7.93,.28h0c.99,1.04,1.47,2.62,1.47,4.72,0,1.95-.44,3.38-1.34,4.28-.88,.91-1.99,1.36-3.35,1.36s-2.3-.41-3.09-1.25c-1.01-1.08-1.51-2.62-1.51-4.63,0-1.97,.48-3.46,1.47-4.48,.79-.82,1.82-1.23,3.11-1.23,1.38,0,2.45,.41,3.24,1.23h0Zm-15.88-.93c.7,0,1.2,.04,1.49,.13,.37,.13,.64,.32,.81,.56,.2,.26,.35,.71,.5,1.36h.42l-.15-2.71h-11.2v.33h.53c.59,0,1.03,.11,1.27,.35,.2,.19,.28,.67,.28,1.45v8.01c0,.6-.04,1-.13,1.19-.07,.2-.22,.35-.46,.45-.31,.13-.64,.2-.96,.2h-.53v.33h11.2l1.25-3.09h-.44c-.46,.76-.92,1.32-1.36,1.69-.35,.3-.7,.48-1.07,.58-.37,.09-.96,.15-1.78,.15h-2.45c-.42,0-.68-.04-.81-.11-.15-.06-.26-.15-.31-.28-.07-.11-.09-.45-.09-.98v-4.07h3.2c.61,0,1.05,.06,1.36,.19,.28,.11,.48,.28,.61,.5,.11,.17,.2,.56,.31,1.15h.39v-4.29h-.39c-.04,.71-.24,1.19-.61,1.47-.28,.2-.83,.32-1.67,.32h-3.2v-4.87h3.99ZM301.51,12.85h0c-.2,.31-.32,.75-.39,1.16-.58,1.27-1.03,2.67-1.33,4.23-.34,.31-.22,1.19-.25,1.74-.15,.24-.23,.6-.31,.9-.07,.27-.08,.53-.14,.82-.03,.14-.13,.27-.16,.41-.27,1.14-.48,2.4-.53,3.76,.07,.06,.05,.21,.08,.31,.17-.07,.06-.43,.23-.51,.08,0,.15,0,.2,.02,.12-.27,.09-.69,.29-.88,.12-.02,.12,.16,.2,.1,.19-.48,.16-1.05,.24-1.59,.01-.09,.06-.16,.08-.25,.06-.26,.1-.52,.24-.74,0-.41,.16-.82,.31-1.15,.05-.05,.13,.07,.18,.02,.07-.38-.05-.83,.14-1.15,.32-.06,.19-.57,.47-.67,.04-.31,.14-.67,.37-.69,.21-.02,.41,.29,.71,.16,.22-.28-.09-.91,.14-1.13,.07-.03,.15,0,.2,.04,.14-.26,.45-.58,.51-1.02,.09-.65-.2-1.54,0-2.17,.03-.08,.08-.11,.08-.18,0-.07-.07-.14-.06-.2,.04-.14,.1-.25,.14-.39-.08-.31-.23-.68-.35-1.02-.51,.11-.69-.39-1.02-.57-.04,.28-.19,.46-.31,.63h0Zm-1.55,.39h0c0,.11,.06,.17,.08,.27-.15,.27-.51,.48-.47,.82-.34,.31-.38,.85-.57,1.31-.12,.28-.27,.54-.37,.84-.1,.31-.2,.62-.27,.94-.3,.52-.44,1.2-.61,1.86-.15,.19-.22,.47-.27,.76,0,.07-.12,.04-.1,.14,0,.4-.25,.79-.2,1.23,.35,0,.21-.32,.25-.55,.03-.21,.22-.35,.28-.49,0-.48,.27-.77,.35-1.14,.02-.08,0-.16,.02-.24,.06-.19,.26-.25,.37-.45,.06-.11,.09-.29,.12-.43,.03-.14,.03-.29,.06-.45,.03-.07,.12-.08,.18-.12,.03-.33,.28-.54,.43-.82,.31-.56,.48-1.24,.71-1.86,.24-.62,.61-1.21,.65-1.88-.3-.25-.55,.09-.65,.29h0Zm29.94,5.62h0c.05-.23,.05-.49,.12-.69,.03-.08,.11-.14,.14-.22,.14-.34,.04-.74,.12-1.08,.04-.19,.18-.37,.02-.53,.19-.67,.66-1.78,.51-2.76-.01-.08-.07-.24-.12-.26-.19-.08-.2,.35-.27,.47-.08,.02-.16,.03-.24,.04-.16,.19-.24,.46-.33,.72-.06,0-.15-.01-.18,.02,0,.12-.14,.21-.21,.33-.03,.06-.14,.43-.14,.45,0,.08,.13,.16,.14,.25,.02,.13-.07,.38-.12,.57-.3,1.22-.58,2.18-.82,3.41-.08,.39-.23,.74,.14,.8-.14,.24-.53,.79,.04,.84,.12-.07,.06-.31,.1-.45,.07-.11,.3-.09,.45-.06,.34-.46,.5-1.18,.63-1.82h0Zm-2.15-2.02h0c.07,0,.1-.2,.02-.2-.04,.04-.01,.13-.02,.2h0Zm.33,3.19h0c0-.11,.08-.18-.04-.23-.02,.08-.05,.21,.04,.23h0Zm-26.86,.96h0c.06-.03,.13-.2,.04-.24-.01,.08-.05,.14-.04,.24h0Zm-.18,.74h0c.06,0,.06-.05,.12-.04-.08-.27,.21-.45,.04-.61-.09,.17-.2,.42-.16,.65h0Zm32.86,10.1h0c.09-.18,.14-.38,.24-.57,.06-.1,.17-.17,.25-.29,.19-.29,.38-.72,.53-1.12,.45-1.23,1.02-3.24,.43-4.58-.26-.16-.35-.45-.8-.39-.27,.03-.44,.23-.65,.33-.11,.05-.24,.07-.37,.12-.47,.22-1.02,.56-1.37,.88-.07,.07-.14,.2-.24,.31-.18,.18-.3,.23-.31,.51-.01,.48,.15,.94,.2,1.35,.09,.68,.21,1.36,.31,2.06,.13,.94,.15,1.96,.65,2.55,.48-.29,.87-.67,1.12-1.16h0Zm-2.58-3.05h0c-.18,.37-.03,.98-.2,1.37-.09-.86-.26-1.63-.29-2.55-.09,.08-.05,.02-.16,0-.05,.19-.17,.31-.29,.43,.03,.11,.05,.22,.06,.35-.27,.26,.02,.82,0,1.23,0,.19-.08,.38,.06,.55-.13,.44,.25,.78,.25,1.25,.06,0,.1,0,.12,.04,.13,.36,.22,.77,.45,1.02,.3,0,.19-.5,.47-.45-.04-.82-.25-1.55-.2-2.43,.03-.75-.13-1.47-.27-2.13h-.06c-.01,.4,.05,.89,.06,1.33h0Zm-.78,3.6h0c-.05-1.46-.28-2.75-.71-3.82-.02,0-.03-.02-.04-.02-.06,.05-.14,.08-.2,.08-.35,.36-.16,1.15-.29,1.7,.19,.21,.18,.73,.16,1.08,.12,.18,.26,.36,.29,.63,.03,.3-.14,.65,.08,.8,.18-.04,.3-.21,.55-.12,.09-.07,.1-.23,.16-.33h0Zm-37.24,11.61h0c-.06-.02-.06,.04-.12,.02,.02,.24-.17,.58,.02,.78,.15-.2,.25-.56,.1-.8h0Zm-36.76-28.47h0c-.1-.99-.21-1.99-.59-2.61-.32-.52-.98-.69-1.83-.63-1.29,.09-2.45,.7-3.47,1.22-.51,.26-1,.55-1.47,.84-.48,.3-.96,.57-1.34,.93,.28-.74,.76-1.31,1.2-1.85,.15-.19,.34-.35,.48-.55-1.68,.45-3.02,1.27-4.06,2.4-.13,.14-.39,.38-.4,.54,0,.09,.08,.29,.13,.46,.63,2.05,1.25,4.05,2,5.93,.11,.28,.22,.58,.4,.82,.18,.06,.38,.05,.57,.13,.15,.07,.24,.24,.38,.34,.36,.26,.89,.31,1.16,.65-.36,.41-.89,.71-1.03,1.3-.16,.68,.04,1.48,.19,2.1,.08,.32,.16,.63,.25,.93,.1,.31,.25,.61,.31,.9,.09,.4,.11,.84,.17,1.24,.43,2.85,1.13,5.55,2.35,7.55,.2-.19,.26-.51,.42-.74,.26-1.29,.28-2.61,.17-3.99-.04-.44-.13-.9-.11-1.32,.01-.37,.18-.61,.23-.9,.19-1.19-.13-2.47-.32-3.36-.09-.43-.08-.89-.15-1.34-.22-1.32-.46-2.58-.69-3.89-.15-.85-.35-1.7-.48-2.58-.06-.45-.12-.9-.17-1.35-.05-.47-.15-.94-.15-1.39,0-.41,.17-.81,.21-1.22,.03-.31-.09-.59-.04-.86,.02-.14,.17-.24,.23-.42,.11-.29,.07-.59,.04-.95,.19-.21,.6-.33,.93-.23,.47,.14,.99,.48,1.41,.76,.87,.59,1.59,1.31,2.21,2.17,.14,.19,.25,.42,.42,.67,.15,.21,.44,.48,.42,.69-.01,.09-.11,.15-.11,.27,0,.17,.09,.29,.23,.36,.08-.93,.01-2.02-.09-3.03h0Zm-23.6,13.96h0c.8-.37,1.54-.76,2.23-1.2,.94-.6,1.77-1.34,2.61-1.99,1.4-1.07,2.53-1.91,3.97-2.9,.19-.13,.43-.32,.69-.46,.24-.13,.65-.27,.67-.5,.01-.14-.11-.3-.13-.4-.08-.29-.14-.54-.21-.82-.07-.26-.18-.54-.21-.84-.04-.38,.1-.59,.17-.84,.1-.33-.05-.4-.21-.38-.3,.04-.65,.2-.97,.32-2.85,1.12-4.88,3.02-6.56,5.21-1.14,1.49-2.21,3.07-2.88,4.94,.28,.19,.59-.04,.84-.15h0Zm23.44-9.82h0c-.05,.1-.03,.24-.08,.34-.13,.29-.41,.54-.63,.76-.24,.24-.53,.42-.76,.65,.23,.81,.47,1.69,.61,2.58,.12,.76,.15,1.57,.19,2.33,0,.09-.02,.21,0,.28,.03,.17,.17,.34,.23,.52,.11,.33,.18,.71,.13,1.12-.03,.28-.21,.52-.23,.84-.02,.23,.05,.53,.13,.71,.08,.17,.23,.29,.31,.44,.21,.44,.24,1.3,.19,1.83-.03,.29-.2,.48-.29,.71-.04,.09-.06,.2-.09,.3-.04,.11-.11,.23-.11,.32-.02,.23,.05,.53,.08,.78,.08,.77,.18,1.64,.11,2.5-.04,.53-.18,1.11-.29,1.66-.11,.57-.2,1.13-.36,1.58-.06,.17-.2,.3-.17,.48-.45,.57-1.07,1.09-.99,2.1,.06,.66,.3,1.31,.52,1.95,.51,1.54,1.22,2.96,1.98,4.21,.16,.26,.35,.51,.48,.76,.2,.39,.38,.97,.57,1.3,.05,.08,.28,.29,.29,.36,0,.13-.17,.15-.13,.25,.2,.16,.47,.29,.5,.55,.01,.14-.24,.43,.04,.55,.11-.09,.09-.26,.1-.38,.04-.45,.07-.91,.08-1.38,.04-3.87-.09-7.58-.29-11.23-.03-.63-.12-1.26-.09-1.85,.08-2.36-.38-4.47-.73-6.52-.12-.7-.2-1.4-.34-2.04-.07-.31-.16-.59-.21-.92-.25-1.64-.26-3.51-.32-5.3-.03-.75,.01-1.49-.02-2.21,0-.25-.05-.53-.04-.76,0-.14,.11-.29-.04-.38h-.04c-.08,.05-.22,.11-.27,.21h0Zm-11.41,33.06h0c-.04-.08-.03-.15-.02-.21,.05-.18,.44-.5,.65-.71,.37-.38,.65-.72,.97-1.07,.11-.12,.2-.26,.3-.38,.8-.99,1.59-2.06,2.14-3.32,.22-.5,.46-.95,.46-1.62,0-.38-.11-.75-.25-1.09-.4-.96-.83-1.88-1.18-2.84-.24-.35-.4-.78-.51-1.24-.07-.27-.06-.56-.09-.86-.06-.56-.15-1.15-.25-1.72-.54-3.04-1.34-5.93-2.1-8.7-.07-.26-.17-.52-.21-.74-.04-.21,.02-.39-.15-.54,.15-.13-.04-.25,0-.46-.17-.18-.17-1.14-.63-.86-.67,.41-1.41,.99-2.08,1.56-.49,.42-1.02,.83-1.51,1.24-.17,.14-.36,.28-.5,.42-.14,.15-.24,.35-.36,.52-.13,.16-.26,.32-.4,.48-.28,.3-.58,.62-.97,.8-1.7,.79-3.2,1.48-4.86,2.19-.56,.24-1.14,.55-1.85,.44-.67,2.4-1.38,4.91-2,7.4-.09,.37-.23,.76-.21,1.14,.05,.93,.79,1.35,1.81,1.18,.68-.11,1.36-.55,1.87-.88,1.37-.88,2.62-1.96,3.83-3.03,.21-.18,.61-.48,.69-.69,.04-.11,0-.25,.04-.42,.03-.14,.17-.34,.25-.44,1.11-1.45,5.23-1.89,6.26-.13,.38,.19,.73,.41,1.07,.67,.28,.22,.71,.56,.8,.93,.08,.34,.04,.73,.08,1.09,.11,1.1,.23,2.11,.5,3.03-.14,.5-.23,.97-.34,1.43-.11,.45-.21,.95-.4,1.37-.1,.23-.28,.48-.42,.71-.44,.71-.9,1.42-1.35,2.08-.31,.45-.62,.91-.99,1.28-.38,.38-.8,.73-1.2,1.09-.77,.68-1.65,1.44-2.54,2.02-.44,.29-.94,.52-1.49,.78-.62,.29-1.34,.58-1.58,1.16-.52,.28-.96,.72-1.64,.78,.08,0,0,.03-.02,.04-.12,.01-.2,.06-.29,.11-.36,.1-.69,0-1.01-.09-.07-.16-.3-.2-.48-.33-.16-.11-.26-.37-.53-.23-.08-.18-.3-.12-.5-.17-.24-.06-.36-.2-.5-.36-.12-.3-.19-.6-.19-.92,0-.41,.15-.79,.25-1.18,.1-.38,.21-.75,.38-1.05v-.23c.05-.08,.16-.09,.21-.17-.11-.1,.04-.13,.08-.23,0-.09-.06-.11-.04-.23,.18-.24,.24-.57,.34-.86,.01-.04,.06-.07,.08-.11,.02-.06,0-.14,.02-.19,.05-.12,.15-.17,.15-.3,0-.17-.12-.33-.13-.52,0-.07,.03-.15,.04-.23,.03-.37,.05-.59,.27-.82,.01-.28,.11-.54,.19-.82,.07-.25,.09-.6,.23-.8,.04-.06,.12-.09,.19-.15,.93-.83,1.49-1.99,2.06-3.13-.19-.18-.38,.08-.57,.17-.24,.12-.5,.18-.59,.4-.39,.16-.63,.47-.82,.84-.36,.26-.55,.69-.78,1.07,.02,.28-.1,.42-.13,.65-.23-.03-.32-.21-.53-.25-.06-.01-.15,.03-.23,.02-.07-.01-.13-.1-.19-.11-.36-.12-.41,.06-.61,.19-.11,.07-.5,.31-.59,.31-.08,0-.19-.11-.27-.17-.29-.21-.46-.43-.63-.71-.21-.35-.47-.9-.44-1.36,.02-.26,.21-.54,.15-.84-.03-.15-.17-.36-.42-.29-.1,.11-.15,.27-.19,.4-.57,1.65-1.14,3.34-1.53,5.15-.15,.7-.31,1.45-.25,2.17,.03,.32,.17,.54,.25,.8,.06,.21,.09,.43,.13,.65,.18,.87,.38,1.7,.69,2.42,.15,.36,.36,.67,.53,1.03,.19,.39,.28,.85,.42,1.28,.42,1.29,.82,2.61,1.53,3.57,.53-.03,.91-.21,1.35-.33,.21-.99,1.26-1.31,2.35-1.32,.23,0,.47,.09,.73,.08,.09,0,.19-.06,.28-.08,.19-.03,.32-.02,.5-.08,.09-.03,.17-.11,.25-.13,.04-.01,.09,0,.14,0,.13-.03,.25-.11,.38-.15,.11-.03,.22-.01,.32-.04,.09-.02,.17-.09,.27-.11,.27-.07,.58-.06,.73-.21,.11,.07,.21-.09,.32-.02,.09-.08,.22-.1,.34-.13,.32-.08,.72-.21,1.11-.31,1.04-.26,2.1-.5,3.13-.73,.53-.12,1.05-.25,1.56-.29,.77-.28,1.7-.35,2.58-.53,.82-.18,1.63-.44,2.38-.73,1.44-.53,2.95-1.17,4.21-1.91,.05-.03,.01-.06,0-.04,.16-.28-.11-.5-.23-.74-.16-.34-.26-.65-.27-.95-.21-.21-.11-.45-.15-.76-.06-.43-.38-.96-.59-1.3-.07-.1-.19-.35-.27-.38-.1-.04-.25,.09-.38,.17-.15,.1-.3,.17-.38,.21-.81,.43-1.51,.92-2.21,1.39-.24-.11-.31,.02-.46,.13-.18,.14-.35,.26-.38,.44-.2,.14-.4,.28-.59,.42-.12-.03-.32-.01-.38,.08-.06,.09,0,.11,.02,.19-.27,.16-.52,.37-.8,.57-.3,.22-.62,.55-1.11,.52-.35-.14-.3-.99-.08-1.24h0Zm-1.3-12.32h0s0-.04-.02-.04c-.4,.41-1,1.02-1.39,1.58-.08,.12-.26,.56-.38,.59-.11,.02-.25-.06-.34-.1-.05-.26,.14-.67-.1-.76-.12,.06-.17,.2-.25,.31-.58,.76-1.15,1.5-1.74,2.25-.48,.62-1.05,1.26-1.43,1.99-.12,.24-.31,.55-.17,.86,.14,.02,.18-.13,.23-.21,.46-.69,.98-1.32,1.47-1.96,.56-.74,1.09-1.54,1.85-2.06,.1,.06,.24-.01,.29,.11-.13,.2-.25,.42-.44,.57-.8,1.37-1.9,2.55-2.59,4.01-.23,.48-.58,.96-.61,1.56,.35-.01,.58-.25,.8-.44,.7-.6,1.22-1.38,1.87-2,.1-.2,.24-.36,.4-.5,.16-.31,.34-.61,.55-.86,.1-.3,.28-.56,.42-.84,.4-.78,.66-1.61,.95-2.5,.05-.07,.18,0,.23-.04,.22-.39,.41-1.03,.4-1.53h0Zm-1.81,1.7h0s.13,.05,.11-.02c-.01-.04-.12-.02-.11,.02h0Zm-6.43,.67h0c.07-.05,.24-.17,.17-.23-.38,.31-.74,.64-1.07,.99,.09-.04,.11-.02,.21-.04,.04-.11,.14-.17,.19-.27,.18,.02,.15-.18,.25-.25,.09,0,.12-.06,.21-.06,0-.06,.06-.07,.04-.15h0Zm-.08,.71h0c.07-.02,.13-.04,.13-.13-.08,0-.11,.07-.13,.13h0Zm22.89,9.94h0c.11,.11,.28,.05,.38,.02-.1-.15,.12-.25-.02-.4-.19,.06-.32,.17-.36,.38h0ZM551.62,8.81h0c-.36,.2-.7,.48-1.05,.75-.32,.26-.68,.5-.95,.77-.35,.34-.64,.75-1.01,1.08-.38,.34-.67,.78-.92,1.2,.43,.15,.57-.33,.81-.52,.07-.05,.18-.09,.26-.15,.32-.22,.53-.58,.95-.64,.09-.26,.25-.44,.41-.63,.6-.23,.94-.88,1.31-1.34,.11-.14,.4-.3,.22-.53h-.02Zm-14.54,4.61h0c-.44,.31-.8,.78-1.14,1.23-.29,.37-.53,.79-.83,1.14-.13,.15-.31,.29-.46,.44-.86,.86-1.82,1.93-2.13,3.33-.05,.22-.15,.55,.06,.75,.2,.04,.32-.06,.5-.02,.27,.06,.48,.41,.46,.72-.01,.14-.17,.26-.06,.4,.3,.01,.58-.12,.81-.24,.51-.25,.88-.48,1.38-.79,.12-.07,.59-.34,.64-.44,.16-.27-.1-1.17-.13-1.45-.04-.45,.05-.94,.13-1.4,.2-1.22,.49-2.34,.79-3.4,.02-.07,.12-.21,0-.28h-.02Zm9.82,5.79h0c.11,.02,.14-.06,.18-.11-.08-.02-.2-.01-.18,.11h0Zm-2.32,1.38h0c.1,0,.17-.04,.2-.11-.06-.08-.18,.04-.2,.11h0Zm-10.77,3.36h0s.1,0,.11-.04c-.05,0-.11-.01-.11,.04h0Zm12.17,3.71h0c.04,.15,.26,.07,.31-.02-.07-.09-.23,0-.31,.02h0Zm-18.37,5.07h0v.26c.44,.05,.52-.25,.81-.35,.02-.06,0-.14-.02-.2-.31-.06-.57,.15-.79,.29h0Zm1.18-.15h0c-.21,.08-.49,.24-.61,.39,.39-.05,.73-.17,1.05-.3,0-.06,.03-.08,.02-.15-.2,0-.35,0-.46,.06h0Zm25.02,2.79h0c.02-.06,.14-.03,.15-.11-.06,.02-.18,.06-.15,.11h0Zm-.26,.07h0s.12,0,.11-.05c-.06,0-.08,.03-.11,.05h0Zm-7.48,.42h0c.16-.03,.28-.1,.33-.24-.16,.02-.43,.07-.33,.24h0Zm7.87,.02h0c.1,.01,.11-.05,.11-.13-.08,0-.12,.04-.11,.13h0Zm-7.87,.46h0c.03,.13-.09,.23-.11,.37,.08,.04,.24,0,.2,.17,.08,.01,.12-.02,.15-.06,.02-.06-.05-.04-.05-.07,.07-.12,.19-.29,.14-.48-.09-.02-.23,.05-.33,.07h0Zm-15.55,.11h0c.15-.02,.3-.03,.31-.18-.14,.03-.26,.07-.31,.18h0Zm-4.23,2.17h0c.09-.04,.17-.07,.18-.18-.11,0-.19,.12-.18,.18h0Zm-17.43,6.01h0c.07,.01,.09-.02,.09-.07-.02,0-.02-.02-.05-.02,0,.04-.04,.04-.04,.09h0Zm-.09,.09h0s.07,0,.07-.06c-.04,0-.08,0-.07,.06h0Zm32.26,4.21h0s-.04,.14-.07,.18c-.12,.17-.5,.31-.28,.53,.24-.13,.37-.36,.44-.66,.09-.14,.22-.24,.29-.4,0-.02-.02-.03-.04-.04-.1,.12-.18,.25-.35,.39h0Zm-.97,19.36h0c1.2-.93,2.54-2.19,2.79-4.01,.12-.84-.12-1.56-.42-2.24-.14-.31-.26-.65-.42-.94-.09-.14-.18-.27-.26-.42-.07-.14-.18-.28-.27-.4-.39-.52-.76-1.03-1.23-1.51-.87-.87-2.11-1.7-3.8-1.65-.61,.02-1.19,.17-1.71,.31-.52,.15-1.02,.3-1.51,.46-.89,.29-1.94,.84-3.16,.75-.29-.02-.47-.12-.7-.13-.71-.02-1.24,.24-1.76,.5-1.03,.52-1.89,1.16-2.37,2.17-.12,.25-.3,.47-.44,.7-.69,1.15-1.13,2.91-.84,4.65,.11,.68,.25,1.29,.5,1.77,.25,.49,.61,.89,1.03,1.25,.82,.7,1.84,1.18,3.02,1.52,1.22,.36,2.7,.36,4.15,.24,1.41-.12,2.61-.4,3.72-.83,1.11-.42,1.97-.96,2.96-1.58,.22-.24,.5-.41,.75-.61h0Zm-10.15-9.95h0c.1,0,.15-.04,.2-.09-.1,0-.19,0-.2,.09h0Zm-5.05,2.21h0c.11,0,.12-.1,.16-.17,.13-.09,.27-.17,.33-.33-.27-.15-.48,.21-.5,.5h0Zm.07,.11h0c.13,.08,.25-.1,.27-.24-.15-.05-.24,.11-.27,.24h0Zm-1.09,.59h.11c.1-.21,.18-.44,.28-.66-.2,.14-.42,.4-.39,.66h0Zm.28,.02h0c.1,0,.1-.17,.06-.22-.02,.07-.06,.12-.06,.22h0Zm-.85,3.64h0s-.09,.05-.11,.09c.02,.37,.09,.7,.11,1.07,.03,.04,.1,.04,.11,.09,0,.25,.04,.48,.2,.57,.21-.21,.04-.52,0-.79-.03-.22,.01-.45,0-.66-.02-.23-.19-.39-.15-.59-.19-.06-.15,.16-.16,.22h0ZM405.31,9.46h0s.05,.02,.09,.02c0-.05-.08-.07-.09-.02h0Zm3.65,9.3h0c-.26,.08-.46,.26-.72,.44-.29,.2-.68,.32-.75,.68,.18-.03,.34-.24,.54-.31,.03-.09,.06-.17,.12-.22,.07,.01,.1-.02,.15-.02,.07-.04,.1-.12,.15-.17,.17-.15,.45-.18,.53-.41h-.03Zm6.79,.19h0s.03-.15-.05-.12c0,.05-.02,.13,.05,.12h0Zm-8.38,1.5h0c-.15,.07-.3,.12-.43,.19-.68,.32-1.26,.81-1.77,1.31-.58,.57-1.23,1.13-1.57,1.91-.16,.13-.35,.32-.27,.63,.13-.02,.23-.07,.39-.05,.14,.36-.13,.66-.12,.95,.25,0,.27-.36,.44-.49,0-.04,.02-.08,.01-.14,.07-.05,.12-.11,.17-.17-.03-.11,.03-.13,0-.22,.28-.38,.45-.81,.73-1.17,.21-.27,.55-.49,.83-.73,.86-.74,1.7-1.47,2.44-2.3,.06-.04,.22-.15,.15-.2-.38-.02-.7,.34-1.02,.49h0Zm-.8,17.1h0c-.24,.46-.62,.88-.92,1.31-.16,.23-.31,.45-.44,.68-.14,.25-.23,.52-.37,.75-.07,.11-.19,.2-.24,.32,.01,.08,.01,.13,0,.19-.06,.27-.22,.55-.32,.84-.1,.3-.14,.63-.32,.85,.05,.04,.04,.08,.04,.14,0,.09-.06,.26-.1,.37-.05,.12-.16,.2-.17,.29,0,.09,.07,.1,.05,.17,0,.09-.09-.02-.09,.05,0,.27,.19,.23,.46,.29,.81,.18,1.44,.48,2.03,.85,.24,.16,.53,.34,.66,.49,.05,.05,.04,.09,.08,.15,.35,.19,.59,.5,.85,.87,.1,.14,.27,.38,.32,.53,.01,.04,0,.08,.02,.12,.05,.1,.11,.14,.14,.22,.05,.2,.03,.46,.05,.7,.11,1.42,.25,2.75,.37,4.12,.02,.24,0,.51,.07,.7,.04,.13,.16,.23,.22,.34,.6,1.14,.34,3.01-.22,4.03,.29,.27,.62,.54,.95,.78,.32,.24,.67,.54,1.11,.6-.23-1.19-.36-2.55-.42-3.9-.02-.47-.08-.96-.05-1.41,.05-.77,.15-1.52,.19-2.28,.1-2.21-.09-4.46-.36-6.4-.03-.19-.09-.38-.08-.54,0-.08,.04-.13,.05-.2,.02-.15-.02-.33-.01-.49,.03-2.55-.26-4.84-.89-6.71-.1-.3-.24-.57-.27-.87-.1-.04-.1-.19-.15-.27-.97,.4-1.7,1.35-2.21,2.33h0Zm3.95,24.42h0c.04-.28,.26-.46,.32-.66,.05-.18,.03-.43,.02-.65-.02-.35-.12-.82-.27-1.14-.15-.3-.41-.58-.63-.87-.42-.54-.75-.93-1.23-1.28-.36,.06-.52,.31-.85,.39-.14,.16-.3,.31-.43,.49,.07,.1,.07,.22,.14,.3,.05,.06,.13,.07,.19,.12,.03,.03,.07,.11,.1,.15,.05,.06,.09,.1,.1,.15,.04,.21-.02,.48-.09,.63-.18,.41-.58,.64-.61,1.16-.09-.01-.13,.02-.17,.05-.05,.09-.03,.25-.03,.39-.09,.16-.35,.16-.33,.36,.02,.12,.16,.07,.22,.17,.05,.07-.04,.13,.05,.19,.18,.08,.38,.03,.6,.05,.44,.05,.97,.23,1.4,.19,.52-.05,.99,.14,1.43,.19,.09-.14,.05-.26,.07-.39h0Zm-24.27,7.58h0c.02,.08,.12,.08,.14,0-.02-.03-.11-.03-.14,0h0Zm8.75,2.64h0c-.26,.15-.7,.12-.95,.27,.11,.04,.26,.05,.41,.03,.3-.03,.71-.05,.77-.29-.06-.04-.15,.03-.22-.02h0ZM189.87,26.66h0c.12,.06,.34,.28,.45,.27,.1,0,.22-.24,.28-.3,.03-.03,.04-.05,.07-.08,.37-.43,.75-.76,1.01-1.29,.24-.49,.57-.95,.5-1.64-.12-.1-.21-.25-.35-.32-.4-.2-1.3-.36-1.78-.2-.41,.14-.8,.45-1.09,.55-.12,.43-.34,.7-.3,1.16,.01,.16,.12,.28,.17,.44,.11,.36,.13,.78,.3,1.09,.3,.09,.46,.19,.74,.34h0Zm-1.81-1.86h0s.04,.05,.03,.1c.12,0,.02-.06,.03-.13-.04,0-.06,0-.07,.03h0Zm-3.93,2.17h0c-.31,1.21-.52,2.41-.77,3.61-.15,.69-.33,1.32-.27,2.07,.8-.44,1.06-1.42,1.23-2.52,.13-.84,.17-1.71,.17-2.67,0-.31-.05-.62-.03-.92,0-.1,.08-.15,.02-.24h-.03c-.17,.07-.23,.39-.3,.67h0Zm-10.49,2.52h0c-.8,.31-1.51,.96-2.06,1.68-.56,.73-.94,1.59-1.13,2.63-.2,1.08-.2,2.32-.15,3.54,.01,.31-.03,.61,0,.91,.08,.89,.2,1.69,.44,2.38,.19-.07,.31-.24,.47-.37,.15-.13,.33-.25,.49-.39,.31-.26,.63-.57,.99-.77,.19-.1,.39-.14,.57-.29,.21-1.46,.23-3.05,.3-4.63,.03-.8,0-1.6,.08-2.38,.07-.78,.16-1.56,.07-2.33-.05-.03-.03,0-.07,.02Z"/>
  <path class="cls-1" d="M64.42,0c35.58,0,64.42,28.84,64.42,64.42s-28.84,64.42-64.42,64.42S0,100,0,64.42,28.84,0,64.42,0h0Zm.89,25.79v5.63h-.17c7.22,.15,13.88,2.55,19.32,6.53-2.72-5.74-6.31-10.28-10.43-13.08-2.83,.55-5.75,.87-8.73,.92h0Zm-.21,5.62c-.1,0-.2,0-.3,0,.1,0,.2,0,.3,0h0Zm-.35,0c-.11,0-.22,0-.33,0,.11,0,.22,0,.33,0h0Zm-.33,0c-.11,0-.22,0-.33,0,.11,0,.22,0,.33,0h0Zm-.37,0c-.1,0-.2,0-.3,0,.1,0,.2,0,.3,0h0Zm-.35,0h-.17s0-5.63,0-5.63c-2.98-.05-5.9-.37-8.73-.92-4.12,2.8-7.71,7.34-10.43,13.08,5.44-3.98,12.1-6.38,19.32-6.53h0ZM9.61,48.29c-.05-.02-.11-.03-.16-.04-2.39-.46-3.85,.35-4.36,2.42-.33,1.84,.36,3.09,2.09,3.76l.2-.94c-1.24-.54-1.76-1.36-1.55-2.46,.32-1.53,1.4-2.13,3.24-1.8,.56,.1,.94,.22,1.44,.5,.95,.54,1.33,1.37,1.15,2.5-.25,1.08-.87,1.64-1.86,1.68-.02,0-.03,0-.04,0l-.2,.94h0c.07,0,.14,0,.21,0,0,0,.01,0,.02,0,1.4-.03,2.29-.85,2.68-2.45,.31-1.93-.45-3.24-2.29-3.94-.21-.08-.36-.13-.56-.19h0Zm106.9,45.4c.86-.16,1.56-.72,2.11-1.69,.82-1.67,.5-3.07-.98-4.2l-.45,.85c1.04,.86,1.32,1.8,.82,2.8-.38,.71-.88,1.14-1.51,1.26h0c-.64,.12-1.4-.05-2.29-.53-.3-.17-.57-.36-.79-.55h0c-.98-.83-1.21-1.82-.68-2.96,.2-.36,.43-.63,.68-.83h0c.45-.34,.98-.42,1.6-.26l.45-.85c-.77-.25-1.45-.23-2.05,.07h0c-.54,.27-1.01,.76-1.42,1.47-.87,1.87-.4,3.41,1.42,4.63h0c.11,.07,.22,.15,.34,.22,1.04,.53,1.95,.72,2.74,.57h0Zm-12.56-71.74l1.99,1.99,.71-.68,7.37,9.08-.67,.46,1.52,2.52,1.74-1.19-1.1-1.57,.61-.61-1.77-2.6-.76,.89-1.39-1.65,.15-1.65-2.16-2.48-.2,1.38-.9-1.03,.1-1.47-2.03-2.03-.16,1.18-1.62-1.78-1.42,1.25h0ZM68.22,3.77l-.52,5.8c-.06,.75-.67,1.01-1.31,1.14l.06,.6c1.27-.16,2.08-.16,3.21-1.31,.39-1.65,.37-2.79,.54-4.89l5.32,.81c-.02,.31-.07,.47-.11,.77l-4.69-.75-.07,.74,4.66,.72c-.03,.27-.08,.45-.14,.76l-4.23-.56-.23,2.04,2.23,.26,.13-1.13,1.82,.25c-1.29,1.76-3.18,2.12-5.51,2.37l-.08,.66c1.9,.16,3.91,.58,6.53-1.02,1.79,2.02,3.84,2.66,6.39,3.25l.16-.93c-2.53-.44-4.69-1.43-5.17-3.92l2.53,.38-.22,1.5,2.42,.39,.38-2.29-5.03-.93c.05-.31,.05-.47,.1-.76l5.99,1.11,.16-.7-6.04-1.16c.04-.24,.06-.48,.12-.73,1.24,.24,3.69,.71,6.33,1.34,.17-.73,.13-.57,.21-.9-5.17-1.33-10.29-2.19-15.9-2.95h0Zm38.49,20.82l-.73,.55,3.1,3.74-1.02,.15-.58,.07-4.66-5.29-.68,.51,4.71,5.19c-.22,.19-.84,.31-1.03,.09l-2.21-2.53-.77,.6,4.05,4.78c.34,.41,.73,.46,1.05,.27l.97-.57,3.7,4.68,.73-.44-3.63-4.52,.29-.34,1.13,.32,1.2-.21-5.64-7.07h0Zm-19.31-14.26l-.52,.94,6.04,3.24c-2.1,.72-3.38,.27-8.17,.38-.09,0-.03,.38,.13,.44,5.18,1.57,5.84,1.17,8.49,1.32,1.14,2.28,3.8,5.44,5.89,7.26l.95-.79c-2.17-1.9-4.05-4.9-4.47-6.91l5.19,3.76,.69-.84-5.51-3.87,1.21-1.77-2.44-1.57-1.36,1.73-6.13-3.33h0ZM23.38,20.7c-1.67,1.88-3.34,3.77-5.01,5.65l-1.21-.97-1.82,2.15,1.22,.98c-1.5,1.83-3,3.65-4.46,5.52h0c1.35,1.05,2.72,2.09,4.07,3.14,1.45-1.83,2.91-3.65,4.36-5.48,.49,.39,.97,.78,1.46,1.18l1.81-2.15-1.46-1.18,4-4.62c.82-.95,.8-.97,.31-1.4l-3.26-2.83h0Zm-4.01,6.46l1.78,1.43c.97-1.11,1.95-2.22,2.92-3.33,.11-.13,.06-.15-.05-.24l-1.72-1.43c-.98,1.19-1.96,2.38-2.94,3.57h0ZM52.16,12.55v.32h.06c-.02-.12-.04-.22-.06-.32h0Zm-11.42-5.03c-5.25,2.83-10.36,5.8-15.3,9.16h0c1.66,2.16,3.58,4.68,5.24,6.84,1.88-1.18,3.76-2.36,5.65-3.53,2.94-1.83,5.73-3.56,8.21-5.08l-3.79-7.38h0Zm.54,7.61c.34-.21,.32-.18,.19-.42-.84-1.54-1.68-3.09-2.51-4.63-3.45,1.91-6.91,3.85-10.16,6.09l3.25,4.62c3.08-1.89,6.15-3.78,9.23-5.67h0Zm-10.95,1.97l2.8-1.71,.37,.59-2.76,1.7,.59,.84,2.82-1.73,.44,.66-2.81,1.73,.54,.76c2.49-1.54,6.06-3.71,8.4-5.16l-.51-.78c-.34,.21-.85,.53-1.14,.7-.04,.03,0-1.03-.04-1-.33,.16-.31,.1-.73,.3,.02,.12,.13,1.1,.06,1.14-.28,.17-.37,.23-.62,.39l-.43-.66,2.6-1.58-.52-.9-2.52,1.54-.41-.57,2.6-1.6-.49-.87-8.81,5.4,.57,.82h0Zm28.5,89.61h-.89c-.13,.33-.36,.63-.69,.87-.34,.25-.65,.42-.94,.51v.95c.55-.17,1.02-.44,1.42-.79v3.96h1.1v-5.5h0Zm21.8-65c1.48,.52,2.86,1.11,4.15,1.77,.84,.43,1.65,.89,2.41,1.38,.3,.19,.6,.39,.9,.59,.54,.35,.04,.87-.87,.8h-.02c-.79-.06-1.6-.12-2.41-.18-1.38-.09-2.78-.17-4.15-.22-2.03-.08-4.01-.1-5.79-.04-4.62,.15-7.99,.87-7.81,2.67l-.03,6.27v5.35l17.72,2.5,11.52,1.62h.38c-.2-5.65-1.85-10.93-4.6-15.47-.14-.23-.28-.46-.42-.68-1.34-2.09-2.91-4.02-4.68-5.75l-.03-.03c-.1-.1-.21-.2-.31-.3l-.07-.07c-.09-.08-.18-.17-.27-.25-.04-.03-.07-.07-.11-.1-5.72-5.22-13.34-8.4-21.69-8.4s-15.97,3.18-21.69,8.4c-.04,.03-.07,.07-.11,.1-.09,.08-.18,.17-.27,.25-.13,.12-.26,.24-.39,.37-1.79,1.74-3.37,3.68-4.71,5.78-.13,.21-.26,.41-.39,.62-2.86,4.72-4.44,10.02-4.63,15.53h.38l11.52-1.62,17.72-2.5v-1.23l-.05-10.55c.06-2.46-5.07-2.7-13.13-2.58-.31,0-3.58,.07-3.58,.07h-.16s-.28-4.59-.28-4.59c1.33-.26,2.68-.49,4.02-.7,10.63-1.7,19.23-1.69,26.17-.36,2.08,.4,4.01,.92,5.79,1.54h0Zm-19.59,70.25h0c.28,.23,.64,.34,1.09,.34,.62,0,1.13-.22,1.52-.66,.39-.44,.58-1.17,.58-2.17s-.19-1.69-.56-2.12c-.37-.43-.85-.64-1.44-.64-.54,0-.98,.17-1.32,.51-.35,.34-.52,.79-.52,1.34s.16,.96,.49,1.3c.33,.33,.72,.5,1.17,.5,.42,0,.76-.15,1.04-.46-.04,.63-.15,1.04-.31,1.24-.16,.2-.35,.3-.58,.3-.18,0-.33-.05-.43-.15-.11-.1-.18-.25-.2-.46l-1.07,.11c.08,.45,.26,.8,.53,1.02h0Zm1.74-2.62c.14-.16,.22-.39,.22-.7,0-.34-.08-.6-.24-.78-.16-.19-.35-.28-.56-.28s-.37,.08-.51,.23c-.14,.15-.2,.4-.2,.75s.07,.61,.22,.77c.15,.16,.33,.25,.55,.25s.39-.08,.53-.24h0Zm2.79,2.55h0c.33,.27,.77,.41,1.3,.41,.66,0,1.18-.24,1.56-.72,.27-.35,.41-.76,.41-1.21,0-.54-.17-.98-.51-1.32-.34-.34-.75-.51-1.24-.51-.26,0-.51,.06-.75,.17l.17-.93h2.07v-.98h-2.91l-.57,2.85,.89,.12c.25-.27,.53-.4,.85-.4,.25,0,.46,.08,.62,.25,.16,.17,.24,.42,.24,.76,0,.36-.08,.63-.24,.81-.16,.18-.35,.27-.58,.27-.2,0-.38-.07-.53-.21-.15-.14-.25-.33-.28-.56l-1.1,.11c.07,.46,.27,.82,.6,1.1h0Zm5.39-.66h0c.06-.09,.13-.19,.23-.29,.09-.1,.31-.3,.66-.6,.35-.3,.59-.54,.73-.7,.2-.24,.35-.48,.44-.7,.09-.22,.14-.46,.14-.7,0-.43-.16-.79-.49-1.09-.32-.29-.77-.44-1.34-.44-.52,0-.95,.13-1.3,.38-.35,.25-.55,.67-.62,1.25l1.1,.1c.02-.31,.1-.53,.24-.66,.14-.13,.32-.2,.55-.2s.42,.06,.55,.19c.13,.13,.2,.31,.2,.54,0,.21-.08,.42-.23,.64-.11,.16-.42,.46-.91,.9-.62,.55-1.03,.98-1.24,1.31-.21,.33-.34,.68-.38,1.05h3.87v-.98h-2.2ZM52.16,7.44l.1,.66,.54-.09c.28,2.39,.18,1.91,.48,4.31,2.62-.32,9.58-.96,11-1.04l-.15-1.91-2.83,.25,.07,.86-5.61,.55c-.09-.78-.3-2.88-.36-3.43l1.68-.26,.2,1.86,2.56-.24-.19-2.03,1.72-.26c.02,.26,.07,.82,.06,.82l-.56,.1,.12,1.12c1.47-.13,1.92-.15,3-.22-.04-1.31-.19-2.81-.24-3.24l-4.24,.67-.17-2.43-2.66,.12,.28,2.71-1.68,.25-.1-.96-2.62,.25,.12,1.11-.54,.08v.38h0Zm-6.89,.93h0l.24,.87,1.68-.36,.78,3.89-1.2,.25,.18,.88c1.72-.33,3.49-.73,5.21-1.03v-.32c-.04-.2-.08-.37-.11-.6l-1.4,.28-.78-3.97,1.26-.23-.17-.87-1.28,.24-.34-2.03-2.82,.46,.45,2.11-1.71,.41h0Zm6.89-1.31h-.05s.05,.38,.05,.38v-.38h0ZM17.04,33.78c.81-.98,1.62-1.96,2.42-2.93l-1.88-1.51c-.1,.12-.19,.24-.29,.36h0c-.72,.88-1.47,1.76-2.17,2.65l1.91,1.43h0Zm99.47,51.6l4.18,1.7,.37-.93-4.55-1.85h0l-2.19-.89-.37,.93,2.56,1.04h0Zm0-3.18l5.49,1.59,1.48-5.2-.84-.24-1.2,4.23-2.33-.67,1.09-3.85-.84-.24-1.09,3.85-1.76-.51h0l-.41-.12,.41-1.44h0l.77-2.71-.77-.22h-.03s-1.45,5.11-1.45,5.11l1.48,.43h0Zm0-29.92c.42,1.38,1.3,1.97,2.62,1.76,.85-.18,1.32-.81,1.39-1.89v-1.56c-.04-1.19,.28-1.81,.95-1.84,.78-.14,1.32,.41,1.61,1.66,.24,1.29-.18,2.06-1.26,2.32l.2,.94c.81-.15,1.35-.52,1.63-1.13,.33-.51,.38-1.27,.17-2.29-.44-1.84-1.32-2.64-2.65-2.38-1.03,.22-1.57,.89-1.6,2.02l-.04,2.14c.04,.59-.19,.94-.71,1.05-.8,.17-1.33-.27-1.58-1.34-.19-1.16,.16-1.86,1.06-2.11l-.19-.9c-.8,.2-1.33,.61-1.59,1.22h0c-.23,.53-.25,1.21-.08,2.05,.02,.1,.05,.19,.08,.28h0Zm6.79,19.31l-6.32,2.82-.17,1.19,7.19,1.02,.13-.95-5.81-.83v-.04s6.33-2.86,6.33-2.86l.16-1.11-7.19-1.02-.13,.95,5.81,.82h0Zm-3.16-9.3h0c-1.52,.21-2.33,1.19-2.44,2.92,.03,2.19,1.26,3.38,3.69,3.58,2.43,.03,3.73-1.02,3.88-3.15,.01-1.87-.89-2.98-2.7-3.34l-.03,.96c1.31,.31,1.96,1.03,1.95,2.15-.05,1.63-1.09,2.41-3.1,2.33-1.87-.12-2.82-.95-2.85-2.5,.07-1.12,.59-1.78,1.58-1.99l.03-.96h0Zm3.56-7.2l.53,4.37-2.4,.3-.48-3.97-.87,.11,.48,3.97-2.24,.28-.52-4.29-.83,.1,.64,5.29,7.21-.89-.65-5.37-.87,.11h0Zm-10.27,44.94c.39-.25,.78-.67,1.16-1.26,.98-1.62,.91-2.81-.21-3.57-.32-.21-.64-.33-.95-.37h0c-.55-.06-1.08,.16-1.6,.65l-1.52,1.49c-.39,.45-.8,.53-1.24,.24-.24-.16-.4-.34-.49-.55h0c-.1-.25-.1-.54,0-.87h0c.06-.2,.17-.42,.31-.65,.68-.96,1.42-1.2,2.23-.74l.5-.77c-1.13-.69-2.14-.51-3.03,.53h0c-.15,.17-.29,.37-.44,.59-.82,1.38-.68,2.49,.44,3.34h0l.05,.03c.73,.48,1.5,.36,2.31-.35l1.09-1.1c.54-.58,1.01-.86,1.41-.86h0c.2,0,.38,.08,.55,.23,.65,.46,.64,1.23-.03,2.32-.17,.25-.34,.46-.52,.62h0c-.6,.53-1.26,.58-1.99,.12l-.52,.81c.67,.47,1.32,.59,1.94,.36,.19-.04,.38-.12,.56-.24h0Zm-4.85,5.91c.32-.2,.64-.47,.95-.81,1.38-1.73,1.21-3.44-.5-5.16-.15-.12-.3-.23-.45-.33h0c-1.37-.91-2.63-1.03-3.76-.36h0c-.35,.2-.68,.48-1.01,.83-1.43,1.75-1.25,3.5,.56,5.27,.15,.11,.3,.22,.45,.32h0c1.36,.88,2.61,.96,3.76,.24h0Zm0-5.01c-.06-.07-.13-.13-.19-.2-1.34-1.05-2.53-1.18-3.56-.4h0c-.13,.1-.26,.21-.38,.34-.94,1.21-.81,2.44,.38,3.7h0c.07,.08,.15,.15,.23,.23,1.32,1.06,2.49,1.17,3.53,.34h0c.12-.1,.24-.21,.36-.33,.91-1.21,.79-2.44-.36-3.68h0Zm-3.76,8.75l1-.85-.56-.67-.44,.37h0l-2.9,2.46-1.56-1.87,3.04-2.57-.56-.67-3.04,2.57-1.33-1.6h0l-.13-.15,.13-.11h0l3.16-2.67-.53-.64-2.62,2.22h0l-1.42,1.2,1.42,1.71h0l3.25,3.9,3.1-2.63h0Zm-6.35,4.61h0c.1-.23,.16-.46,.2-.71l.69,.65,.54-.34-1.42-2.3h0l-.64-1.03-2.69,1.7,.44,.71,1.88-1.19c.49,.73,.62,1.42,.39,2.07-.19,.5-.53,.9-1.03,1.21-1.37,.86-2.58,.43-3.65-1.29-.93-1.65-.78-2.92,.44-3.82,1.02-.61,1.91-.56,2.67,.16l.81-.51c-1.01-1.13-2.3-1.25-3.89-.38-1.74,1.22-2.05,2.91-.93,5.07,.66,1.12,1.53,1.79,2.6,2,.72,.15,1.49-.04,2.32-.56,.61-.41,1.04-.89,1.27-1.44h0Zm-23.53,10.01c.19,0,.39-.02,.59-.04,2.16-.43,3.12-1.85,2.9-4.27-.49-2.22-1.66-3.33-3.49-3.32h0c-.19,0-.39,.01-.6,.04-2.21,.41-3.19,1.87-2.93,4.4,.48,2.16,1.66,3.22,3.52,3.2h0Zm0-.81c.15,0,.3,0,.47-.02,1.55-.36,2.23-1.46,2.05-3.33-.36-1.69-1.2-2.56-2.51-2.62h0c-.15,0-.3,0-.46,.01-1.58,.33-2.26,1.47-2.04,3.41,.34,1.67,1.17,2.52,2.5,2.55h0Zm5.84-4.02h0l3.39-1.11-.27-.84-3.39,1.11-.7-2.17,3.85-1.26-.26-.8-4.79,1.57,2.24,6.97,.94-.31-1.02-3.16h0Zm-40.45-1.94c-.73,1.63,.29,2.79,1.76,3.41,1.75,.69,2.9,.42,3.45-.83,.41-.98,.17-1.81-.72-2.49l-1.71-1.26c-.5-.3-.65-.7-.45-1.19,.32-.76,.98-.94,1.99-.54,1.05,.51,1.42,1.2,1.11,2.08l.84,.36c.55-1.45-.01-2.53-1.69-3.25-1.51-.59-2.57-.23-3.21,1.06-.34,.81-.09,1.56,.74,2.23l1.26,.89c.99,.65,1.31,1.27,.95,1.84-.34,.73-1.09,.85-2.27,.38-1.18-.54-1.57-1.33-1.16-2.37l-.88-.37v.03h-.01Zm0-3.31h0c.33-.65,.33-1.24,0-1.77h0c-.24-.38-.64-.73-1.22-1.05l-1.62-.91h0l-1.33-.74c-1.17,2.14-2.35,4.27-3.52,6.41l.87,.49c.51-.92,1.01-1.85,1.52-2.77l2.08,1.16c.15,.08,.27,.17,.38,.27h0c.45,.41,.49,.92,.13,1.53-.05,.09-.09,.17-.13,.26h0c-.32,.65-.53,1.13-.62,1.43l.62,.34h0l.46,.26,.08-.14c-.18-.22-.17-.49,.03-.81l.56-1.19c.37-.68,.34-1.23-.09-1.65,.78,0,1.37-.34,1.75-1.04,.01-.03,.03-.05,.04-.08h0Zm9.61,1.61h0l-.95-.29-2.12,7.01,.95,.29,2.12-7.01h0Zm1,1.14l2.41,.52-1.34,6.35,.93,.2,1.34-6.35,2.41,.52,.17-.82-5.74-1.23-.17,.82h0Zm9.49,5.11l3.17-4.05-1.14-.12-2.46,3.28-1.69-3.72-1.14-.12,2.27,4.63-.31,2.95,.99,.1,.31-2.95h0Zm-22.94-10.67h0l-.85-.47-1.21,2.2,2.01,1.13,.04,.02h0c.83,.45,1.45,.31,1.85-.43,.4-.72,.21-1.3-.55-1.73l-1.31-.73h0Zm-2.83-1.65l.5-.67c-1.4-1.07-2.81-2.14-4.21-3.21-1.46,1.95-2.91,3.9-4.37,5.85,1.43,1.08,2.85,2.17,4.28,3.25l.52-.7c-1.16-.88-2.32-1.77-3.48-2.65,.49-.65,.97-1.3,1.45-1.95l3.17,2.41,.53-.7-3.17-2.41,1.36-1.82c1.14,.87,2.28,1.73,3.42,2.6h0Zm-11.49-1c2.34-1.09,4.68-2.19,7.01-3.28l-.79-.79c-1.95,.97-3.91,1.94-5.86,2.92l2.92-5.89-.79-.79c-1.08,2.36-2.17,4.72-3.25,7.08,.25,.25,.5,.51,.76,.76h0Zm1.56-8.93l-.66-.74c-1.8,1.63-3.6,3.27-5.4,4.9l.66,.74c1.8-1.63,3.6-3.27,5.4-4.9h0Zm-7.71,2.33c1.93-1.47,3.87-2.93,5.8-4.41-.19-.26-.38-.51-.57-.77-1.56,1.19-3.13,2.38-4.69,3.57l2.49-6.51-.72-.96c-1.93,1.47-3.87,2.94-5.8,4.41l.57,.77c1.56-1.19,3.13-2.38,4.69-3.57l.02,.03-2.47,6.54,.67,.9h0Zm-2.35-7.91c1.38-.74,2.76-1.48,4.14-2.22l-.47-.88c-1.34,.72-2.69,1.44-4.03,2.16-1.17,.63-2.07,.37-2.7-.77-.53-1.07-.22-1.94,.93-2.59,1.34-.72,2.69-1.44,4.03-2.16-.16-.29-.31-.59-.47-.88l-4.27,2.29c-1.41,.85-1.72,2.07-.94,3.68,.94,1.67,2.2,2.13,3.78,1.37h0Zm-8.42-12.94c2.14-1.45,4.27-2.89,6.41-4.34l-.27-1.09c-2.57-.3-5.14-.6-7.71-.91l.24,.97,2.22,.22,.71,2.87-1.87,1.21,.26,1.05h0Zm5.23-4.66v-.04c-1.14-.11-2.27-.23-3.41-.34l.55,2.21c.95-.61,1.91-1.22,2.86-1.83h0Zm-6.96-3.32c2.41-.26,4.81-.51,7.22-.77l-.1-.96c-1.95,.21-3.89,.41-5.84,.62,1.82-1.43,3.64-2.86,5.46-4.29l-.12-1.19c-2.41,.26-4.81,.51-7.22,.77l.1,.96c1.95-.21,3.89-.43,5.84-.62v.04c-1.81,1.45-3.63,2.88-5.45,4.32l.12,1.11h0Zm6.58-9.22H3.83v1h7.26v-1h0Zm-7.33-2.52c2.41,.26,4.81,.51,7.22,.77l.1-1c-.99-.11-1.97-.21-2.96-.31l.4-3.82c.99,.11,1.97,.21,2.96,.32l.1-1c-2.41-.25-4.81-.51-7.22-.77l-.1,1,3.35,.36-.4,3.82-3.35-.35-.1,.99h0Zm92.29,4.42l-11.34,1.6-17.72,2.5v25.05c0,.53-.43,.97-.97,.97h-3.21c-.53,0-.97-.44-.97-.97v-25.05l-17.72-2.5-11.34-1.6h-.58c.11,5.72,1.71,11.08,4.42,15.7h0s.05,.08,.07,.12c.11,.18,.22,.36,.33,.54l.06,.1c.12,.19,.24,.38,.36,.57l.04,.06c1.52,2.31,3.34,4.41,5.39,6.26l.07,.06c.08,.07,.17,.15,.25,.22,.06,.06,.13,.11,.19,.17,.04,.03,.07,.06,.11,.09,.21,.18,.43,.36,.65,.54h0c5.53,4.48,12.58,7.17,20.26,7.17s14.73-2.69,20.26-7.17h0c.22-.18,.45-.37,.66-.55,.03-.02,.06-.05,.09-.07,.07-.06,.13-.12,.2-.17,.08-.07,.16-.14,.24-.22l.08-.07c2.05-1.84,3.86-3.94,5.38-6.25l.04-.07c.12-.19,.24-.38,.36-.57l.06-.1c.11-.18,.22-.36,.33-.54,.02-.04,.05-.08,.07-.12h0c2.72-4.62,4.32-9.97,4.42-15.7h-.58Zm-29.05-.9h27.38l-13.69-1.77-13.69-1.77v3.54h0Zm-5.15,3.54v-3.54h-27.38l13.69,1.77,13.69,1.77h0Zm25.55-28.29c2.1,1.93,3.96,4.12,5.52,6.52,1.95-.79,3.86-1.65,5.73-2.59-3.7-9.28-9.88-16.83-17.49-21.37-1.59,.57-3.21,1.05-4.87,1.46,4.55,3.57,8.39,9.13,11.11,15.98h0Zm-34.84-15.98c-1.66-.41-3.28-.89-4.87-1.46-7.61,4.55-13.79,12.09-17.49,21.37,1.87,.94,3.78,1.8,5.73,2.59,1.56-2.4,3.42-4.59,5.52-6.52,2.72-6.85,6.56-12.41,11.11-15.98h0Zm32.77-5.12c-6.35-2.95-13.43-4.59-20.9-4.59s-14.54,1.65-20.9,4.59c6.53,3.16,13.66,4.78,20.9,4.78s14.4-1.63,20.9-4.78h0Zm.72,72.36c-2.58,5.43-5.92,9.86-9.76,12.87,1.66,.4,3.28,.89,4.87,1.46,7.16-4.27,13.05-11.2,16.81-19.73-1.64-.83-3.32-1.6-5.03-2.31-1.89,2.91-4.22,5.51-6.88,7.71h0Zm-21.62,13.22c-7.24,0-14.36,1.61-20.89,4.77,6.35,2.94,13.43,4.59,20.89,4.59s14.54-1.64,20.89-4.59c-6.5-3.15-13.64-4.77-20.89-4.77h0Zm9.6-.85c3.37-2.29,6.39-5.74,8.87-10.07-5.14,3.34-11.24,5.32-17.8,5.45,.07,0,.15,0,.22,0v3.71c2.98,.05,5.89,.37,8.71,.92h0Zm-8.98-4.62c-.1,0-.19,0-.29,0,.1,0,.19,0,.29,0h0Zm-.31,0c-.1,0-.2,0-.3,0,.1,0,.2,0,.3,0h0Zm-.3,0c-.1,0-.2,0-.3,0,.1,0,.2,0,.3,0h0Zm-.33,0c-.1,0-.19,0-.29,0,.1,0,.19,0,.29,0h0Zm-.33,0c-6.56-.13-12.66-2.11-17.8-5.45,2.48,4.32,5.49,7.78,8.87,10.07,2.83-.55,5.74-.87,8.71-.92v-3.71c.07,0,.15,0,.22,0h0Zm-11.19,5.12c-3.84-3.01-7.18-7.44-9.76-12.87-2.67-2.2-4.99-4.8-6.88-7.71-1.71,.71-3.39,1.48-5.03,2.31,3.76,8.53,9.65,15.46,16.81,19.73,1.59-.57,3.21-1.05,4.87-1.46h0Zm47.66-61.01c2.45-1.3,4.82-2.73,7.1-4.29-4.74-8.05-11.69-14.64-20-18.96-1.33,.69-2.7,1.32-4.09,1.89,7.36,4.77,13.33,12.26,17,21.35h0ZM45.62,22.12c-1.4-.57-2.76-1.2-4.09-1.89-8.32,4.32-15.26,10.91-20,18.96,2.28,1.55,4.65,2.98,7.1,4.29,3.66-9.09,9.64-16.58,17-21.35h0Zm55.24,23.02c2.13,5.85,3.32,12.3,3.34,19.09h9.98c-.03-8.51-2.2-16.51-5.99-23.5-2.36,1.6-4.8,3.07-7.33,4.41h0Zm3.32,20.86c-.19,6.93-1.59,13.49-3.96,19.38,2.45,1.3,4.82,2.73,7.1,4.28,4.12-6.98,6.58-15.04,6.85-23.66h-9.98Zm-4.66,21.02c-3.7,8.35-9.39,15.23-16.31,19.71,1.4,.57,2.76,1.2,4.09,1.89,7.79-4.04,14.38-10.08,19.08-17.44-2.21-1.5-4.5-2.89-6.86-4.16h0Zm-.88-2.45c2.25-5.64,3.58-11.93,3.77-18.56h-4.01c-.11,5.96-1.74,11.54-4.54,16.37,1.62,.68,3.22,1.41,4.78,2.2h0Zm3.79-20.34c-.02-6.5-1.14-12.68-3.15-18.28-1.77,.88-3.57,1.7-5.42,2.45,2.71,4.68,4.33,10.07,4.52,15.83h4.05Zm-56.8,42.5c-6.92-4.48-12.61-11.36-16.31-19.71-2.37,1.27-4.66,2.65-6.86,4.16,4.7,7.36,11.29,13.4,19.08,17.44,1.33-.69,2.7-1.32,4.09-1.89h0Zm-17-21.35c-2.37-5.89-3.78-12.45-3.96-19.38H14.68c.27,8.62,2.73,16.69,6.85,23.66,2.28-1.55,4.65-2.98,7.1-4.28h0Zm-3.98-21.15c.02-6.79,1.21-13.25,3.34-19.09-2.53-1.34-4.98-2.81-7.33-4.41-3.79,6.99-5.96,14.99-5.99,23.5h9.98Zm4.93-18.28c-2.01,5.6-3.13,11.78-3.16,18.28h4.05c.19-5.75,1.82-11.14,4.52-15.83-1.84-.75-3.65-1.57-5.42-2.45h0Zm-3.13,20.05c.18,6.64,1.52,12.92,3.77,18.56,1.56-.79,3.16-1.52,4.78-2.2-2.79-4.83-4.43-10.41-4.54-16.37h-4.01Zm82.34,24.68c4.01-6.76,6.52-14.52,7.07-22.81,.14-2.17,.16-4.27,.03-6.46-.45-7.83-2.65-15.19-6.21-21.7h0c-.09-.16-.18-.32-.26-.48-4.8-8.56-11.97-15.6-20.63-20.25-.19-.1-.38-.2-.58-.3-.27-.14-.54-.28-.81-.41h-.03s-.03-.03-.03-.03h-.03c-6.89-3.44-14.66-5.36-22.88-5.36s-15.98,1.93-22.88,5.35h0s-.14,.07-.14,.07c-.23,.11-.45,.23-.68,.34-.21,.11-.43,.22-.64,.34-.11,.06-.23,.12-.34,.18l-.08,.05h0c-8.11,4.45-14.89,11.02-19.6,18.96h0s-.09,.15-.09,.15c-.04,.08-.09,.15-.13,.23-.23,.39-.45,.78-.66,1.17h0c-3.94,7.21-6.22,15.46-6.3,24.23,0,.82,0,1.61,.03,2.41,.33,8.86,2.89,17.15,7.15,24.32h0c.3,.51,.61,1.02,.93,1.52h0c4.66,7.26,11.08,13.28,18.67,17.44h0c.14,.08,.28,.16,.43,.23,.13,.07,.26,.14,.39,.2,.18,.09,.36,.19,.54,.28,7.02,3.58,14.97,5.61,23.4,5.61s16.38-2.02,23.4-5.61c.18-.09,.36-.18,.53-.27,.13-.07,.26-.14,.39-.21,.14-.08,.28-.15,.42-.23h0c7.59-4.16,14.02-10.18,18.67-17.44h0c.32-.5,.63-1,.93-1.51h0ZM64.42,1.93C29.91,1.93,1.93,29.91,1.93,64.42s27.98,62.49,62.49,62.49,62.49-27.98,62.49-62.49S98.94,1.93,64.42,1.93Z"/>
</svg>