<?xml version="1.0" encoding="UTF-8"?>
<svg id="_图层_1" data-name="图层 1" xmlns="http://www.w3.org/2000/svg" viewBox="0 0 357.17 85.04">
  <defs>
    <style>
      .cls-1 {
        font-size: 24px;
      }

      .cls-1, .cls-2, .cls-3 {
        fill: #3072ba;
      }

      .cls-1, .cls-3 {
        font-family: PingFangSC-Regular-GBpc-EUC-H, 'PingFang SC';
      }

      .cls-3 {
        font-size: 12px;
      }
    </style>
  </defs>
  <path class="cls-2" d="M27.6,30.24c-.14,.12-.23,.24-.28,.32-.11,.16-.16,.29-.23,.48-.06,.17-.11,.29-.14,.46-.01,.08-.04,.21-.02,.38,0,.08,.02,.21,.11,.46,.08,.22,.13,.31,.24,.55,.08,.19,.05,.13,.25,.62,.09,.22,.21,.43,.31,.73,0,0,.07,.17,.23,.56,.06,.15,.09,.23,.12,.35,.03,.14,.03,.2,.05,.37,.02,.12,.04,.26,.08,.42,.04,.14,.06,.18,.11,.34,.04,.11,.11,.32,.16,.55,.06,.29,.08,.54,.09,.67,.01,.18,0,.25,.03,.43,.01,.11,.03,.16,.05,.33,.01,.12,.02,.22,.03,.27,.02,.24,.01,.43,0,.55,0,.29,0,.5,0,.88,0,.2,0,.5,.01,.84,0,.04,0,.04,0,.07,0,.26,0,.39,0,.57,0,.13-.01,.17-.03,.22-.02,.04-.04,.07-.06,.13-.02,.06-.01,.06-.03,.11-.03,.07-.05,.08-.08,.14-.02,.05-.01,.06-.02,.11-.03,.11-.08,.12-.14,.26-.04,.09-.05,.15-.05,.18,0,.01-.01,.12,.02,.18,.02,.03,.03,.05,.03,.05,.02,.03,.02,.03,.03,.04,0,.01,.01,.04,.01,.06,0,.01,0,.03-.02,.06-.02,.04-.05,.06-.06,.08-.03,.03-.04,.07-.07,.14-.02,.07-.02,.13-.03,.18,0,.02,0,.03,0,.07,0,.1,0,.11,0,.22,0,0,0,.08,0,.21,0,.02,0,.04,0,.04,0,.05,0,.15,.04,.25,.02,.07,.04,.06,.05,.13,.02,.06,.02,.11,.02,.14,0,.11,.01,.21,0,.32,0,.03,0,.15,0,.4,0,.28,.01,.42,.01,.48,0,0,.01,.17,0,.41,0,.04,0,.09-.03,.15-.02,.07-.05,.08-.07,.14-.02,.05-.02,.08-.02,.23,0,.17,0,.11,0,.25,0,.22,0,.26,.01,.3,.01,.08,.03,.08,.04,.15,.01,.09,0,.16-.01,.26,0,.06-.01,.11-.03,.18-.01,.04-.02,.05-.04,.13-.02,.07-.03,.11-.04,.15-.01,.06-.01,.1-.02,.16,0,.09,0,.1,0,.17,0,.1-.02,.17-.03,.25-.02,.1-.03,.11-.04,.19,0,.05,0,.07-.01,.16,0,.09,0,.1-.02,.23-.02,.26-.03,.4-.04,.47,0,0,0,.18-.01,.35,0,0,0,.01,0,.03,0,.01,0,.04-.01,.1,0,.02,0,.04-.01,.06,0,.05-.01,.06-.02,.08,0,.01-.02,.02-.03,.03-.03,.03-.03,.06-.04,.17,0,.04,0,0-.02,.12,0,.03,0,.06-.03,.09,0,0-.01,.02-.02,.04-.01,.02-.01,.02-.02,.03-.02,.03-.03,.07-.03,.08,0,.02,0,.03,0,.08,0,.03,0,.06,0,.09,0,.09,0,.13-.02,.18,0,.03-.01,.04-.04,.11-.03,.07-.05,.14-.08,.21-.07,.18-.05,.18-.1,.32-.04,.1-.06,.16-.1,.21-.03,.05-.06,.07-.09,.12,0,.02-.03,.07-.05,.15-.01,.07-.01,.11-.01,.23,0,.09,0,.17,0,.26,0,.18,0,.22,0,.28,0,.05,.01,.1,.03,.16,.02,.07,.04,.09,.06,.15,.02,.07,.02,.12,.03,.19,0,.26,0,.39,0,.43-.01,.34-.03,.24-.03,.43,0,.1,0,.2-.05,.3-.02,.03-.05,.08-.1,.11-.05,.03-.07,.01-.13,.04-.06,.03-.1,.07-.11,.09-.04,.05-.05,.09-.08,.16-.01,.04-.03,.09-.05,.16-.01,.05-.03,.16-.03,.3,0,.09,0,.13,.02,.18,.02,.06,.06,.11,.14,.19,0,0,.11,.12,.24,.23,.03,.02,.06,.05,.11,.08,.03,.02,.05,.03,.08,.04,.06,.02,.08,0,.13,.02,.05,.02,.04,.04,.09,.08,.08,.06,.13,0,.23,.06,.01,0,.05,.05,.13,.13,.09,.09,.09,.1,.12,.11,.02,.01,.03,0,.18,.03,.1,.01,.15,.02,.2,.05,0,0,.03,.02,.05,.03,.04,.02,.07,.04,.08,.04,.07,.04,.15,.02,.25,.04,.06,.02,.09,.04,.16,.09,.13,.09,.12,.15,.23,.24,.01,0,.05,.04,.06,.08,0,.01,.01,.03,0,.06,0,.03-.03,.04-.05,.07-.04,.04-.05,.09-.06,.11-.02,.05-.01,.1-.01,.13,0,.03,0,.09,.04,.15,.03,.05,.04,.04,.11,.14,.03,.04,.06,.07,.09,.12,.02,.03,.04,.07,.06,.12,.01,.04,.02,.07,.02,.11,0,.01,0,.05-.05,.13-.02,.04-.06,.1-.13,.17-.06,.06-.12,.09-.17,.11-.08,.04-.16,.06-.2,.06-.03,0-.07,.01-.22,.02-.14,.01-.21,.02-.21,.02-.39,.02-.17,.01-.62,.04-.54,.03-.95,.04-.95,.04-.52,.02-.78,.03-.95,.03,0,0-.56,0-1.22-.03-.13,0-.48-.03-.62-.04-.01,0-.02,0-.04,0-.12,0-.17,0-.27-.01-.05,0-.07,0-.09-.01-.05-.02-.09-.07-.11-.12-.07-.13-.09-.25-.09-.27-.04-.26-.06-.39-.06-.43-.03-.31-.05-.28-.07-.55-.01-.13-.02-.26-.03-.52,0-.18,0-.23-.02-.61-.01-.41-.01-.46-.02-.66,0-.32,0-.47,0-.53,0,.02,0-.1,0-.32,0-.06,0-.11-.02-.17-.03-.06-.06-.06-.08-.12-.01-.04,0-.07,0-.15,0-.04,.02-.13,.02-.21,0-.06,0-.16-.02-.27-.02-.08-.04-.08-.05-.15-.01-.08,0-.12,.03-.22,0-.04,.03-.16,.02-.3,0-.05,0-.14-.04-.24-.02-.07-.03-.09-.04-.15,0-.03,0-.05,0-.19,0-.13,0-.11,0-.13,0-.1,0-.16-.02-.23-.01-.03-.02-.06-.03-.1,0-.04,0-.07,0-.1,.02-.11,.03-.13,.04-.18,.02-.09,0-.17,0-.23-.01-.08-.03-.08-.05-.18-.03-.12-.03-.21-.03-.3,0-.09,0-.17,0-.27,.02-.11,.04-.12,.06-.22,0-.04,.02-.11,.02-.31,0-.24-.02-.25-.02-.41,0-.19,.03-.33,.04-.42,.03-.17,.05-.21,.08-.39,.02-.18,.01-.24,0-.29-.02-.07-.05-.09-.05-.17,0-.07,.01-.08,.03-.2,.01-.09,.02-.16,0-.25-.01-.07-.03-.06-.04-.13,0-.04-.02-.11,0-.2,.01-.05,.03-.07,.04-.14,0-.03,0-.05,0-.08,0-.2,0-.19,0-.2,0-.07,.01-.07,.06-.26,.03-.13,.04-.19,.05-.25,0-.09,0-.12,0-.26,0-.04,0-.08,.02-.14,.01-.05,.03-.08,.04-.1,.04-.09,.04-.17,.05-.25,0-.04,0-.03-.01-.35,0-.07,0-.15-.01-.22,0,0,0-.04,0-.08,0-.05,0-.08-.02-.11-.02-.05-.03-.04-.05-.09-.02-.04-.02-.08-.02-.14,0-.01,0-.02,0-.07,0-.04,0-.06,0-.07,0-.08,0-.18,0-.28,0-.16,0-.24-.02-.3-.02-.06-.04-.07-.06-.14-.02-.06-.03-.11-.03-.19,0-.06,0-.12,0-.32,0-.2,.01-.24-.02-.29-.02-.04-.05-.06-.07-.11-.02-.05-.03-.11-.04-.13-.01-.06,0-.06-.02-.08-.02-.05-.07-.08-.11-.1-.07-.03-.14-.05-.17-.06-.05-.01-.07-.01-.09-.03-.03-.03-.03-.09-.03-.12,.02-.24,.05-.35,.05-.35,.08-.31,.07-.3,.1-.39,.04-.14,.05-.15,.07-.24,.04-.15,.04-.27,.04-.32,.02-.74,.03-1.11,.03-1.12-.02-.48,0-.96,0-1.44,0,0,0-.71,0-1.42,0-.3,0-.4,0-.48,0,0,0-.03,0-.1,0-.06,0-.09,0-.11,.01-.04,.03-.05,.05-.08,.04-.06,.03-.13,.02-.25-.02-.13-.04-.14-.03-.21,.01-.07,.04-.09,.07-.14,.04-.07,.03-.12,.03-.32,0,0,0-.23,0-.46,0-.15,0-.19,.02-.23,.03-.12,.05-.13,.09-.26,.02-.06,.03-.14,.04-.3,.03-.22,.01-.22,.04-.29,.02-.08,.04-.1,.08-.22,.02-.06,.03-.1,.04-.15,.01-.09,0-.14,0-.21,0-.07,.02-.15,.07-.29,.05-.16,.11-.28,.13-.32,.06-.14,.09-.18,.11-.27,.02-.09,0-.11,.02-.2,.02-.14,.08-.23,.16-.37,.08-.13,.16-.22,.26-.33,.14-.16,.21-.23,.31-.31,.1-.08,.16-.12,.22-.22,.02-.04,.07-.12,.05-.22-.02-.11-.1-.18-.22-.27-.1-.08-.2-.13-.34-.19-.09-.04-.1-.05-.33-.14-.2-.09-.3-.13-.34-.15-.12-.07-.19-.15-.33-.29-.12-.12-.22-.24-.26-.29-.08-.1-.09-.12-.16-.2-.1-.11-.12-.13-.18-.21-.03-.04-.08-.12-.13-.23-.06-.15-.07-.29-.07-.35,0-.11,0-.18,.03-.32,0-.06,.02-.12,.05-.19,.01-.03,.03-.07,.06-.11,.04-.06,.06-.06,.1-.11,.03-.03,.05-.08,.08-.15,.04-.1,.03-.1,.07-.18,.02-.05,.05-.09,.1-.18,.03-.05,.04-.07,.07-.1,.04-.04,.05-.04,.08-.07,.05-.04,.05-.08,.1-.16,0,0,.03-.05,.09-.15,.02-.03,.06-.09,.25-.26,.13-.12,.2-.18,.29-.25,.02-.02,.14-.1,.3-.19,.19-.11,.34-.17,.41-.19,.17-.06,.3-.09,.43-.13,.1-.02,.23-.05,.4-.07,.13-.02,.29-.03,.49-.02,.17,0,.28,.03,.47,.07,.3,.07,.39,.12,.43,.14,.13,.08,.19,.18,.21,.2,.05,.08,.08,.16,.1,.23,.01,.05,.02,.08,.05,.33,.02,.19,.02,.2,.03,.24,.02,.09,.04,.15,.09,.26,.06,.16,.08,.19,.1,.2,.04,.04,.09,.06,.19,.09,.15,.05,.28,.08,.28,.08,.13,.03,.18,.02,.21,.07,.04,.05,.03,.12,.02,.14,0,.07-.04,.07-.06,.14,0,.02-.02,.09,0,.15,.04,.09,.14,.08,.16,.16,0,.03,0,.04,0,.12,0,.06,.02,.08,.03,.09,.02,.03,.05,.02,.06,.05,.02,.03,.01,.07,0,.09-.01,.05-.04,.06-.05,.1-.03,.07,0,.13,.01,.17,.03,.09,.08,.09,.12,.17,0,.01,.04,.1,.01,.19-.02,.06-.07,.1-.19,.19-.13,.09-.24,.16-.26,.17-.16,.1-.25,.15-.33,.23"/>
  <path class="cls-2" d="M79.38,34.42s0,.02,.02,.04c0-.02,.02-.03,.02-.05-.02,0-.04,0-.05,0"/>
  <path class="cls-2" d="M78.36,35.52s-.04-.02-.07-.03c.12,.33,.24,.65,.35,.98,.05-.16,.1-.33,.16-.49-.02-.03-.14-.29-.44-.46"/>
  <path class="cls-2" d="M78.56,36.73s0,0,0,0c.01-.04,.02-.09,.04-.13-.01,.04-.03,.08-.04,.13"/>
  <path class="cls-2" d="M78.41,37.14c-.19-.61-.4-1.21-.64-1.82-.29-.09-.38-.1-.43-.11-.22-.03-.32-.04-.4,0-.31,.14-.28,.66-.47,.67-.08,0-.15-.07-.23-.17-.16-.19-.12-.33-.27-.44l-.37,.16c-.03,.22,.02,.52,.2,.71,.2,.21,.37,.08,1.02,.33,.32,.12,.47,.19,.63,.34,.21,.21,.21,.38,.44,.5,.14,.08,.38,.15,.48,.05,0,0,.01-.02,.02-.03,0-.04,.02-.07,.03-.11,0-.03,0-.07,0-.11"/>
  <path class="cls-2" d="M77.79,39.02c-.07-.03-.16,0-.33,.06-.09,.03-.23,.08-.34,.2-.12,.11-.17,.27-.26,.58-.08,.26-.12,.39-.12,.52-.01,.3,.07,.52-.05,.61-.02,.02-.04,.03-.08,.03-.34,.08-.61-.2-.82-.11-.16,.07-.07,.27-.32,.73-.11,.21-.14,.19-.26,.4-.2,.37-.19,.56-.31,.83-.15,.36-.27,.27-.59,.74-.17,.26-.3,.59-.55,1.24-.09,.24-.14,.37-.14,.55,0,.23,.07,.31,.12,.61,.05,.33-.01,.35,.03,.63,.06,.43,.23,.44,.34,.9,.12,.5-.02,.71,.15,.83,.04,.03,.1,.05,.16,.05l.66-.28c.1-.12,.07-.19,.23-.33,.23-.19,.39-.13,.58-.34,.09-.11,.08-.15,.19-.24,.12-.11,.24-.14,.37-.19,.16-.07,.28-.15,.52-.31,.55-.37,.72-.81,.9-.75,.08,.03,.06,.14,.16,.19,0,0,.02,0,.02,0-.17-1.13-.26-2.33-.26-3.61,0-1.02,.06-1.99,.17-2.92-.1-.32-.04-.55-.18-.62"/>
  <path class="cls-2" d="M75.2,36.36c-.09,.04-.18,.14-.15,.19,.02,.05,.16,.05,.25,0,.08-.03,.17-.11,.15-.16-.02-.06-.15-.08-.25-.04"/>
  <path class="cls-2" d="M67.05,20.77c.44,.09,.82,0,1.05-.06-.7-.3-1.41-.56-2.13-.79h0c.04,.13,.13,.32,.31,.5,.26,.26,.56,.32,.77,.36"/>
  <path class="cls-2" d="M74.49,36.74s.06,.09,.1,.07c.03-.02,.04-.07,.02-.1-.03-.03-.12,0-.13,.03"/>
  <path class="cls-2" d="M68.13,22.13s.05-.02,.05-.05c0-.03-.05-.05-.07-.04-.02,.01-.01,.08,.02,.09"/>
  <path class="cls-2" d="M71.99,33.89c.08,.07,.24-.12,.51-.08,.19,.03,.24,.14,.33,.1,.13-.05,.18-.31,.12-.52-.08-.27-.37-.44-.46-.38-.05,.04,.02,.14-.05,.25-.08,.13-.23,.08-.36,.2-.14,.13-.17,.37-.1,.43"/>
  <path class="cls-2" d="M68.03,22.4s-.03,.07,0,.09c.02,0,.05,0,.06-.02,.01-.03-.04-.07-.06-.07"/>
  <polyline class="cls-2" points="68.34 25.66 68.33 25.66 68.34 25.66"/>
  <path class="cls-2" d="M68.7,24.11c-.07-.05-.07-.03-.17-.1-.1-.08-.17-.16-.3-.2-.04-.01-.05-.01-.05,0-.04,.04,.15,.23,.27,.54,.06,.16,.1,.23,.1,.33,0,.25-.18,.42-.3,.57l.83-.36c0-.07-.05-.18-.13-.37-.11-.27-.16-.34-.24-.4"/>
  <path class="cls-2" d="M75.09,38.85s-.1,.14-.13,.26c-.03,.11-.05,.26-.01,.27,.03,0,.1-.11,.14-.23,.04-.13,.04-.29,.01-.3"/>
  <path class="cls-2" d="M72.5,37.3c0,.08,.04,.35,.24,.53,.08,.07,.09,.04,.18,.12,.26,.22,.29,.56,.39,.55,0,0,.02,0,.02-.01,.17-.12-.28-1.07-.17-1.14,.1-.06,.5,.62,.68,.55,.1-.04,.13-.31,.03-.49-.14-.26-.43-.21-.47-.39-.05-.2,.29-.35,.34-.76l-.33,.14c-.11,.14-.24,.26-.35,.24-.03,0-.06-.03-.08-.05l-.39,.17c-.02,.29-.11,.3-.08,.55"/>
  <path class="cls-2" d="M73.55,35.44s0-.09-.03-.12c-.07-.04-.22,.15-.56,.43-.29,.24-.35,.23-.4,.35-.03,.08-.03,.14-.02,.21l.36-.16c.13-.28,.63-.38,.64-.71"/>
  <path class="cls-2" d="M72.1,32.46s.02-.11,0-.17c-.03-.09-.1-.19-.13-.18-.04,.01-.04,.14,.01,.24,.03,.06,.09,.13,.12,.11"/>
  <path class="cls-2" d="M67.18,22.98c-.05,.11-.01,.23,.04,.36,.04,.11,.07,.2,.16,.25,.01,0,.13,.08,.25,.03,.09-.04,.13-.12,.18-.24,.05-.12,.09-.21,.07-.33,0-.01-.01-.06-.04-.11-.1-.06-.2-.13-.3-.19-.06,0-.12,.04-.16,.05-.06,.03-.15,.07-.2,.17"/>
  <path class="cls-2" d="M68.64,25.64s.08-.04,.07-.09c0-.02-.01-.03-.02-.05l-.1,.04s.03,.09,.05,.09"/>
  <path class="cls-2" d="M71.77,33.04s-.05-.2-.11-.19c-.03,0-.08,.08-.04,.14,.03,.07,.13,.07,.15,.05"/>
  <path class="cls-2" d="M68.5,26.21s.07-.11,.02-.17c-.04-.05-.12-.06-.14-.03-.03,.04,.08,.21,.12,.2"/>
  <path class="cls-2" d="M73.95,39.24c-.2,.01-.42,.13-.4,.2,.01,.06,.22,.09,.39,.04,.12-.04,.25-.13,.24-.18-.01-.05-.15-.06-.23-.05"/>
  <path class="cls-2" d="M71.16,32.77s.04,0,.05-.02c.02-.04-.07-.13-.1-.12s0,.13,.05,.15"/>
  <path class="cls-2" d="M74.01,39.65s.02,.04,.06,.05c.04,.01,.08,0,.08-.01,0-.02-.13-.06-.14-.04"/>
  <path class="cls-2" d="M70.02,31.96c.07,.05,.41,.31,.74,.23,.07-.02,.09-.04,.09-.05,.02-.08-.36-.12-.58-.4-.12-.16-.15-.36-.18-.52-.04-.27,.01-.39-.1-.51-.06-.07-.17-.14-.29-.11-.09,.02-.14,.1-.16,.12-.12,.18-.04,.43,.01,.58,.05,.14,.15,.43,.45,.67"/>
  <path class="cls-2" d="M65.89,22.03c-.3-.16-.76-.36-.78-.32-.02,.04,.35,.2,.89,.63,.36,.29,.57,.52,.62,.48,.04-.03-.04-.19-.1-.29-.12-.2-.3-.34-.64-.51"/>
  <path class="cls-2" d="M70.76,32.56s-.1,.02-.1,.05c0,.04,.1,.09,.13,.06,.02-.02,.02-.09-.03-.11"/>
  <path class="cls-2" d="M70,36.41s-.04,.09-.06,.14c-.26,.63-.18,.76-.15,.8,.05,.06,.1,.08,.18,.09l1.8-.78s0,0,0-.02c.05-.19,.22-.17,.24-.33,.01-.16-.18-.34-.57-.7-.11-.1-.14-.13-.16-.19-.09-.24,.19-.46,.1-.63-.02-.03-.03-.03-.32-.13-.31-.11-.37-.13-.42-.1-.08,.05-.07,.18-.07,.29,0,.22-.07,.43-.19,.79,.04,.25,.07,.51,.09,.78h-.45Z"/>
  <path class="cls-2" d="M70.91,38.06c.13,.04,.27,0,.56-.05,.17-.03,.25-.05,.33-.1,.16-.12,.22-.35,.22-.53,0-.14-.05-.25-.11-.34l-1.41,.61c.17,.16,.19,.34,.42,.4"/>
  <path class="cls-2" d="M54.19,31.93c.05-.02,.1-.05,.16-.07-.05,.02-.11,.05-.16,.07"/>
  <path class="cls-2" d="M50.93,23.28c-.1-.15-.19-.24-.28-.23-.03,0-.06,.02-.09,.04l.13,.3,.25-.11Z"/>
  <path class="cls-2" d="M65.71,25.99c-.07-.07-.27,.01-.32,.03-.2,.08-.2,.19-.35,.23-.17,.05-.39-.02-.48-.18-.07-.1-.05-.2-.04-.38,.01-.13,.06-.37,.14-.37,.02,0,.03,0,.04,.01,.14,.11,.15,.27,.24,.3,.08,.03,.2-.09,.31-.2,.17-.17,.16-.25,.28-.3,.15-.07,.32,0,.35,.02,.14,.06,.15,.16,.3,.22,.11,.05,.14,.02,.27,.05,.32,.07,.39,.31,.54,.28,.14-.03,.26-.28,.19-.43-.06-.12-.2-.09-.52-.23-.37-.16-.46-.28-.49-.34-.02-.04-.07-.13-.05-.24,.03-.21,.27-.23,.36-.41,.04-.08,.04-.18-.21-.68-.27-.54-.41-.82-.63-.98-.13-.09-.25-.15-.48-.26-.31-.15-.41-.15-.45-.15-.23,0-.27,.13-.43,.1-.19-.03-.3-.24-.4-.43-.12-.21-.22-.41-.15-.59,.03-.07,.08-.12,.15-.17-1.27-.5-2.56-.88-3.84-1.12l-3.52,1.53c1.11,.58,2.24,1.35,3.39,2.31,1.25,1.05,2.46,2.28,3.62,3.66l2.08-.9c.03-.16,.18-.32,.11-.4"/>
  <path class="cls-2" d="M53.73,21.31c-.22,0-.31-.21-.42-.17-.12,.04-.04,.29-.2,.59-.02,.04-.1,.2-.27,.33-.32,.26-.6,.16-.71,.37-.07,.13,.03,.21-.02,.33l2.8-1.21c-.08-.11-.07-.41-.16-.56-.07-.03-.14-.05-.21-.07-.11,.03-.26,.12-.5,.26-.17,.09-.22,.13-.31,.13"/>
  <path class="cls-2" d="M51.62,23.58c.24,.14,.5-.05,.56,.03,.12,.16-.63,.99-.81,.88-.06-.03,0-.13-.06-.39-.04-.2-.11-.33-.18-.47l-.29,.13,1.85,4.27s0,0,0,0c1.69-.71,3.66-1.06,5.91-1.06,1.67,0,3.17,.16,4.49,.49h.03c-1.12-1.34-2.28-2.52-3.48-3.53-1.23-1.03-2.44-1.84-3.62-2.42l-4.51,1.95s.07,.07,.12,.1"/>
  <path class="cls-2" d="M67.33,29.56c.02-.17,.03-.43,.05-.84,.02-.55,0-.68-.1-.77-.14-.14-.34-.11-.39-.25-.04-.12,.09-.19,.05-.31-.04-.11-.17-.12-.36-.23-.19-.11-.17-.17-.35-.3-.12-.09-.22-.13-.31-.16l-2.14,.93s.03,.04,.05,.06c1.15,.36,2.15,.85,3,1.48,.17,.13,.33,.26,.49,.4"/>
  <path class="cls-2" d="M55.96,35.44c.12,.02,.29,.04,.44-.06,.15-.1,.2-.26,.24-.35,.06-.17,.03-.25,.07-.28,.13-.07,.57,.5,.71,.7,.64,.86,.55,.97,.91,1.33,.39,.39,.48,.25,1.13,.78,.61,.5,.75,.8,.94,.74,.26-.08,.37-.76,.25-1.25-.11-.46-.27-.78-.27-.78-.1-.2-.18-.29-.17-.44,.02-.2,.17-.23,.34-.48,.18-.28,.08-.35,.28-.82,.17-.4,.27-.41,.26-.61-.02-.26-.21-.32-.18-.58,.02-.22,.19-.37,.21-.39,.14-.13,.23-.09,.32-.21,.12-.16,.04-.32,.14-.37,.05-.03,.13,0,.28,.06,.1,.04,.16,.06,.21,.1,.16,.11,.14,.22,.28,.33,.06,.05,.08,.04,.29,.11,.28,.1,.42,.15,.52,.25,.09,.09,.07,.13,.2,.45,.15,.35,.23,.54,.35,.55,.15,0,.2-.35,.44-.38,.13-.02,.25,.07,.29,.11,.1,.08,.11,.14,.24,.33,.11,.15,.16,.23,.24,.29,.02,.02,.05,.03,.08,.05-.43-.94-1.01-1.67-1.7-2.18-1.09-.84-2.76-1.21-4.94-1.21-1.69,0-3.02,.2-3.99,.64l1.55,3.58s.04,0,.07,0"/>
  <path class="cls-2" d="M53.65,34.52c.38-.04,.75,.06,.79,.07,.25,.06,.27,.11,.53,.17,.07,.01,.13,.02,.18,.03l-1.19-2.74c-1.21,.63-1.78,1.67-1.78,3.07,0,.01,0,.02,0,.03,.09-.04,.19-.08,.3-.13,.84-.36,.83-.46,1.16-.49"/>
  <path class="cls-2" d="M52.58,36.63s.03,.04,.04,.06c-.01-.02-.02-.04-.04-.06,0,0,0,0,0,0"/>
  <path class="cls-2" d="M47.29,35.4c0-.22,.01-.43,.02-.64h0s-1.45,.63-1.45,.63c0,.07-.02,.14-.03,.2-.07,.36-.22,.44-.17,.67,.05,.2,.19,.3,.14,.4-.01,.02-.03,.04-.24,.12-.23,.09-.26,.09-.28,.13,0,.02,0,.05,0,.08,.03,.03,.06,.06,.09,.09,.06,.06,.11,.11,.16,.16,.03,.02,.07,.03,.1,.04,.17,.05,.24-.03,.38,.03,.16,.07,.21,.24,.27,.39,.03,.08,.21,.3,.54,.75,.55,.74,.67,.64,.94,1.13,.2,.37,.17,.5,.39,.69,.26,.22,.43,.15,.68,.39,.26,.25,.19,.44,.43,.57,.2,.11,.47,.09,.67-.02,.09-.05,.15-.11,.2-.18-1.91-1.36-2.86-3.24-2.86-5.65"/>
  <path class="cls-2" d="M43.83,34.56s0,.02,0,.03c0,.08,.05,.18,.16,.34,.1,.15,.15,.24,.25,.28,.03,.01,.06,.02,.09,.02-.03-.28-.06-.57-.08-.85-.15,.05-.36,.05-.41,.18"/>
  <path class="cls-2" d="M60.71,19.49c1.25,.27,2.49,.67,3.72,1.18,.23-.07,.35-.07,.44-.18,.07-.09,.07-.2,.08-.4,0-.21-.03-.39-.07-.5-1.12-.3-2.26-.52-3.42-.65l.08,.19-.83,.36Z"/>
  <path class="cls-2" d="M44.21,29.63s0,.07,0,.1c0-.05,0-.1,.01-.14,0,.01-.01,.03-.01,.04"/>
  <path class="cls-2" d="M55.51,21.29c-.06-.03-.12-.05-.19-.08-.07,.08-.12,.16-.16,.23l.35-.15Z"/>
  <path class="cls-2" d="M57.16,20.57c-.11,.01-.25,.03-.4,.05-.58,.08-.88,.13-1.11,.28,.12,.05,.25,.11,.37,.17l1.14-.49Z"/>
  <path class="cls-2" d="M44.14,28.91s.08,.03,.16,.01c.02-.16,.04-.31,.06-.46-.16,.2-.28,.38-.22,.45"/>
  <path class="cls-2" d="M63.44,27.57c.05,.01,.1,.03,.15,.04-.05-.01-.1-.03-.15-.04"/>
  <path class="cls-2" d="M58.49,19.64c-.2,.09-.19,.28-.27,.47l.91-.39c-.23-.07-.44-.17-.64-.08"/>
  <path class="cls-2" d="M60.54,18.85v.02c-.06,.1-.15,.23-.27,.36l.77-.33c-.17-.02-.34-.03-.5-.04"/>
  <path class="cls-2" d="M45.26,28.72s.03,.07,.03,.09c0,.19-.32,.29-.6,.41-.04,.4-.08,.81-.1,1.24-.04,.74-.05,1.51-.02,2.29,.33-.39,.4-.49,.51-.47,.17,.03,.16,.32,.4,.38,.14,.04,.31-.01,.35-.11,.04-.1-.1-.18-.11-.34-.01-.26,.3-.53,.4-.49,.09,.04-.06,.29,.07,.49,.16,.23,.5,.12,.61,.34,.09,.18-.06,.41-.08,.44-.12,.18-.3,.24-.47,.29-.34,.1-.41,0-.8,.08-.22,.04-.37,.11-.66,.24-.08,.03-.14,.06-.19,.09,.03,.45,.07,.91,.12,1.37,.02,0,.03-.01,.05-.02,.18-.08,.78-.34,1-.14,.01,.01,.02,.03,.03,.04l1.55-.67c.27-2.12,1.34-3.84,3.28-5.12,.52-.37,1.08-.68,1.67-.96l-1.85-4.27-.11,.05c.02,.08,.04,.14,0,.21-.05,.09-.12,.1-.57,.23-.48,.14-.64,.19-.68,.31-.02,.09,.06,.13,.04,.23-.04,.18-.34,.33-.62,.33-.19,0-.32-.08-.47,0-.03,.01-.07,.04-.11,.09-.14,.21,.08,.54,.01,.59-.08,.05-.34-.33-.57-.26-.02,0-.06,.02-.08,.05-.1,.13,.16,.35,.09,.52-.07,.17-.34,.08-.45,.27-.12,.19,.11,.41,0,.58-.09,.13-.26,.05-.41,.21-.16,.16-.11,.37-.18,.38-.08,.01-.17-.2-.29-.49-.12-.28-.18-.42-.14-.49,.1-.18,.49,.03,.77-.2,.17-.13,.26-.4,.18-.54-.17-.29-1.11,0-1.26,.04-.07,.02-.17,.05-.32,.11-.24,.79-.42,1.65-.55,2.58,.23-.08,.45-.15,.52-.05"/>
  <path class="cls-2" d="M42.9,28.12c-.4,.48-.48,.67-.85,.95-.32,.23-.46,.25-.64,.48-.31,.4-.39,.99-.19,1.14,.13,.1,.32-.05,.44,.06,.14,.14-.07,.49,.03,.57,.08,.06,.34-.09,.51-.31,.28-.38,.09-.69,.36-.93,.17-.15,.32-.09,.48-.3,.1-.13,.12-.25,.15-.37,.08-.3,.22-.5,.46-.81,.24-.32,.56-.56,.8-.7,.09-.5,.2-.99,.32-1.45-.17,.1-.36,.22-.55,.37-.62,.47-1.07,1-1.32,1.3"/>
  <path class="cls-2" d="M37.73,36.21c-.39,.15-.56,.21-.59,.36,0,.05,0,.05,.04,.26,.04,.21,.06,.31,.05,.4-.01,.23-.13,.24-.15,.48,0,.09-.02,.24,.06,.37,.09,.15,.25,.2,.36,.23,.05-.7,.13-1.4,.24-2.09,0,0,0,0,0,0"/>
  <path class="cls-2" d="M38.49,37.61c.23-.63,.06-.93,.31-1.11,.12-.09,.25-.09,.42-.26,.09-.1,.14-.19,.15-.22,.12-.25,.02-.36,.11-.52,.1-.2,.29-.11,.58-.35,.26-.21,.26-.38,.39-.38,.15,0,.18,.23,.47,.57,.15,.18,.43,.43,.5,.38,.07-.05-.02-.38-.19-.65-.16-.25-.3-.29-.34-.5-.03-.17,0-.4,.12-.44,.15-.06,.29,.3,.78,.65,.41,.29,.5,.17,.74,.42,.16,.17,.36,.48,.53,.48,.02,0,.03,0,.03,0,.08-.06-.17-.35-.1-.65,.05-.22,.24-.35,.27-.37,.15-.1,.23-.07,.34-.11,.02-.01,.05-.02,.08-.05,.19-.14,.11-.3,.33-.48,.08-.07,.15-.09,.19-.12,0-.08-.01-.15-.02-.23-.05-.05-.1-.1-.11-.17-.02-.08,.01-.15,.09-.26-.05-.95-.05-1.87,0-2.77-.02,.02-.03,.03-.05,.05-.19,.11-.42-.14-.56-.04-.1,.07-.01,.22-.12,.4-.07,.12-.17,.18-.34,.26-.7,.35-.86,.3-1.12,.53-.17,.15-.17,.23-.35,.32-.18,.1-.49,.18-.61,.05-.17-.17,.09-.66-.03-.71-.02-.01-.05,0-.08,.02-.1,.05-.17,.16-.25,.41-.08,.26-.06,.29-.13,.48-.05,.13-.08,.21-.16,.3-.16,.17-.28,.12-.42,.24-.18,.16-.07,.35-.21,.78-.06,.17-.14,.42-.36,.62-.22,.2-.35,.12-.7,.37-.05,.04-.13,.1-.21,.16-.03,.14-.06,.28-.09,.42,.06,.04,.13,.07,.18,.16,.09,.17,.03,.42-.08,.57-.04,.06-.09,.1-.27,.18-.13,.75-.22,1.5-.28,2.26,.11-.04,.19-.09,.23-.12,.05-.04,.2-.16,.34-.55"/>
  <path class="cls-2" d="M70.42,33.31s-.02,.13,0,.23c.02,.07,.05,.16,.07,.16,.02,0,.02-.1,.01-.18-.01-.1-.06-.21-.08-.21"/>
  <path class="cls-2" d="M67.29,26.25s0-.05-.02-.06c-.03-.02-.07,.01-.07,.03,0,.02,.07,.05,.09,.03"/>
  <path class="cls-2" d="M73,39.61s-.05,.05-.04,.06c.02,.03,.13,0,.13-.02,0-.02-.04-.06-.09-.04"/>
  <path class="cls-2" d="M68.24,29.55c.07-.04,0-.28-.05-.42-.01-.03-.13-.29-.21-.27-.07,.02-.12,.25-.03,.44,.07,.16,.23,.28,.3,.25"/>
  <path class="cls-2" d="M72.55,39.82s.05,.03,.09,.02c.04-.01,.07-.06,.06-.07-.02-.02-.15,.03-.15,.06"/>
  <path class="cls-2" d="M71.38,40.24c.11-.04,.65-.27,.62-.43,0,0,0-.01,0-.02-.07-.1-.35,.07-.75,.14-.2,.04-.33,.03-.5,.06,.05,.14,.1,.27,.15,.41,.15-.02,.3-.07,.49-.16"/>
  <path class="cls-2" d="M70.24,40.18s.07,.1,.17,.14c-.03-.07-.05-.15-.08-.22-.07,.03-.09,.05-.09,.08"/>
  <path class="cls-2" d="M77.72,56.47l.08,.19c.06-.08,.12-.16,.18-.24l-.03-.02c-.22-.16-.41-.28-.56-.36-.02-.01-.04-.02-.06-.04-.15,.28-.31,.56-.47,.83l.86-.37Z"/>
  <path class="cls-2" d="M58.23,65.37c.91,.13,1.83,.2,2.74,.2,1.5,0,3-.18,4.47-.56-1.26-.03-2.6-.38-3.98-1.04l-3.23,1.4Z"/>
  <path class="cls-2" d="M60.35,63.8c-.11,.05-.2,.09-.31,.11-.22,.06-.33,.03-.49,.04-.2,.01-.4,.13-.79,.37-.34,.21-.5,.31-.61,.41-.07,.06-.18,.18-.28,.34l3.11-1.35c-.08-.04-.15-.08-.23-.12-.01,0-.03,.02-.04,.03-.13,.08-.26,.13-.35,.17"/>
  <path class="cls-2" d="M61.97,63.75c2.12,.93,4.16,1.13,5.93,.43l-1.1-2.53-4.83,2.09Z"/>
  <path class="cls-2" d="M57.63,65.7c-.03,.22,0,.41,.04,.53h0c1.74,.09,3.5-.02,5.25-.33-.65,.07-1.29,.1-1.94,.1-1.12,0-2.24-.1-3.35-.29"/>
  <path class="cls-2" d="M76.42,55.92c-.5,.11-.53-.03-.77,.08-.36,.16-.3,.46-.68,.6-.21,.08-.28,0-.49,.1-.27,.12-.23,.27-.45,.37-.27,.12-.43-.06-.81,.04-.07,.02-.12,.04-.18,.07-.09,.51-.2,1-.33,1.47l3.5-1.52c.27-.42,.52-.85,.76-1.3-.01,0-.02,0-.03,0-.18-.02-.25,.03-.51,.09"/>
  <path class="cls-2" d="M67.19,61.49l1.1,2.53c1.68-.8,2.95-2.39,3.74-4.62l-4.83,2.09Z"/>
  <path class="cls-2" d="M65.77,60.73c-.32,.15-.35,.15-.6,.27-.52,.25-.49,.3-.67,.33-.35,.05-.51-.15-.67-.03-.16,.12-.05,.36-.22,.48-.16,.12-.33-.05-.52,.05-.29,.15-.12,.69-.4,.84-.19,.1-.34-.11-.59,0-.21,.1-.16,.29-.4,.45-.22,.15-.31,.02-.59,.18-.02,0-.03,.02-.04,.03,.13,.07,.25,.13,.38,.2l5.17-2.24-.34-.78s-.05,0-.08,.02c-.09,.02-.03,.02-.45,.22"/>
  <path class="cls-2" d="M71.95,58.02c-.4,.16-.56-.14-.98,.03-.23,.1-.19,.19-.58,.49-.32,.25-.37,.21-.77,.49-.37,.26-.31,.29-.67,.53-.39,.27-.47,.25-.61,.43-.17,.22-.13,.37-.32,.54-.17,.15-.36,.19-.45,.2-.32,.06-.55-.06-.77-.16l.22,.51,5.17-2.24c.13-.44,.25-.89,.34-1.37-.29,.24-.32,.43-.59,.53"/>
  <path class="cls-2" d="M72.95,61.53c1.76-1.31,3.3-2.84,4.6-4.54l-1.08,.47c-.99,1.52-2.17,2.89-3.52,4.07"/>
  <path class="cls-2" d="M70.58,62.78c2.06-1.31,3.8-3.02,5.18-5.01l-3.23,1.4c-.47,1.46-1.12,2.67-1.96,3.61"/>
  <path class="cls-2" d="M67.11,37.86c-.08-.04-.36-.2-.69-.41-.11-.07-.25-.16-.44-.17-.08,0-.28,.01-.31,.1-.07,.17,.64,.59,1.62,1.21l.87-.38s-.04-.02-.06-.02c-.65-.24-.66-.15-.99-.33"/>
  <path class="cls-2" d="M69.77,40.02c.22-.17,.07-.94-.34-1.26-.05-.04-.25-.12-.66-.3-.03-.01-.05-.02-.08-.03l-.98,.43c1.5,.97,1.87,1.31,2.06,1.16"/>
  <path class="cls-2" d="M67.17,37.16c.32,.3,.62,.58,.73,.51,.11-.07,0-.48-.17-.76-.16-.26-.37-.42-.49-.5h-.84s.05,.03,.07,.06c.3,.25,.29,.32,.69,.7"/>
  <path class="cls-2" d="M61.59,37.85c-.27-.21-.3-.26-.35-.24-.09,.04-.12,.29-.02,.48,.09,.17,.31,.31,.47,.24,.08-.04,.15-.13,.14-.22,0-.07-.06-.11-.25-.25"/>
  <path class="cls-2" d="M49.22,23.31c.28-.27,.52-.39,.52-.4,0-.01-.28,.1-.54,.34-.27,.25-.4,.52-.39,.54,0,0,.14-.22,.41-.48"/>
  <path class="cls-2" d="M48.72,24.02c-.09,0-.21,.17-.25,.32l.39-.17c-.03-.08-.09-.15-.14-.15"/>
  <path class="cls-2" d="M39.75,37.45c-.4,.19-.6,.29-.7,.39-.03,.03-.06,.06-.08,.08l1.63-.71s-.01-.04-.03-.05c-.03-.03-.11-.06-.82,.28"/>
  <path class="cls-2" d="M47.58,47.59h.2s-.02-.05-.03-.07l-.17,.07Z"/>
  <path class="cls-2" d="M46.37,47.59h.16l1.05-.46c-1.45-3.38-2.46-6.81-3-10.07-.1,.14-.08,.27-.19,.34-.18,.11-.35-.13-.84-.17-.15-.01-.35-.03-.58,.06-.34,.13-.52,.41-.58,.5-.2,.3-.14,.48-.29,.54-.18,.08-.31-.17-.71-.27-.48-.13-.77,.11-.9-.05-.06-.07-.05-.17-.02-.27l-2.58,1.12c-.17,3.27,.32,6.62,1.45,9.86,.26-.07,.37,.06,.59-.04,.38-.17,.26-.67,.63-.82,.25-.1,.63-.01,.82,.2,.13,.14,.15,.32,.3,.35,.1,.02,.16-.05,.29-.02,.1,.03,.16,.09,.19,.11,.11,.11,.12,.25,.13,.32,.01,.13-.02,.19-.04,.32,0,0-.02,.12,.01,.3l4.12-1.78s0-.04,0-.07"/>
  <path class="cls-2" d="M52.11,50.18c-.07-.17-.09-.24-.16-.31-.05-.05-.12-.1-.19-.13,.19,.52,.42,1,.7,1.41,0-.01,0-.03,0-.04-.02-.27-.1-.33-.34-.92"/>
  <path class="cls-2" d="M48.24,47.59h2.02c-.02-.23,.02-.46,.07-.73,.03-.16,.08-.33,.17-.53l-2.37,1.03c.04,.08,.07,.16,.11,.24"/>
  <path class="cls-2" d="M42.95,50.32s.34,.24,1.12,.94c.26,.23,.76,.7,1.17,1.42,.44,.76,.63,1.25,.63,1.25,.07,.19,.11,.31,.22,.47,.21,.29,.45,.39,.89,.61,.73,.36,1.09,.54,1.29,.74,.37,.36,.25,.49,.62,.78,.12,.09,.13,.08,.95,.49,.46,.23,.54,.28,.64,.39,.21,.25,.16,.4,.37,.56,.17,.13,.46,.22,.68,.12,.15-.07,.13-.17,.42-.49,.17-.19,.2-.17,.28-.28,.07-.09,.11-.22,.15-.4-.7-.29-1.33-.62-1.9-1.02-2.4-1.68-3.76-4.28-4.06-7.82l-4.02,1.74c.13,.21,.36,.35,.56,.49"/>
  <path class="cls-2" d="M37.46,39.04c-.03,.08-.08,.17-.13,.3-.19,.45-.29,.67-.31,.7-.12,.22-.21,.33-.23,.53-.01,.15,.03,.18,.03,.32,0,.24-.11,.35-.3,.69-.13,.24-.2,.41-.35,.77-.14,.34-.18,.49-.19,.65-.02,.19,.02,.18,0,.41-.02,.42-.15,.46-.1,.72,0,.03,.06,.17,.17,.46,.09,.22,.1,.26,.12,.33,.04,.21-.02,.38-.05,.5-.12,.45-.05,.86-.02,1.04,.07,.42,.26,.72,.34,.84,.18,.28,.27,.27,.84,.86,.36,.37,.36,.41,.55,.55,.26,.2,.61,.46,.93,.38,.11-.03,.16-.08,.22-.14-1.15-3.25-1.66-6.61-1.52-9.9"/>
  <path class="cls-2" d="M50.41,41.71c-.19,.18-.3,.26-.43,.32-.15,.07-.26,.12-.38,.09-.23-.04-.25-.29-.51-.51-.26-.22-.39-.1-.74-.29-.33-.18-.5-.45-.73-.81-.23-.37-.18-.44-.49-.94-.06-.1-.18-.29-.36-.52-.26-.35-.31-.33-.46-.55-.25-.37-.14-.45-.39-.82-.05-.07-.16-.19-.38-.41-.12-.06-.22-.17-.25-.25-.13-.13-.21-.19-.32-.19,0,0,0,0-.01,0,.53,3.28,1.54,6.73,3,10.14l2.78-1.21s.05-.1,.07-.15c.3-.65,.39-.77,.51-1.17,.16-.5,.17-.75,.16-.85,0-.43-.14-.44-.16-.82-.01-.4,.13-.52,.21-.93-.35-.15-.62-.28-.82-.4-.01,0-.02-.01-.03-.02-.07,.08-.14,.17-.28,.3"/>
  <path class="cls-2" d="M54.23,50.7c0,.18,.04,.29,.39,1.03,.4,.83,.45,.9,.53,.98,.28,.28,.8,.58,1.11,.4,.02-.01,.05-.03,.08-.06,.17-.19,.02-.58-.49-1.69-.36-.77-.63-1.33-.63-1.64,0-.03,0-.14-.05-.25-.06-.13-.14-.14-.29-.28-.23-.22-.29-.44-.4-.42-.02,0-.03,.01-.04,.02-.16,.11,.05,.58,.02,1.09-.03,.45-.23,.43-.23,.82"/>
  <path class="cls-2" d="M45.34,35.62l-.16,.07s.04,.03,.06,.03c.04,0,.07-.05,.1-.1"/>
  <path class="cls-2" d="M39.23,30.2s-.03-.2-.53-.37h-.01c-.19,.3-.38,.61-.56,.92h0c.09-.02,1.1-.25,1.09-.55"/>
  <path class="cls-2" d="M39.31,33.64c.03-.23-.24-.34-.21-.68,.01-.16,.07-.17,.13-.43,.04-.15,.09-.47,.03-.53-.11,.29-.21,.59-.31,.89,.02,.06,.03,.12,0,.18-.02,.04-.05,.07-.08,.09-.1,.33-.19,.66-.28,1,.27-.06,.68-.25,.72-.52"/>
  <path class="cls-2" d="M41,36.15c-.1-.05-.25-.02-.28,.05-.03,.09,.12,.27,.26,.26,.05,0,.12-.04,.14-.1,.03-.08-.05-.18-.13-.21"/>
  <path class="cls-2" d="M40.14,35.6c-.07,.03-.09,.21-.02,.34,.04,.08,.14,.17,.2,.15,.07-.03,.08-.19,.04-.3-.04-.11-.15-.21-.22-.19"/>
  <path class="cls-2" d="M40.18,36.34c-.06-.03-.15,.05-.2,.12-.06,.1-.06,.25,0,.28,.06,.03,.15-.02,.2-.09,.08-.11,.07-.29,0-.32"/>
  <path class="cls-2" d="M38.33,32.91c-.11-.05-.32,.14-.39,.34-.05,.15-.05,.37,.05,.42,.1,.05,.3-.09,.39-.28,.01-.05,.03-.09,.04-.14,.02-.14,0-.29-.09-.33"/>
  <path class="cls-2" d="M50.94,48.79c.03,.28-.1,.49,.05,.71,.02,.03,.1,.14,.24,.18,.11,.03,.15-.02,.3-.01,.08,0,.16,.03,.23,.06-.23-.64-.41-1.35-.53-2.15h-.97c.01,.1,.03,.19,.07,.29,.19,.48,.56,.49,.61,.92"/>
  <path class="cls-2" d="M51.6,35.34c-.19,.02-.35,.01-.58,.11-.16,.07-.2,.13-.38,.19-.1,.03-.26,.09-.45,.07-.1,0-.24-.07-.52-.18-.25-.1-.3-.13-.39-.12-.06,.01-.03,.02-.31,.17-.1,.05-.18,.09-.2,.17,0,0,0,.03,0,.07,.02,.14,.23,.18,.42,.31,.3,.2,.26,.4,.45,.43,.15,.02,.19-.11,.43-.13,.16-.01,.19,.04,.37,.06,.11,.01,.43,.06,.64-.11,.24-.19,.22-.58,.38-.58,.02,0,.03,0,.05,.01,.19,.07,.17,.32,.3,.49,.2,.27,.58,.08,.78,.34-.26-.45-.38-.95-.39-1.48-.27,.11-.44,.17-.59,.19"/>
  <path class="cls-2" d="M64.9,57.25h0c.13-.04,.27-.09,.4-.13,1.01-.36,1.9-.82,2.68-1.37,1.84-1.36,2.87-3.17,3.09-5.41,.02-.15,.03-.31,.04-.47,0-.16,.01-.32,.01-.48,0-2.76-1.3-4.9-3.89-6.45-.82-.47-2.35-1.11-4.59-1.88-.19-.07-.39-.13-.59-.2-.8-.27-1.69-.55-2.65-.85-.64-.2-1.23-.4-1.76-.57,0,0,0,0,0,0-.07-.02-.15-.05-.22-.07-.08-.03-.16-.05-.24-.08-.02,0-.05-.02-.07-.02,0,0,0,0,0,0-1.44-.49-2.39-.86-2.82-1.09-.77-.41-1.32-.91-1.67-1.48,.06,.12,.05,.25,.03,.44-.03,.36-.16,.73-.43,1.17-.33,.55-.42,.44-.75,1-.19,.33-.24,.49-.46,.65-.24,.17-.39,.13-.54,.32-.14,.18-.05,.29-.21,.58-.03,.06-.07,.13-.12,.2,.17,.12,.35,.24,.54,.36,.07-.09,.13-.16,.26-.27,.21-.19,.4-.36,.53-.3,.16,.07,.13,.48,.11,.72,0,.11-.02,.2-.04,.28,.96,.41,2.46,.95,4.52,1.62,.2,.06,.4,.13,.6,.2,.3,.1,.6,.19,.92,.3,.86,.26,1.63,.5,2.3,.72,0,0,0,0,0,0,1.91,.61,3.08,1.03,3.51,1.25,1.84,.92,2.81,2.18,2.81,3.77,0,1.26-.67,2.22-1.93,2.97-.35,.2-.74,.37-1.16,.51-1.1,.38-2.46,.57-4.03,.57-2.47,0-4.27-.46-5.44-1.3-.47-.35-.87-.78-1.21-1.3,0,.07,0,.16-.01,.27-.05,.31-.22,.49-.38,.71-.34,.46-.57,.77-.51,1.07,.02,.11,.2,.27,.54,.58,.44,.41,.68,.59,.64,.73-.04,.12-.26,.09-.3,.24-.03,.09,.04,.14,.09,.31,.04,.12,.04,.22,.05,.42,.01,.24-.01,.41-.12,1.08-.02,.15-.04,.28-.06,.38,.41,.17,.84,.32,1.29,.45,0,0,0,0,0,0,.13,.04,.26,.07,.39,.1,.11,.03,.23,.06,.34,.08,1.39,.32,2.96,.48,4.71,.48,2.22,0,4.16-.27,5.8-.8m-12.6-16.9s-.09,.01-.1-.01c-.01-.03,.04-.09,.07-.08,.03,0,.05,.07,.03,.1"/>
  <path class="cls-2" d="M100.32,47.08c-.59,2.26-1.59,3.98-3.01,5.11-1.34,1-3.1,1.55-5.23,1.55-3.27,0-5.69-1.05-7.24-3.06-1.42-1.88-2.14-4.61-2.14-8.12s.71-6.11,2.18-8.04c1.59-2.18,3.94-3.22,7.07-3.22,2.09,0,3.81,.42,5.15,1.34,1.38,.92,2.3,2.34,2.8,4.31h4.77c-.46-3.01-1.76-5.44-3.94-7.2-2.26-1.84-5.19-2.76-8.71-2.76-4.77,0-8.41,1.55-10.93,4.73-.32,.4-.62,.83-.9,1.27-.13,.2-.25,.4-.36,.61-.15,.26-.29,.53-.42,.81,.06,0,.17,.05,.26,.1,.1,.06,.21,.15,.19,.18-.02,.03-.17-.03-.29-.09-.07-.04-.15-.1-.18-.14-.23,.49-.43,.99-.61,1.52,0,0,0,0,0,0,.04,.09,.07,.2,.18,.26,.05,.02,.07,.02,.11,.03,.19,.06,.12,.37,.32,.57,.13,.13,.23,.05,.49,.25,.08,.06,.19,.14,.17,.19-.03,.08-.33,.1-.6,.01-.49-.16-.7-.6-.92-.56-.05,.17-.1,.34-.14,.51,0,.04,0,.08-.03,.11-.18,.73-.32,1.49-.42,2.28,.02,.06,.04,.12,.07,.18,.13,.25,.27,.33,.32,.35,.04,.02,.22,.11,.38,.04,.2-.09,.23-.37,.24-.49,.01-.12,0-.17-.06-.52-.04-.25-.07-.43-.08-.64,0-.08-.02-.56,.07-.58,.05-.01,.15,.18,.35,.57,.17,.33,.23,.47,.37,.51,.1,.03,.18,0,.26,.06,.07,.07,.07,.17,.08,.23,0,.09,.06,.26,.17,.61,.14,.45,.32,.42,.45,.87,.05,.16,.09,.3,.08,.49,0,.1-.01,.14,0,.24,.01,.1,.04,.17,.13,.35,.14,.29,.16,.29,.19,.39,.06,.16,.06,.29,.06,.43,0,.65,.04,.46,.04,1.13,0,.72-.05,.86-.08,.94-.1,.27-.16,.22-.26,.51-.14,.41-.03,.56-.22,.87-.01,.03-.09,.13-.23,.33-.14,.19-.2,.29-.23,.32-.14,.15-.28,.21-.53,.32-.23,.11-.35,.16-.45,.11-.07-.03-.12-.12-.2-.28-.07-.13-.12-.24-.17-.38-.11-.38,0-.56-.1-.62-.13-.08-.37,.23-.57,.17,.05,.33,.1,.66,.17,.98,0,.03,0,.05,.01,.08,.21,1,.48,1.94,.84,2.82,.09,.22,.18,.44,.28,.65,.45,.97,.99,1.86,1.63,2.66,2.43,3.1,6.15,4.69,11.14,4.69,3.22,0,5.99-.92,8.29-2.76,2.47-1.97,4.02-4.69,4.69-8.21h-4.77Zm-20.69-11.71c-.09,.15-.27,.24-.32,.19-.05-.04,.02-.21,.1-.32,.07-.09,.19-.2,.25-.17,.05,.03,.04,.19-.03,.3m.74-.05s-.09-.05-.08-.1c0-.05,.06-.09,.1-.08,.04,.01,.05,.06,.05,.1,0,.04-.03,.08-.07,.08"/>
  <path class="cls-2" d="M38.37,35.11s-.08-.05-.09-.1c-.02-.1,.07-.22,.18-.31,.04-.18,.08-.36,.13-.54-.13,.03-.23,.03-.25,0-.03-.04,.13-.11,.22-.35,.08-.23-.01-.34,.09-.49,.07-.11,.15-.12,.22-.16,.02-.07,.04-.13,.06-.2,0-.02,.02-.05,.02-.07-.03-.09-.08-.18-.07-.32,0-.32,.29-.61,.37-.58,0,0,0,0,.01,.01,.53-1.46,1.21-2.83,2-4.08l3.52-1.53s0,.04-.01,.06c.2-.11,.37-.19,.51-.25,0,0,0-.01,0-.02l5.06-2.19c-.03-.09-.07-.2-.05-.36,.02-.21,.12-.45,.25-.54l-.97-2.23c1.47-.58,3.16-.55,4.96,.06,.05-.01,.09-.02,.12-.01,.04,.01,.07,.04,.1,.08,.19,.07,.38,.14,.57,.22,.08-.1,.18-.21,.31-.3,0,0,.01,0,.02,0-1.25-.55-2.47-.85-3.61-.88,1.47-.38,2.98-.57,4.5-.57,.91,0,1.82,.07,2.74,.2l-.15,.07c.16,.05,.34,.07,.54,0,.1-.04,.16-.09,.29-.18,.13-.1,.23-.2,.32-.3l-.28,.12c-3.68-.66-7.38-.27-10.77,1.2-3.39,1.47-6.2,3.89-8.24,7.04l-1.39,.6,.17,.38,.83-.36c-.84,1.41-1.54,2.96-2.06,4.63-.04,.13-.08,.27-.12,.4,0,.03-.01,.07-.02,.1,0,.02-.01,.03-.02,.05-.27,.93-.48,1.87-.63,2.83,.21-.08,.35-.14,.45-.19,.05-.3,.11-.61,.17-.91m10.83-14.09l1.1,2.53-1.43,.62c.03,.07,.03,.15,0,.23-.08,.18-.33,.21-.39,.15-.04-.04-.03-.12,0-.21l-3.01,1.3c.78-2.23,2.05-3.82,3.74-4.62m-2.29,1.23c-.83,.94-1.49,2.16-1.96,3.62l-3.25,1.41c1.41-2.03,3.17-3.73,5.21-5.03"/>
  <path class="cls-2" d="M44.68,29.23c.02-.15,.04-.31,.06-.46-.16,.06-.32,.12-.44,.15-.03,.22-.05,.44-.07,.67,.06-.16,.25-.27,.46-.36"/>
  <path class="cls-2" d="M76.95,55.83c.08,.01,.17,.05,.38,.17,.88-1.65,1.56-3.43,2.02-5.31-.1-.21-.19-.43-.28-.65-.45,2.05-1.16,4-2.12,5.78"/>
  <path class="cls-2" d="M44.21,29.73c-.02,.23-.04,.47-.05,.71,0,0,0,0,0,0,.07-.08,.09-.21,.11-.31,.03-.22-.04-.31-.05-.41"/>
  <path class="cls-2" d="M54.97,21.59c.06,.02,.12-.05,.19-.15l-.25,.11s.03,.04,.06,.05"/>
  <path class="cls-2" d="M44.58,37.06s.05-.07,.09-.1c.05-.04,.16-.14,.3-.14-.05-.32-.1-.65-.14-.97l.36-.16s-.06-.08-.06-.12c0-.13,.2-.21,.24-.17,.04,.03,.02,.14-.03,.22l.53-.23c.02-.15,.02-.33-.05-.43l-1.05,.45c-.01-.11-.02-.22-.04-.33-.17,.08-.29,.15-.4,.15,.01,.12,.03,.24,.04,.36l-3.76,1.63c.03,.11-.09,.33-.14,.52l3.95-1.71c.05,.34,.1,.69,.16,1.04m-.49-1.01c-.05,.06-.3-.04-.3-.11,0-.05,.15-.13,.24-.06,.06,.04,.08,.13,.05,.16"/>
  <path class="cls-2" d="M75.08,48.14s-.03,.04-.05,.05c-.16,.14-.41,.25-.6,.23l-1.36,.59c-.38-2.78-1.11-5.7-2.18-8.62-.06,0-.12,0-.19,0-.1-.01-.2-.04-.28-.07,1.11,3.01,1.88,6.02,2.25,8.87l-1.57,.68h0c0,.16-.02,.31-.04,.47,0,0,0,0,0,0l1.66-.72c.21,1.72,.27,3.38,.18,4.95-.06,1.05-.18,2.02-.37,2.92,.07-.06,.15-.12,.26-.19,.09-.05,.16-.1,.23-.13,.15-.81,.25-1.67,.3-2.58,.09-1.63,.02-3.35-.2-5.14l5.12-2.22s0-.05-.01-.08c-.02-.11-.04-.23-.06-.34l-3.08,1.33Z"/>
  <path class="cls-2" d="M44.82,27.79s-.18,0-.37,.11c-.03,.18-.06,.37-.09,.56,.22-.29,.52-.61,.46-.67"/>
  <path class="cls-2" d="M63.88,20.9c.48,.19,.96,.4,1.43,.63,.76,.37,1.5,.78,2.22,1.23,.04,0,.08,0,.12,.01,.09,.03,.15,.11,.18,.18,.74,.47,1.45,.99,2.13,1.55l-.89,.39s0,.04,0,.05c-.06,.15-.27,.08-.47,.26-.19,.17-.19,.41-.27,.47l.25-.11s0-.06,.01-.07c.02-.01,.06,0,.09,.03l1.64-.71c2.94,2.49,5.34,5.71,7,9.45l-4.41,1.91s-.03,.06-.03,.1c-.02,.12,.03,.25,.1,.32l.43-.19c.14-.16,.26-.34,.31-.31,.01,0,.03,.03,.02,.14,0,0,0,.02,0,.03l1.86-.81c.02-.12,.06-.2,.11-.23,.09-.05,.24,.06,.25,.07,0,0,0,0,0,0l1.51-.66c.1,.23,.19,.47,.28,.7,.07,.02,.16,.05,.26,.08,.12,.04,.2,.06,.26,.08-.13-.34-.27-.69-.41-1.03l1.97-.86c.12-.21,.24-.41,.36-.61l-2.5,1.08c-1.65-3.72-4.03-6.95-6.95-9.46l2.21-.96-.17-.38-2.4,1.04c-1.51-1.25-3.15-2.31-4.9-3.15-.35-.17-.71-.33-1.06-.48-.05,.01-.1,.03-.16,.05-.17,.06-.3,.11-.4,.17"/>
  <path class="cls-2" d="M78.48,36.77c-.1,.09-.08,.23-.07,.36,0,.02,.01,.04,.02,.05,.04-.16,.08-.31,.13-.46,0,0-.02,0-.03,0-.03,0-.04,.02-.05,.03"/>
  <path class="cls-2" d="M65.3,57.12c-.13,.05-.26,.09-.4,.13l1.4,3.24c.19-.03,.34,.03,.5,.1l-1.5-3.47h0Z"/>
  <path class="cls-2" d="M44.38,34.27c.05-.12-.06-.19-.02-.34,.02-.06,.07-.13,.24-.22-.02-.32-.04-.64-.05-.96-.03,.03-.06,.06-.09,.1-.15,.17-.25,.28-.31,.37,0,.14,.01,.29,.02,.43,.05,.05,.09,.09,.08,.15,0,.04-.03,.06-.06,.08,.01,.17,.02,.33,.04,.5,.07-.02,.12-.06,.15-.12"/>
  <path class="cls-2" d="M68.3,25.67c-.06,0-.13-.07-.15-.15-.03-.1,.02-.19,.09-.28l-2.65,1.15s0,.1,.01,.14c.05,.11,.16,.11,.33,.17l2.4-1.04s-.02,.01-.03,.01"/>
  <path class="cls-2" d="M77.89,56.85l-.08-.19c-.08,.11-.17,.23-.25,.34l.33-.14Z"/>
  <path class="cls-2" d="M61.37,18.75l-.33,.14c.14,.01,.28,.03,.42,.05l-.08-.19Z"/>
  <path class="cls-2" d="M69.96,37.43l-.22,.1c-.17-.38-.34-.75-.51-1.12h.77c.14-.31,.18-.3,.3-.61,.02-.06,.04-.11,.06-.17-.37-2.62-1.38-4.65-3.02-6.07,0,.06-.02,.1-.03,.14-.02,.07-.15,.45-.4,.75-.07,.09-.16,.17-.22,.32-.06,.17-.04,.25-.11,.31-.11,.08-.24-.07-.38-.02-.2,.07-.3,.46-.25,.77,.06,.33,.28,.54,.33,.58,.46,.41,.92,.07,1.41,.44,.39,.3,.45,.81,.46,.92,.05,.47-.14,1.02-.36,1.05-.12,.01-.25-.12-.28-.16-.16-.17-.12-.33-.22-.37-.12-.04-.21,.22-.38,.22-.27,0-.32-.63-.71-.73-.15-.04-.16,.05-.41,.03-.37-.04-.54-.26-.62-.19-.1,.08,.07,.47,.14,.65,.1,.25,.18,.33,.14,.39-.05,.07-.27,.05-.44-.05,.25,.53,.45,1.13,.6,1.8h.82c-.3-.23-.41-.21-.65-.45-.28-.28-.48-.67-.4-.74,.08-.07,.47,.19,.72,.41,.22,.2,.19,.24,.37,.38,.29,.23,.42,.16,.75,.37,.01,0,.03,.02,.05,.03h1.52c.2,.42,.4,.85,.59,1.29l-1.2,.52c.09,.04,.26,.11,.54,.22l.83-.36c.29,.67,.56,1.35,.81,2.02,.03-.02,.08-.03,.14-.05,.1-.03,.19-.05,.26-.06-.26-.69-.54-1.38-.83-2.08l.59-.25s-.1-.09-.17-.13c-.15-.08-.27-.09-.36-.1m-2.83-5.61c-.08,.09-.25,.11-.33,.03-.07-.08-.04-.21,.03-.29,.07-.08,.19-.13,.28-.07,.1,.06,.1,.23,.02,.33"/>
  <path class="cls-2" d="M51.11,23.6s.01,.03,.02,.04l.37-.16c-.09-.1-.15-.24-.1-.34,.09-.22,.57-.09,.7-.35,0-.01,0-.02,.01-.03l-1.19,.52c.06,.09,.12,.2,.19,.33"/>
  <path class="cls-2" d="M50.5,46.32l6.17-2.67c-.21-.07-.41-.13-.6-.2l-5.32,2.31c-.1,.22-.18,.41-.25,.56"/>
  <path class="cls-2" d="M72.55,36.31l-.79,.34c-.03,.15,.07,.25,.15,.39l.68-.3s0-.02,0-.03c0-.21-.03-.32-.04-.41"/>
  <path class="cls-2" d="M62.92,65.89c1.81-.19,3.61-.65,5.34-1.4,1.74-.75,3.31-1.76,4.69-2.96-1.45,1.08-3.04,2.01-4.77,2.76-1.72,.75-3.49,1.27-5.26,1.59"/>
  <path class="cls-2" d="M58.02,20.39c.11-.09,.16-.19,.2-.28l-1.06,.46c.51-.05,.66-.02,.86-.18"/>
  <path class="cls-2" d="M57.86,65.08l-.39,.17c-3.53-.66-6.96-2.28-9.94-4.7l6.44-2.79c1.16,1.38,2.37,2.62,3.62,3.66,1.07,.9,2.13,1.62,3.16,2.19,.2-.12,.21-.2,.34-.29-2.24-1.19-4.55-3.16-6.72-5.74h.02c-.11-.04-.23-.06-.34-.09-.13-.03-.26-.07-.39-.1,0,0,0,0,0,0,0,.01,.02,.02,.03,.03l-6.52,2.83c-2.88-2.44-5.33-5.64-7.01-9.44l2.23-.97c-.04-.06-.07-.13-.09-.2-.02-.07-.03-.14-.04-.2l-2.27,.98c-.24-.56-.46-1.13-.65-1.7-.03,0-.05,.01-.08,.02-.15,.06-.22,.13-.28,.2,.19,.55,.4,1.1,.64,1.64l-2.73,1.18,.17,.38,2.73-1.18c1.68,3.8,4.1,7,6.97,9.46l-2.22,.96,.17,.38,2.41-1.05c2.91,2.41,6.25,4.06,9.7,4.81l-.85,.37,.17,.38,1.41-.61s.07,.01,.11,.02c0,0,0,0,0-.01,.03-.25,.12-.45,.23-.61"/>
  <path class="cls-2" d="M67.48,38.71c-.06-.04-.13-.08-.19-.12l-5.24,2.27s0,0,0,0c.2,.07,.4,.13,.59,.2l5.08-2.2c-.08-.05-.15-.1-.23-.15"/>
  <path class="cls-2" d="M37.66,38.76c.15-.08,.23,.02,.47-.05,.19-.05,.32-.16,.44-.26,.25-.21,.25-.34,.4-.52l-1.06,.46s0-.07,0-.11c-.09,.03-.19,.05-.3,.04-.02,0-.06,0-.11-.02,0,.09-.02,.18-.02,.27l-2.4,1.04,.17,.38,2.21-.96s0,0,0,0c.09-.19,.12-.25,.2-.28"/>
  <path class="cls-2" d="M63.84,27.68c-.08-.03-.17-.05-.25-.07,.08,.02,.17,.05,.25,.07"/>
  <path class="cls-2" d="M63.09,27.48c.12,.03,.24,.06,.35,.09-.12-.03-.23-.06-.35-.09"/>
  <path class="cls-2" d="M52.69,28.04c-.13,.05-.25,.11-.37,.16,.12-.06,.25-.11,.37-.16"/>
  <path class="cls-2" d="M47.36,34.29h0c-.02,.16-.04,.32-.05,.48,.01-.16,.03-.32,.05-.48"/>
  <path class="cls-2" d="M46.38,47.65h0c0,.15,.02,.3,.03,.44-.01-.15-.02-.29-.03-.44"/>
  <path class="cls-2" d="M78.63,36.47h0s-.03,.09-.04,.14c.01-.05,.03-.09,.04-.14"/>
  <path class="cls-2" d="M55.55,35.26c-.08-.14,.03-.25-.05-.37-.06-.09-.16-.09-.34-.11l1.94,4.47s0,0,0,0c.02,0,.05,.02,.07,.02,.08,.03,.16,.05,.24,.08,.07,.02,.15,.05,.22,.07,0,0,0,0,0,0l-1.73-4c-.12-.02-.28-.06-.35-.18"/>
  <path class="cls-2" d="M54.35,31.86h0s0,0,0,0Z"/>
  <path class="cls-2" d="M53.97,32.04h0s.04-.02,.06-.03c-.02,.01-.04,.02-.06,.03"/>
  <path class="cls-2" d="M54.03,32.01c.05-.03,.11-.06,.16-.08-.05,.03-.11,.05-.16,.08"/>
  <path class="cls-2" d="M63.13,53.16h0c.13-.05,.27-.09,.39-.14l-3.62-8.36s0,0,0,0c-.17-.05-.35-.11-.53-.17l3.76,8.67Z"/>
  <path class="cls-2" d="M58.78,66.47c-.37,0-.74,0-1.12-.03-4.41-.2-8.68-1.62-12.35-4.1-3.77-2.55-6.72-6.11-8.54-10.3-1.52-3.52-2.17-7.22-1.93-11.02,.23-3.62,1.3-7.21,3.11-10.37,.19-.33,.38-.64,.56-.94,2.57-4.07,6.27-7.24,10.71-9.16,3.56-1.55,7.48-2.21,11.33-1.91,1.47,.11,2.95,.37,4.38,.75,.37,.1,.74,.21,1.1,.32,.73,.23,1.45,.5,2.15,.8,5.64,2.42,10.09,6.85,12.53,12.48,1.68,3.88,2.31,8.13,1.82,12.3-.48,4.05-1.99,7.94-4.38,11.24-2.51,3.48-5.93,6.23-9.89,7.94-3.04,1.32-6.22,1.98-9.49,1.98m-.02-47.48c-3.2,0-6.41,.66-9.37,1.94-4.36,1.89-8,5-10.52,9-.18,.29-.37,.6-.55,.92-1.77,3.11-2.83,6.63-3.05,10.19-.24,3.73,.4,7.37,1.9,10.83,1.79,4.12,4.68,7.62,8.39,10.12,3.6,2.44,7.8,3.83,12.14,4.03,3.59,.17,7.09-.48,10.42-1.92,3.89-1.69,7.25-4.38,9.71-7.8,2.34-3.25,3.83-7.07,4.3-11.05,.48-4.1-.13-8.28-1.78-12.09-2.4-5.53-6.77-9.89-12.31-12.26h0c-.68-.29-1.39-.56-2.11-.79-.36-.12-.72-.22-1.08-.32-1.4-.38-2.85-.62-4.3-.74-.59-.05-1.18-.07-1.77-.07"/>
  <text class="cls-1" transform="translate(117.48 44.36)"><tspan x="0" y="0">智能空间认知实验室</tspan></text>
  <text class="cls-3" transform="translate(117.48 59.95)"><tspan x="0" y="0">Intelligent Space Cognitive Lab</tspan></text>
</svg>