<svg height="100%" version="1.1" width="100%" xmlns="http://www.w3.org/2000/svg" preserveAspectRatio="xMidYMid meet" viewBox="0 0 600 442" xmlns:xlink="http://www.w3.org/1999/xlink"><desc>Created with Snap</desc><defs/><g id="root" contentwidth="389.6" contentheight="112">
          <rect class="background" height="2000%" width="2000%" y="-1000%" x="-1000%" style="" fill="#ffffff"/>
          <rect class="watermarklayer" height="100%" width="100%" y="0" x="0" style="" fill="none"/>
          <g class="content" id="content" transform="matrix(1,0,0,1,178,245)">
            <g class="icon" style="mask: url(#mask);">
            <svg height="112" version="1.1" width="389.6" xmlns="http://www.w3.org/2000/svg" x="-72.8" y="-80"><desc>Created with Snap</desc><defs/><svg xmlns:xlink="http://www.w3.org/1999/xlink" version="1.1" xmlns="http://www.w3.org/2000/svg" viewBox="0 0 389.6 112"><defs/><g><path fill="#009bff" stroke="none" class="nameBg sloganBg" paint-order="stroke fill markers" d=" M 65 22.5 L 55 89.5 L 324.6 89.5 L 334.6 22.5 M 45 22.5 L 35 89.5 L 45 89.5 L 55 22.5 M 25 22.5 L 15 89.5 L 25 89.5 L 35 22.5" style=""/></g><desc>Created with Snap</desc></svg></svg></g>
            <g id="icon_name_and_slogan_gap">
            </g>
            <g class="name_and_slogan" id="name_and_slogan_id">
              <g class="name"><g id="nameDefaultGroup"><path d="M4.2 -42Q6.2 -42 8.2 -38.2Q7.3 -35.9 7.3 -33.9L7.3 -31.3Q7.3 -30.7 8.2 -27.6Q17.7 -27.8 17.7 -28.2Q18 -28.7 18 -29Q18 -41.7 19.4 -41.7L19.7 -41.7Q22.1 -41.7 23.8 -38.2L23.5 -37.1L23.8 -35.1Q23.5 -33.3 23.2 -33.3L23.5 -30.5L23.5 -28.2Q23.5 -27.5 23.8 -27Q23.5 -26.5 23.5 -25.8L23.5 -23.2Q24 -20.2 24.3 -18.5Q24.6 -16.8 24.6 -16.6Q24.6 -16.3 24.5 -15Q24.3 -13.8 24 -11.5Q24 -10.9 24.6 -9.4Q24 -7.5 24 -7.1L23.8 -7.1Q18.6 -7.1 18.6 -22.4Q18.1 -24.7 17.4 -24.7L12 -24.7L10.2 -23.5Q9.7 -23.8 9.4 -23.8Q8.9 -23.5 8.5 -23.5L8.5 -23.2Q8.5 -22.3 8.8 -21.8L8.5 -20.1L8.5 -19.5Q8.5 -18.9 8.8 -18.4Q8.5 -17.9 8.5 -17.2L8.5 -16.6Q8.5 -16.3 8.8 -16.3L8.2 -14.9Q9.1 -13.5 9.1 -12L9.1 -10.9Q8.6 -7.1 7.6 -7.1L7.3 -7.1Q3.6 -8.7 3.6 -14Q2.8 -17.4 2.5 -33L2.2 -33L2.5 -33.6L2.5 -38.5Q2.5 -40.8 4.2 -42zM36.4 -28.4Q44.9 -27.6 44.9 -23Q44.9 -18.6 38.2 -17.4L32.3 -17.4L32.3 -17.1Q32.3 -12.9 39.3 -12Q41.5 -12 46.1 -13.3L47.7 -13.1L47.7 -12.7Q46.7 -10.4 43.3 -9.3Q42.7 -8.6 38.6 -8.1Q33.3 -8.1 28.7 -16.3Q28.2 -18.2 28.2 -18.9Q28.2 -23.8 32.8 -27.5Q34.3 -28.4 36.4 -28.4zM33.2 -20.7Q40 -20.7 40 -23Q40 -24.1 37.7 -24.6L35.9 -24.6Q34.2 -23.6 33.2 -21.2L33.2 -20.7zM75.5 -28.2L75.5 -26.9Q74.3 -23.8 73.6 -18.4Q72.2 -16.4 71.1 -9.6Q70 -9 70 -7.9L69.2 -7.9Q64.8 -10.4 64.8 -13.7Q64.3 -16.1 63.7 -16.1L63.4 -16.1Q62.3 -16.1 60.7 -7.6Q59.6 -5.5 58.2 -5.5Q53 -8.6 53 -13.2Q50.5 -24.5 50.5 -25.5Q51 -27 51.9 -27.6L52.2 -27.6Q55.4 -25.1 55.4 -20.5Q55.9 -20.5 56.8 -15.6L57.4 -15.6Q58.7 -16.3 61.8 -24.9Q63.7 -27.4 65.6 -27.4L66.2 -26.6L66.2 -25.2Q66.2 -24.7 66.5 -22.6Q66.8 -20.5 67.5 -16.7L68.3 -16.7Q71 -28.2 74.7 -28.2L75.5 -28.2zM80.6 -35.2Q81.6 -35.2 83.1 -33.1Q82.7 -30.6 81.3 -30.6Q79.6 -30.6 78.3 -33.3Q78.7 -34.4 80.6 -35.2zM80.1 -27.3Q80.3 -27.3 80.8 -27.1L82.2 -27.3Q82.8 -27.1 83.8 -26.1L83.5 -24L83.5 -17.9Q83.5 -16.7 84 -15.4Q83.8 -13.1 83.8 -11.2L83.8 -10.6L84.2 -9.9Q83.7 -7.7 82.9 -7.5Q80 -7.5 79.7 -12.1Q79.7 -13 79.5 -13.3L79.7 -14.1Q79.5 -20.5 79.5 -23.5L79.3 -25.4Q79.8 -27.3 80.1 -27.3zM93.6 -33.3Q96.8 -31.2 96.8 -27.6L97.3 -27.4Q97.5 -27.4 98.1 -27.6Q104 -26.8 104 -25.6L104 -25.3Q103.4 -24.1 102 -24.1Q100.6 -24.4 99.6 -24.5Q98.6 -24.6 98.1 -24.6L96.8 -24.3L96.3 -18.9Q97 -11.4 100.8 -11.4L101.5 -11.4Q105.6 -13.2 106.5 -13.2L107 -12.4Q106.1 -8.2 103 -8.2Q92.7 -8.2 91.4 -16.6L90.9 -19.6L91.4 -24.8L90.9 -24.8Q90.3 -24.8 89.9 -24.6Q87.1 -25.1 87.1 -26.4Q87.3 -26.9 87.3 -27.1L89.4 -27.1L91.8 -27.4Q92.2 -33.3 93.1 -33.3L93.6 -33.3zM116.4 -33.3Q119.6 -31.2 119.6 -27.6L120 -27.4Q120.2 -27.4 120.8 -27.6Q126.8 -26.8 126.8 -25.6L126.8 -25.3Q126.2 -24.1 124.8 -24.1Q123.3 -24.4 122.4 -24.5Q121.4 -24.6 120.8 -24.6L119.6 -24.3L119.1 -18.9Q119.7 -11.4 123.6 -11.4L124.3 -11.4Q128.3 -13.2 129.2 -13.2L129.7 -12.4Q128.8 -8.2 125.8 -8.2Q115.5 -8.2 114.1 -16.6L113.6 -19.6L114.1 -24.8L113.6 -24.8Q113 -24.8 112.6 -24.6Q109.9 -25.1 109.9 -26.4Q110.1 -26.9 110.1 -27.1L112.1 -27.1L114.6 -27.4Q115 -33.3 115.9 -33.3L116.4 -33.3zM150.3 -40.9Q152.1 -40.5 152.1 -40Q152.1 -38.6 152 -37.1Q151.9 -35.6 151.8 -34Q151.9 -32.1 152.2 -30.2Q152.5 -28.4 152.9 -26.5Q152.6 -26 152.6 -25.6Q153.4 -19.3 154.1 -19.3L160.1 -37.7Q162.4 -40.3 163.6 -40.3Q164.4 -40 164.4 -39.8Q163.2 -36.5 161.4 -30.2Q159.6 -23.9 157.2 -14.4Q156.4 -14.4 155.2 -7.2L154.7 -7.2Q150 -10.7 150 -17Q149.6 -17.6 148.6 -24.8L148 -24.8Q147.2 -21.8 146.2 -19.1Q145.3 -16.5 144.3 -14.1Q143.7 -14 143.4 -12.1L143.4 -11.8Q143.4 -11.5 143.7 -11.5L142.6 -8.4L141.4 -8.4Q136.2 -12.1 136.2 -15.5L133.6 -31.1L133.6 -36.9L133.3 -38.6Q133.9 -40.1 133.9 -40.6L134.5 -40.6Q138.5 -38.1 138.5 -33.4Q139.2 -31.4 140.3 -22.8Q141 -20.2 141.4 -20.2Q144.9 -27.2 147.2 -38.3Q148.7 -40.1 150.3 -40.9zM177.2 -29.9Q184.1 -29.9 188.1 -25.2Q189.2 -21.5 189.2 -17.4Q187.3 -9.8 184.7 -9.8Q183.2 -8.6 180.4 -8Q173.5 -8 168.3 -15.3Q168.3 -15.6 168 -16.8Q168 -26.1 174.1 -29.1L177.2 -29.9zM176.4 -26Q172.7 -26 171.2 -17.9L171.2 -17.1Q173.3 -11.4 178.5 -11.4Q184.7 -12.8 184.7 -17.4L184.7 -21.3Q184.7 -25.6 179 -26.5L178.3 -26L176.4 -26zM193.5 -29.7Q196.3 -29.7 197.3 -25.1L197.6 -25.1Q201.3 -28.8 204.2 -28.8L205.6 -28.8Q210.2 -28.8 211.7 -19.6Q211.7 -19 211.4 -19Q211.5 -17.1 211.6 -15.6Q211.7 -14.2 211.7 -13.2L211.7 -10.9L212 -9.2Q210.8 -7.6 210.8 -7.2L210.2 -7.2Q207.4 -10.3 207.4 -14.1L207.4 -16.1Q207.4 -17.6 207.6 -19Q206.9 -25.9 205.3 -25.9L203.6 -25.9Q199.8 -25.9 197.6 -17Q197 -7.8 195.3 -7.8Q192.1 -12.5 192.1 -14.1Q193.2 -15.4 193.8 -25.3L192.4 -29.7L193.5 -29.7zM230.5 -42.5Q237.5 -42.5 237.5 -38.2Q238.6 -36.9 238.6 -35.6L238.6 -33Q238.6 -31 236.6 -31Q234.8 -31 233.7 -36.1Q232 -37.6 230.8 -37.6L228.5 -37.6Q222.3 -37.6 220.8 -26.6Q220.8 -18.7 223 -15.4Q225.3 -13.8 225.9 -13.4L228 -13.4Q231.4 -15.8 231.4 -21.8Q228.2 -22.5 228.2 -23.5Q228.2 -25.5 230.5 -25.5L235.7 -24.9Q237.2 -25.2 238.3 -25.2Q240.3 -25.2 241.8 -23.5Q238.9 -22.1 238.9 -21.2Q238.9 -19.4 239 -16.3Q239.2 -13.2 239.5 -8.8Q239.2 -8.3 239.2 -7.9L238.6 -7.9Q234 -9.4 234 -13.7L234 -14L233.1 -14Q232.5 -10.6 225.6 -9.4Q219.3 -9.4 216.4 -18Q215.6 -22.2 215.6 -24.3Q216.8 -37.7 223.6 -40.5Q228.2 -42.5 230.5 -42.5z" style="" fill="#ffffff" id="namepathdata"/></g></g>
              <g class="slogan"><g id="sloganDefaultGroup"/></g>
            </g>
            <g class="border">
            </g>
          </g>
          <defs id="defs">
            <mask xmlns="http://www.w3.org/2000/svg" id="mask">
                <rect id="showAll" fill="white" x="-72.8" y="-80" width="389.6" height="112"/>
                <rect id="hideNameBg" fill="black" x="0" y="0" width="0" height="0" stroke-width="2" stroke="black"/>
                <rect id="hideSloganBg" fill="black" x="0" y="0" width="0" height="0" stroke-width="2" stroke="black"/>
            <path d="M4.2 -42Q6.2 -42 8.2 -38.2Q7.3 -35.9 7.3 -33.9L7.3 -31.3Q7.3 -30.7 8.2 -27.6Q17.7 -27.8 17.7 -28.2Q18 -28.7 18 -29Q18 -41.7 19.4 -41.7L19.7 -41.7Q22.1 -41.7 23.8 -38.2L23.5 -37.1L23.8 -35.1Q23.5 -33.3 23.2 -33.3L23.5 -30.5L23.5 -28.2Q23.5 -27.5 23.8 -27Q23.5 -26.5 23.5 -25.8L23.5 -23.2Q24 -20.2 24.3 -18.5Q24.6 -16.8 24.6 -16.6Q24.6 -16.3 24.5 -15Q24.3 -13.8 24 -11.5Q24 -10.9 24.6 -9.4Q24 -7.5 24 -7.1L23.8 -7.1Q18.6 -7.1 18.6 -22.4Q18.1 -24.7 17.4 -24.7L12 -24.7L10.2 -23.5Q9.7 -23.8 9.4 -23.8Q8.9 -23.5 8.5 -23.5L8.5 -23.2Q8.5 -22.3 8.8 -21.8L8.5 -20.1L8.5 -19.5Q8.5 -18.9 8.8 -18.4Q8.5 -17.9 8.5 -17.2L8.5 -16.6Q8.5 -16.3 8.8 -16.3L8.2 -14.9Q9.1 -13.5 9.1 -12L9.1 -10.9Q8.6 -7.1 7.6 -7.1L7.3 -7.1Q3.6 -8.7 3.6 -14Q2.8 -17.4 2.5 -33L2.2 -33L2.5 -33.6L2.5 -38.5Q2.5 -40.8 4.2 -42zM36.4 -28.4Q44.9 -27.6 44.9 -23Q44.9 -18.6 38.2 -17.4L32.3 -17.4L32.3 -17.1Q32.3 -12.9 39.3 -12Q41.5 -12 46.1 -13.3L47.7 -13.1L47.7 -12.7Q46.7 -10.4 43.3 -9.3Q42.7 -8.6 38.6 -8.1Q33.3 -8.1 28.7 -16.3Q28.2 -18.2 28.2 -18.9Q28.2 -23.8 32.8 -27.5Q34.3 -28.4 36.4 -28.4zM33.2 -20.7Q40 -20.7 40 -23Q40 -24.1 37.7 -24.6L35.9 -24.6Q34.2 -23.6 33.2 -21.2L33.2 -20.7zM75.5 -28.2L75.5 -26.9Q74.3 -23.8 73.6 -18.4Q72.2 -16.4 71.1 -9.6Q70 -9 70 -7.9L69.2 -7.9Q64.8 -10.4 64.8 -13.7Q64.3 -16.1 63.7 -16.1L63.4 -16.1Q62.3 -16.1 60.7 -7.6Q59.6 -5.5 58.2 -5.5Q53 -8.6 53 -13.2Q50.5 -24.5 50.5 -25.5Q51 -27 51.9 -27.6L52.2 -27.6Q55.4 -25.1 55.4 -20.5Q55.9 -20.5 56.8 -15.6L57.4 -15.6Q58.7 -16.3 61.8 -24.9Q63.7 -27.4 65.6 -27.4L66.2 -26.6L66.2 -25.2Q66.2 -24.7 66.5 -22.6Q66.8 -20.5 67.5 -16.7L68.3 -16.7Q71 -28.2 74.7 -28.2L75.5 -28.2zM80.6 -35.2Q81.6 -35.2 83.1 -33.1Q82.7 -30.6 81.3 -30.6Q79.6 -30.6 78.3 -33.3Q78.7 -34.4 80.6 -35.2zM80.1 -27.3Q80.3 -27.3 80.8 -27.1L82.2 -27.3Q82.8 -27.1 83.8 -26.1L83.5 -24L83.5 -17.9Q83.5 -16.7 84 -15.4Q83.8 -13.1 83.8 -11.2L83.8 -10.6L84.2 -9.9Q83.7 -7.7 82.9 -7.5Q80 -7.5 79.7 -12.1Q79.7 -13 79.5 -13.3L79.7 -14.1Q79.5 -20.5 79.5 -23.5L79.3 -25.4Q79.8 -27.3 80.1 -27.3zM93.6 -33.3Q96.8 -31.2 96.8 -27.6L97.3 -27.4Q97.5 -27.4 98.1 -27.6Q104 -26.8 104 -25.6L104 -25.3Q103.4 -24.1 102 -24.1Q100.6 -24.4 99.6 -24.5Q98.6 -24.6 98.1 -24.6L96.8 -24.3L96.3 -18.9Q97 -11.4 100.8 -11.4L101.5 -11.4Q105.6 -13.2 106.5 -13.2L107 -12.4Q106.1 -8.2 103 -8.2Q92.7 -8.2 91.4 -16.6L90.9 -19.6L91.4 -24.8L90.9 -24.8Q90.3 -24.8 89.9 -24.6Q87.1 -25.1 87.1 -26.4Q87.3 -26.9 87.3 -27.1L89.4 -27.1L91.8 -27.4Q92.2 -33.3 93.1 -33.3L93.6 -33.3zM116.4 -33.3Q119.6 -31.2 119.6 -27.6L120 -27.4Q120.2 -27.4 120.8 -27.6Q126.8 -26.8 126.8 -25.6L126.8 -25.3Q126.2 -24.1 124.8 -24.1Q123.3 -24.4 122.4 -24.5Q121.4 -24.6 120.8 -24.6L119.6 -24.3L119.1 -18.9Q119.7 -11.4 123.6 -11.4L124.3 -11.4Q128.3 -13.2 129.2 -13.2L129.7 -12.4Q128.8 -8.2 125.8 -8.2Q115.5 -8.2 114.1 -16.6L113.6 -19.6L114.1 -24.8L113.6 -24.8Q113 -24.8 112.6 -24.6Q109.9 -25.1 109.9 -26.4Q110.1 -26.9 110.1 -27.1L112.1 -27.1L114.6 -27.4Q115 -33.3 115.9 -33.3L116.4 -33.3zM150.3 -40.9Q152.1 -40.5 152.1 -40Q152.1 -38.6 152 -37.1Q151.9 -35.6 151.8 -34Q151.9 -32.1 152.2 -30.2Q152.5 -28.4 152.9 -26.5Q152.6 -26 152.6 -25.6Q153.4 -19.3 154.1 -19.3L160.1 -37.7Q162.4 -40.3 163.6 -40.3Q164.4 -40 164.4 -39.8Q163.2 -36.5 161.4 -30.2Q159.6 -23.9 157.2 -14.4Q156.4 -14.4 155.2 -7.2L154.7 -7.2Q150 -10.7 150 -17Q149.6 -17.6 148.6 -24.8L148 -24.8Q147.2 -21.8 146.2 -19.1Q145.3 -16.5 144.3 -14.1Q143.7 -14 143.4 -12.1L143.4 -11.8Q143.4 -11.5 143.7 -11.5L142.6 -8.4L141.4 -8.4Q136.2 -12.1 136.2 -15.5L133.6 -31.1L133.6 -36.9L133.3 -38.6Q133.9 -40.1 133.9 -40.6L134.5 -40.6Q138.5 -38.1 138.5 -33.4Q139.2 -31.4 140.3 -22.8Q141 -20.2 141.4 -20.2Q144.9 -27.2 147.2 -38.3Q148.7 -40.1 150.3 -40.9zM177.2 -29.9Q184.1 -29.9 188.1 -25.2Q189.2 -21.5 189.2 -17.4Q187.3 -9.8 184.7 -9.8Q183.2 -8.6 180.4 -8Q173.5 -8 168.3 -15.3Q168.3 -15.6 168 -16.8Q168 -26.1 174.1 -29.1L177.2 -29.9zM176.4 -26Q172.7 -26 171.2 -17.9L171.2 -17.1Q173.3 -11.4 178.5 -11.4Q184.7 -12.8 184.7 -17.4L184.7 -21.3Q184.7 -25.6 179 -26.5L178.3 -26L176.4 -26zM193.5 -29.7Q196.3 -29.7 197.3 -25.1L197.6 -25.1Q201.3 -28.8 204.2 -28.8L205.6 -28.8Q210.2 -28.8 211.7 -19.6Q211.7 -19 211.4 -19Q211.5 -17.1 211.6 -15.6Q211.7 -14.2 211.7 -13.2L211.7 -10.9L212 -9.2Q210.8 -7.6 210.8 -7.2L210.2 -7.2Q207.4 -10.3 207.4 -14.1L207.4 -16.1Q207.4 -17.6 207.6 -19Q206.9 -25.9 205.3 -25.9L203.6 -25.9Q199.8 -25.9 197.6 -17Q197 -7.8 195.3 -7.8Q192.1 -12.5 192.1 -14.1Q193.2 -15.4 193.8 -25.3L192.4 -29.7L193.5 -29.7zM230.5 -42.5Q237.5 -42.5 237.5 -38.2Q238.6 -36.9 238.6 -35.6L238.6 -33Q238.6 -31 236.6 -31Q234.8 -31 233.7 -36.1Q232 -37.6 230.8 -37.6L228.5 -37.6Q222.3 -37.6 220.8 -26.6Q220.8 -18.7 223 -15.4Q225.3 -13.8 225.9 -13.4L228 -13.4Q231.4 -15.8 231.4 -21.8Q228.2 -22.5 228.2 -23.5Q228.2 -25.5 230.5 -25.5L235.7 -24.9Q237.2 -25.2 238.3 -25.2Q240.3 -25.2 241.8 -23.5Q238.9 -22.1 238.9 -21.2Q238.9 -19.4 239 -16.3Q239.2 -13.2 239.5 -8.8Q239.2 -8.3 239.2 -7.9L238.6 -7.9Q234 -9.4 234 -13.7L234 -14L233.1 -14Q232.5 -10.6 225.6 -9.4Q219.3 -9.4 216.4 -18Q215.6 -22.2 215.6 -24.3Q216.8 -37.7 223.6 -40.5Q228.2 -42.5 230.5 -42.5z" style="stroke-width: 0;" fill="#000000" id="masknamepathdata" stroke="#000000" paint-order="stroke" transform="matrix(1,0,0,1,0,0)"/></mask>
          
          </defs>
        </g>
        </svg>