<?xml version="1.0" encoding="utf-8"?>
<!-- Generator: Adobe Illustrator 27.0.0, SVG Export Plug-In . SVG Version: 6.00 Build 0)  -->
<svg version="1.1" id="图层_1" xmlns="http://www.w3.org/2000/svg" xmlns:xlink="http://www.w3.org/1999/xlink" x="0px" y="0px"
	 viewBox="0 0 430.4 90.2" style="enable-background:new 0 0 430.4 90.2;" xml:space="preserve">
<style type="text/css">
	.st0{fill:#009BFF;}
	.st1{fill:#FFFFFF;}
</style>
<g>
	<g>
		<path class="st0" d="M67.3,0L53.9,90.2H417L430.4,0 M40.4,0L26.9,90.2h13.5L53.9,0 M13.5,0L0,90.2h13.5L26.9,0"/>
	</g>
</g>
<g id="name_and_slogan_id">
	<g>
		<g id="nameDefaultGroup">
			<path id="namepathdata" class="st1" d="M83.5,20.9c1.8,0,3.6,1.7,5.4,5.1c-0.8,2.1-1.2,4-1.2,5.8v3.5c0,0.5,0.4,2.2,1.2,5
				c8.5-0.2,12.8-0.4,12.8-0.8c0.3-0.4,0.4-0.8,0.4-1.1c0-11.4,0.6-17.1,1.9-17.1h0.4c2.2,0,4,1.6,5.5,4.7l-0.4,1.5l0.4,2.7
				c-0.3,1.6-0.5,2.4-0.8,2.4l0.4,3.8v3.1c0,0.6,0.1,1.2,0.4,1.6c-0.3,0.4-0.4,1-0.4,1.6v3.5c0.4,2.7,0.8,4.8,1.1,6.3
				c0.3,1.5,0.4,2.4,0.4,2.6c0,0.3,0,1-0.1,2.2c-0.2,1.1-0.4,2.6-0.7,4.7c0,0.5,0.3,1.5,0.8,2.8c-0.5,1.7-0.8,2.7-0.8,3.1h-0.3
				c-4.7,0-7-6.9-7-20.6c-0.4-2.1-1-3.1-1.6-3.1H94l-2.4,1.6c-0.4-0.3-0.8-0.4-1.1-0.4c-0.4,0.3-0.9,0.4-1.2,0.4v0.4
				c0,0.8,0.1,1.4,0.4,1.9l-0.4,2.3v0.8c0,0.5,0.1,1,0.4,1.5c-0.3,0.4-0.4,1-0.4,1.6v0.8c0,0.3,0.1,0.4,0.4,0.4l-0.8,1.9
				c0.8,1.3,1.2,2.6,1.2,3.9v1.5c-0.4,3.4-1.1,5.1-2,5.1h-0.4c-3.3-1.4-5-4.5-5-9.3C82,55.5,81.5,47,81.2,33h-0.4l0.4-0.8v-6.6
				C81.2,23.5,82,22,83.5,20.9z M126.9,39.2c7.6,0.7,11.4,3.1,11.4,7.3c0,4-3,6.5-9,7.5h-7.9v0.4c0,3.8,3.1,6.1,9.4,6.9
				c2,0,5-0.6,9.2-1.8l2.2,0.3v0.5c-0.9,2.1-2.9,3.6-5.9,4.6c-0.5,0.6-2.6,1.2-6.3,1.6c-4.8,0-9.2-3.7-13.3-11
				c-0.4-1.7-0.7-2.9-0.7-3.5c0-4.4,2.1-8.3,6.2-11.6C123.4,39.6,125,39.2,126.9,39.2z M122.6,49.6c6.1,0,9.2-1,9.2-3.1
				c0-1-1-1.7-3.1-2.2h-2.4c-1.5,0.9-2.7,2.4-3.6,4.6V49.6z M179.5,39.5v1.8c-1.1,2.8-1.9,6.6-2.6,11.4c-1.3,1.8-2.4,5.7-3.4,11.9
				c-1,0.5-1.5,1.3-1.5,2.3H171c-4-2.2-5.9-4.8-5.9-7.8c-0.4-2.2-0.9-3.2-1.5-3.2h-0.4c-1,0-2.2,3.8-3.6,11.4
				c-1,1.9-2.1,2.8-3.4,2.8c-4.7-2.8-7-6.2-7-10.4c-2.2-10.1-3.4-15.7-3.4-16.6c0.4-1.3,1.1-2.3,1.9-2.8h0.4
				c2.9,2.2,4.3,5.4,4.3,9.6c0.4,0,1.1,2.2,1.9,6.6h0.8c1.2-0.6,3.1-4.8,5.9-12.5c1.7-2.2,3.4-3.4,5.1-3.4l0.8,1.1v1.9
				c0,0.4,0.1,1.6,0.4,3.5c0.3,1.9,0.7,4.5,1.3,7.9h1.1c2.4-10.3,5.3-15.5,8.6-15.5H179.5z M186.4,30c0.9,0,2,0.9,3.4,2.8
				c-0.4,2.2-1.2,3.4-2.4,3.4c-1.5,0-2.9-1.2-4-3.6C183.7,31.6,184.7,30.8,186.4,30z M185.7,40.7c0.2,0,0.5,0.1,0.9,0.3l1.9-0.3
				c0.5,0.2,1.3,0.7,2.2,1.6l-0.4,2.8v8.2c0,1.1,0.2,2.2,0.7,3.4c-0.2,2.1-0.3,4-0.3,5.7v0.8l0.5,0.9c-0.4,2-1,3.1-1.8,3.2
				c-2.6,0-4-2.1-4.3-6.2c0-0.8-0.1-1.3-0.3-1.6l0.3-1.1c-0.2-5.7-0.3-10-0.3-12.7l-0.3-2.6C185.1,41.5,185.5,40.7,185.7,40.7z
				 M203.9,32.6c2.9,1.9,4.3,4.4,4.3,7.7l0.7,0.3c0.2,0,0.5-0.1,1.1-0.3c5.3,0.7,7.9,1.6,7.9,2.7v0.4c-0.5,1.1-1.4,1.6-2.7,1.6
				c-1.3-0.3-2.3-0.4-3.2-0.5s-1.6-0.1-2-0.1l-1.8,0.4l-0.7,7.3c0.6,6.7,2.6,10.1,6.1,10.1h0.9c3.7-1.6,5.9-2.4,6.7-2.4l0.7,1.1
				c-0.8,3.8-2.6,5.7-5.4,5.7c-9.2,0-14.5-3.8-15.6-11.3l-0.7-4l0.7-7h-0.7c-0.5,0-1,0.1-1.3,0.3c-2.5-0.4-3.8-1.3-3.8-2.4
				c0.2-0.4,0.3-0.8,0.3-0.9h2.8l3.2-0.4c0.4-5.3,0.9-7.9,1.8-7.9H203.9z M234.6,32.6c2.9,1.9,4.3,4.4,4.3,7.7l0.5,0.3
				c0.2,0,0.5-0.1,1.1-0.3c5.4,0.7,8.1,1.6,8.1,2.7v0.4c-0.5,1.1-1.4,1.6-2.7,1.6c-1.3-0.3-2.4-0.4-3.2-0.5
				c-0.9-0.1-1.6-0.1-2.2-0.1l-1.6,0.4l-0.7,7.3c0.5,6.7,2.6,10.1,6.1,10.1h0.9c3.6-1.6,5.8-2.4,6.6-2.4l0.7,1.1
				c-0.8,3.8-2.6,5.7-5.3,5.7c-9.2,0-14.5-3.8-15.8-11.3l-0.7-4l0.7-7h-0.7c-0.5,0-1,0.1-1.3,0.3c-2.4-0.4-3.6-1.3-3.6-2.4
				c0.2-0.4,0.3-0.8,0.3-0.9h2.7l3.4-0.4c0.4-5.3,0.9-7.9,1.8-7.9H234.6z M280.3,22.4c1.6,0.4,2.4,0.8,2.4,1.2c0,1.3,0,2.6-0.1,3.9
				c-0.1,1.3-0.2,2.7-0.3,4.2c0.1,1.7,0.3,3.4,0.5,5.1c0.3,1.6,0.6,3.3,0.9,5c-0.3,0.4-0.4,0.9-0.4,1.2c0.7,5.7,1.4,8.5,2,8.5
				l8.1-24.8c2.1-2.3,3.6-3.5,4.7-3.5c0.7,0.3,1.1,0.5,1.1,0.7c-1.1,3-2.4,7.3-4,12.9c-1.6,5.7-3.5,12.7-5.7,21.3
				c-0.7,0-1.6,3.2-2.7,9.7h-0.7c-4.2-3.1-6.3-7.5-6.3-13.2c-0.4-0.5-1-4-1.9-10.5h-0.8c-0.7,2.7-1.5,5.3-2.4,7.7
				c-0.8,2.3-1.7,4.6-2.6,6.7c-0.5,0.1-0.9,1-1.2,2.7v0.4c0,0.3,0.1,0.4,0.4,0.4l-1.5,4.2h-1.6c-4.7-3.3-7-6.5-7-9.6l-3.5-21v-7.8
				l-0.4-2.3c0.5-1.3,0.8-2.2,0.8-2.7h0.8c3.6,2.2,5.4,5.5,5.4,9.7c0.6,1.8,1.4,6.6,2.4,14.3c0.6,2.3,1.1,3.5,1.5,3.5
				c3.1-6.3,5.7-14.4,7.8-24.4C277.4,24.2,278.8,23.1,280.3,22.4z M316.5,37.2c6.2,0,11.1,2.1,14.7,6.3c1,3.3,1.5,6.8,1.5,10.5
				c-1.7,6.8-3.7,10.2-6.1,10.2c-1.3,1.1-3.3,1.9-5.8,2.4c-6.2,0-11.6-3.3-16.3-9.8c0-0.3-0.1-0.9-0.4-2c0-8.4,2.7-13.9,8.2-16.6
				L316.5,37.2z M315.4,42.4c-3.3,0-5.7,3.6-7,10.9v1.1c1.9,5.1,5.2,7.7,9.8,7.7c5.6-1.3,8.4-4,8.4-8.1v-5.3c0-3.9-2.6-6.2-7.7-7
				l-0.9,0.7H315.4z M338.4,37.4c2.5,0,4.2,2.1,5.1,6.2h0.4c3.3-3.3,6.3-5,8.9-5h1.9c4.1,0,6.9,4.1,8.2,12.4c0,0.5-0.1,0.8-0.4,0.8
				c0.1,1.7,0.2,3.2,0.3,4.6c0.1,1.3,0.1,2.3,0.1,3.2v3.1l0.4,2.3c-1.1,1.4-1.6,2.3-1.6,2.7h-0.8c-2.5-2.8-3.8-5.9-3.8-9.3v-2.7
				c0-1.3,0.1-2.6,0.3-3.9c-0.6-6.2-1.7-9.3-3.1-9.3H352c-3.4,0-6.1,4-8.1,12c-0.5,8.3-1.6,12.4-3.1,12.4c-2.9-4.2-4.3-7-4.3-8.5
				c1-1.2,1.8-6.2,2.3-15.1l-1.9-5.9H338.4z M388.3,20.2c6.3,0,9.4,1.9,9.4,5.8c1,1.2,1.5,2.3,1.5,3.5V33c0,1.8-0.9,2.7-2.7,2.7
				c-1.6,0-2.9-2.3-3.9-6.9c-1.5-1.3-2.8-2-3.9-2h-3.1c-5.6,0-9,4.9-10.4,14.8c0,7.1,1,12.1,3,15.1c2.1,1.4,3.4,2.3,3.9,2.7h2.8
				c3.1-2.2,4.6-5.9,4.6-11.3c-2.9-0.6-4.3-1.4-4.3-2.3c0-1.8,1-2.7,3.1-2.7l7,0.8c1.3-0.3,2.5-0.4,3.5-0.4c1.8,0,3.4,0.8,4.7,2.3
				c-2.6,1.3-3.9,2.3-3.9,3.1c0,1.6,0,3.8,0.1,6.6c0.2,2.8,0.4,6.2,0.7,10.1c-0.3,0.4-0.4,0.9-0.4,1.2h-0.8c-4.1-1.3-6.2-4-6.2-7.8
				v-0.4h-1.2c-0.5,3.1-3.9,5.1-10.1,6.2c-5.7,0-9.8-3.9-12.4-11.6c-0.7-3.8-1.1-6.6-1.1-8.5c1.1-12,4.7-19.3,10.8-21.8
				C383.1,21.1,386.2,20.2,388.3,20.2z"/>
		</g>
	</g>
</g>
</svg>
